<svg width="585" height="492" viewBox="0 0 585 492" fill="none" xmlns="http://www.w3.org/2000/svg">
<path d="M272.203 109.446L172.043 168.222C146.64 160.431 114.28 162.836 92.9318 175.378C66.9524 190.604 67.0915 215.132 93.3094 229.901C99.5092 233.343 106.14 235.944 113.028 237.633C118.173 238.928 123.409 239.832 128.691 240.336C149.522 242.324 171.744 238.647 187.785 229.245C207.185 217.855 211.996 201.417 202.256 187.503L216.17 179.393L215.772 170.627H230.322L229.945 162.398L244.495 162.299L244.137 154.09H258.667L258.309 145.861H272.859L272.482 137.651L288.025 137.532L292.756 134.769L297.984 113.183L272.203 109.446ZM131.255 221.91C127.457 223.866 123.252 224.9 118.98 224.928C114.708 224.955 110.49 223.976 106.667 222.069C99.849 218.213 99.7894 211.853 106.667 207.877C110.465 205.921 114.67 204.887 118.942 204.86C123.214 204.832 127.432 205.811 131.255 207.718C137.973 211.574 138.013 217.935 131.255 221.91Z" fill="#FFC538"/>
<path d="M272.203 109.446L172.043 168.222C146.64 160.431 114.28 162.836 92.9318 175.378C66.9524 190.604 67.0915 215.132 93.3094 229.901C99.5092 233.343 106.14 235.944 113.028 237.633C118.173 238.928 123.409 239.832 128.691 240.336C149.522 242.324 171.744 238.647 187.785 229.245C207.185 217.855 211.996 201.417 202.256 187.503L216.17 179.393L215.772 170.627H230.322L229.945 162.398L244.495 162.299L244.137 154.09H258.667L258.309 145.861H272.859L272.482 137.651L288.025 137.532L292.756 134.769L297.984 113.183L272.203 109.446ZM131.255 221.91C127.457 223.866 123.252 224.9 118.98 224.928C114.708 224.955 110.49 223.976 106.667 222.069C99.849 218.213 99.7894 211.853 106.667 207.877C110.465 205.921 114.67 204.887 118.942 204.86C123.214 204.832 127.432 205.811 131.255 207.718C137.973 211.574 138.013 217.935 131.255 221.91Z" fill="#F3EB39"/>
<path d="M326.984 481.227L191.92 403.508C182.816 398.26 183.969 389.097 194.464 383.014L325.653 307.322C336.148 301.359 352.03 300.604 361.133 305.851L496.297 383.531C505.401 388.779 504.248 397.942 493.753 404.024L362.564 479.716C351.99 485.819 336.108 486.475 326.984 481.227Z" fill="#FFC538"/>
<path d="M326.984 481.227L191.92 403.508C182.816 398.26 183.969 389.097 194.464 383.014L325.653 307.322C336.148 301.359 352.03 300.604 361.133 305.851L496.297 383.531C505.401 388.779 504.248 397.942 493.753 404.024L362.564 479.716C351.99 485.819 336.108 486.475 326.984 481.227Z" fill="#F3EB39"/>
<path d="M485.405 305.116L462.148 291.639L548.256 241.946C552.331 239.601 552.331 235.785 548.256 233.439L460.161 182.613C457.877 181.448 455.35 180.84 452.786 180.84C450.223 180.84 447.695 181.448 445.412 182.613L359.285 232.306L335.929 218.809L422.056 169.117C438.992 159.337 466.561 159.337 483.516 169.117L571.473 219.903C588.408 229.702 588.408 245.624 571.473 255.403L485.405 305.116Z" fill="#B9383E"/>
<path d="M485.405 305.116L462.148 291.639L548.256 241.946C552.331 239.601 552.331 235.785 548.256 233.439L460.161 182.613C457.877 181.448 455.35 180.84 452.786 180.84C450.223 180.84 447.695 181.448 445.412 182.613L359.285 232.306L335.929 218.809L422.056 169.117C438.992 159.337 466.561 159.337 483.516 169.117L571.473 219.903C588.408 229.702 588.408 245.624 571.473 255.403L485.405 305.116Z" fill="black"/>
<path d="M523.092 311.059C523.092 298.576 515.499 284.066 506.136 278.659L350.101 188.576C345.907 186.151 342.15 185.992 339.109 187.642L152.821 295.893L332.947 431.634L516.472 325.112C517.047 324.859 517.594 324.546 518.102 324.178C521.183 321.852 523.092 317.301 523.092 311.059Z" fill="#F3EB39"/>
<path d="M332.948 431.634L516.473 325.112C517.048 324.859 517.594 324.546 518.103 324.178C521.164 321.852 523.072 317.301 523.072 311.059C522.926 304.776 521.364 298.606 518.5 293.011L309.294 413.804L332.948 431.634Z" fill="#B9383E"/>
<path d="M332.948 431.634L516.473 325.112C517.048 324.859 517.594 324.546 518.103 324.178C521.164 321.852 523.072 317.301 523.072 311.059C522.926 304.776 521.364 298.606 518.5 293.011L309.294 413.804L332.948 431.634Z" fill="black"/>
<path d="M321.24 431.156L165.205 341.074C155.843 335.667 148.25 321.196 148.25 308.674C148.25 296.191 155.843 290.447 165.205 295.853L321.24 385.936C330.602 391.343 338.195 405.813 338.195 418.336C338.195 430.819 330.602 436.563 321.24 431.156Z" fill="#B9383E"/>
<path d="M321.24 431.156L165.205 341.074C155.843 335.667 148.25 321.196 148.25 308.674C148.25 296.191 155.843 290.447 165.205 295.853L321.24 385.936C330.602 391.343 338.195 405.813 338.195 418.336C338.195 430.819 330.602 436.563 321.24 431.156Z" fill="black"/>
<path d="M297.864 400.764L279.1 389.951C278.071 389.214 277.229 388.246 276.642 387.124C276.055 386.001 275.74 384.757 275.721 383.491C275.721 381.007 277.232 379.854 279.1 380.947L297.864 391.76C298.894 392.497 299.736 393.466 300.323 394.588C300.91 395.71 301.225 396.954 301.243 398.22C301.243 400.705 299.733 401.858 297.864 400.764Z" fill="white"/>
<path d="M157.015 83.5658L189.077 101.773L221.775 82.5719L221.695 74.2236L221.417 74.4025L221.377 73.8061L235.927 73.7068L235.848 65.4776L250.12 65.3783L250.02 57.169L264.292 57.0696L264.213 48.8405L278.464 48.7411L278.385 40.5319L293.631 40.4126L298.381 37.6298L303.609 16.0632L303.51 7.71481L301.005 15.7054L277.908 12.6245L157.015 83.5658Z" fill="#B9383E"/>
<path d="M157.015 83.5658L189.077 101.773L221.775 82.5719L221.695 74.2236L221.417 74.4025L221.377 73.8061L235.927 73.7068L235.848 65.4776L250.12 65.3783L250.02 57.169L264.292 57.0696L264.213 48.8405L278.464 48.7411L278.385 40.5319L293.631 40.4126L298.381 37.6298L303.609 16.0632L303.51 7.71481L301.005 15.7054L277.908 12.6245L157.015 83.5658Z" fill="black"/>
<path d="M188.978 93.4248L221.695 74.2235L221.298 65.4577L235.848 65.3584L235.47 57.1292L250.02 57.0299L249.662 48.8206L264.212 48.7212L263.835 40.4921L278.385 40.3927L278.027 32.1835L293.551 32.0642L298.282 29.2814L303.509 7.71478L277.828 4.27605L156.916 75.2174L188.978 93.4248Z" fill="#FFC538"/>
<path d="M188.978 93.4248L221.695 74.2235L221.298 65.4577L235.848 65.3584L235.47 57.1292L250.02 57.0299L249.662 48.8206L264.212 48.7212L263.835 40.4921L278.385 40.3927L278.027 32.1835L293.551 32.0642L298.282 29.2814L303.509 7.71478L277.828 4.27605L156.916 75.2174L188.978 93.4248Z" fill="#F3EB39"/>
<path d="M210.763 80.6439C206.812 75.3398 201.743 70.9697 195.915 67.843C191.047 65.12 185.894 62.9403 180.55 61.3432L156.936 75.2572L188.978 93.4249L210.763 80.6439Z" fill="#B9383E"/>
<path d="M210.763 80.6439C206.812 75.3398 201.743 70.9697 195.915 67.843C191.047 65.12 185.894 62.9403 180.55 61.3432L156.936 75.2572L188.978 93.4249L210.763 80.6439Z" fill="black"/>
<path d="M302.635 11.3324L303.509 7.71479L299.216 7.13835L197.067 67.0678L202.434 70.1289L302.635 11.3324Z" fill="#B9383E"/>
<path d="M302.635 11.3324L303.509 7.71479L299.216 7.13835L197.067 67.0678L202.434 70.1289L302.635 11.3324Z" fill="black"/>
<path d="M79.5345 109.903L79.1768 98.0363L82.9733 106.047L79.5345 109.903Z" fill="#D3D0CF"/>
<path d="M99.2721 136.598C125.47 151.466 167.769 151.168 193.808 135.942C206.827 128.289 213.267 118.351 213.168 108.452L212.81 95.8896L210.683 98.2549C207.662 92.0533 201.917 86.3287 193.41 81.3992C167.232 66.5112 124.933 66.8094 98.9541 82.0551C72.9747 97.3008 73.094 121.71 99.2721 136.598ZM137.039 114.395C143.856 118.371 143.896 124.632 137.039 128.587C133.244 130.551 129.039 131.591 124.766 131.622C120.493 131.653 116.274 130.675 112.451 128.766C105.633 124.791 105.573 118.53 112.451 114.574C116.256 112.597 120.475 111.55 124.763 111.519C129.051 111.488 133.285 112.474 137.118 114.395H137.039Z" fill="black"/>
<path d="M98.9343 124.731C125.112 139.619 167.411 139.321 193.39 124.075C219.37 108.83 219.23 84.3211 193.013 69.5325C166.795 54.744 124.516 54.9626 98.5368 70.1885C72.5574 85.4143 72.7363 109.863 98.9343 124.731ZM136.701 102.529C143.519 106.504 143.558 112.765 136.701 116.741C132.929 118.664 128.759 119.68 124.525 119.708C120.291 119.736 116.109 118.774 112.312 116.9C105.494 112.924 105.454 106.683 112.312 102.707C116.09 100.771 120.269 99.7462 124.515 99.7151C128.76 99.6841 132.954 100.648 136.76 102.529H136.701Z" fill="#F2F2F2"/>
<path d="M129.287 131.191C123.614 132.184 117.772 131.32 112.63 128.727C107.74 125.944 106.349 121.909 108.436 118.371L96.5095 108.949L84.1658 95.0349C74.6248 108.949 79.6537 125.447 99.2128 136.578C108.327 141.501 118.287 144.664 128.571 145.9L129.287 131.191Z" fill="#B9383E"/>
<path d="M129.287 131.191C123.614 132.184 117.772 131.32 112.63 128.727C107.74 125.944 106.349 121.909 108.436 118.371L96.5095 108.949L84.1658 95.0349C74.6248 108.949 79.6537 125.447 99.2128 136.578C108.327 141.501 118.287 144.664 128.571 145.9L129.287 131.191Z" fill="black"/>
<path d="M98.9343 124.731C105.126 128.177 111.751 130.777 118.633 132.463C123.778 133.757 129.014 134.66 134.296 135.167C155.127 137.154 177.369 133.477 193.39 124.075C219.37 108.83 219.23 84.3211 193.013 69.5325C166.795 54.744 124.516 54.9626 98.5368 70.1885C72.5574 85.4143 72.7363 109.863 98.9343 124.731ZM136.701 102.529C143.519 106.504 143.558 112.765 136.701 116.741C132.929 118.664 128.759 119.68 124.525 119.708C120.291 119.736 116.109 118.774 112.312 116.9C105.494 112.924 105.454 106.683 112.312 102.707C116.09 100.771 120.269 99.7462 124.515 99.7151C128.76 99.6841 132.954 100.648 136.76 102.529H136.701Z" fill="#FFC538"/>
<path d="M98.9343 124.731C105.126 128.177 111.751 130.777 118.633 132.463C123.778 133.757 129.014 134.66 134.296 135.167C155.127 137.154 177.369 133.477 193.39 124.075C219.37 108.83 219.23 84.3211 193.013 69.5325C166.795 54.744 124.516 54.9626 98.5368 70.1885C72.5574 85.4143 72.7363 109.863 98.9343 124.731ZM136.701 102.529C143.519 106.504 143.558 112.765 136.701 116.741C132.929 118.664 128.759 119.68 124.525 119.708C120.291 119.736 116.109 118.774 112.312 116.9C105.494 112.924 105.454 106.683 112.312 102.707C116.09 100.771 120.269 99.7462 124.515 99.7151C128.76 99.6841 132.954 100.648 136.76 102.529H136.701Z" fill="#F3EB39"/>
<path d="M86.4714 97.7183C87.7436 90.1054 93.3887 82.6912 103.427 76.7877C126.524 63.2315 164.151 62.8738 187.467 76.2113C199.035 82.7906 204.899 91.457 205.018 100.183C206.688 90.2445 200.924 80.0674 187.745 72.5738C164.429 59.3356 126.802 59.6139 103.685 73.1701C92.1563 79.9879 86.4714 88.873 86.4714 97.7183Z" fill="#B9383E"/>
<path d="M86.4714 97.7183C87.7436 90.1054 93.3887 82.6912 103.427 76.7877C126.524 63.2315 164.151 62.8738 187.467 76.2113C199.035 82.7906 204.899 91.457 205.018 100.183C206.688 90.2445 200.924 80.0674 187.745 72.5738C164.429 59.3356 126.802 59.6139 103.685 73.1701C92.1563 79.9879 86.4714 88.873 86.4714 97.7183Z" fill="black"/>
<path d="M70.7887 205.651C66.2016 205.693 61.6842 204.527 57.6897 202.272C48.3077 196.945 43.08 186.251 42.9806 172.138C42.7421 146.397 60.6315 114.872 82.9137 101.833C95.0785 94.6969 106.945 93.7031 116.287 99.0301C120.33 101.353 123.684 104.707 126.007 108.75C129.459 115.005 131.194 122.061 131.036 129.204C131.215 154.925 113.306 186.469 91.1031 199.489C84.9989 203.31 77.9872 205.437 70.7887 205.651ZM103.208 105.113C97.7008 105.338 92.3514 107.018 87.7041 109.982C68.0854 121.491 52.2632 149.339 52.4222 172.078C52.4222 182.673 56.02 190.465 62.3608 194.063C68.7016 197.66 77.1891 196.786 86.3326 191.339C105.931 179.831 121.754 151.983 121.595 129.204C121.748 123.737 120.473 118.325 117.897 113.501C116.4 110.936 114.255 108.811 111.676 107.339C109.094 105.875 106.176 105.108 103.208 105.113Z" fill="#B9383E"/>
<path d="M70.7887 205.651C66.2016 205.693 61.6842 204.527 57.6897 202.272C48.3077 196.945 43.08 186.251 42.9806 172.138C42.7421 146.397 60.6315 114.872 82.9137 101.833C95.0785 94.6969 106.945 93.7031 116.287 99.0301C120.33 101.353 123.684 104.707 126.007 108.75C129.459 115.005 131.194 122.061 131.036 129.204C131.215 154.925 113.306 186.469 91.1031 199.489C84.9989 203.31 77.9872 205.437 70.7887 205.651ZM103.208 105.113C97.7008 105.338 92.3514 107.018 87.7041 109.982C68.0854 121.491 52.2632 149.339 52.4222 172.078C52.4222 182.673 56.02 190.465 62.3608 194.063C68.7016 197.66 77.1891 196.786 86.3326 191.339C105.931 179.831 121.754 151.983 121.595 129.204C121.748 123.737 120.473 118.325 117.897 113.501C116.4 110.936 114.255 108.811 111.676 107.339C109.094 105.875 106.176 105.108 103.208 105.113Z" fill="black"/>
<path d="M115.532 126.003L134.177 130.575L136.86 116.661C133.074 118.623 128.879 119.667 124.614 119.708C120.35 119.75 116.136 118.788 112.312 116.9L115.532 126.003Z" fill="#D4ECFF"/>
<path d="M98.9346 124.731C105.126 128.177 111.751 130.778 118.633 132.463C123.779 133.757 129.014 134.66 134.296 135.167C155.127 137.154 177.37 133.477 193.391 124.075L117.46 122.366L98.9346 124.731Z" fill="#B9383E" fill-opacity="0.1"/>
<path d="M98.9346 124.731C105.126 128.177 111.751 130.778 118.633 132.463C123.779 133.757 129.014 134.66 134.296 135.167C155.127 137.154 177.37 133.477 193.391 124.075L117.46 122.366L98.9346 124.731Z" fill="black" fill-opacity="0.2"/>
<path d="M126.981 134.312C121.388 133.324 115.879 131.909 110.503 130.078V141.726C115.789 143.616 121.239 145.013 126.783 145.9C144.115 148.186 126.981 134.312 126.981 134.312Z" fill="#B9383E"/>
<path d="M126.981 134.312C121.388 133.324 115.879 131.909 110.503 130.078V141.726C115.789 143.616 121.239 145.013 126.783 145.9C144.115 148.186 126.981 134.312 126.981 134.312Z" fill="black"/>
<path d="M114.876 131.47C111.203 130.418 107.614 129.089 104.142 127.494C93.9851 122.744 106.826 140.355 106.826 140.355C106.826 140.355 110.284 141.726 114.777 143.137L114.876 131.47Z" fill="#B9383E"/>
<path d="M114.876 131.47C111.203 130.418 107.614 129.089 104.142 127.494C93.9851 122.744 106.826 140.355 106.826 140.355C106.826 140.355 110.284 141.726 114.777 143.137L114.876 131.47Z" fill="black"/>
<path d="M305.378 336.164L272.143 357.591L255.983 354.968L295.479 335.866L305.378 336.164Z" fill="#B9383E"/>
<path d="M305.378 336.164L272.143 357.591L255.983 354.968L295.479 335.866L305.378 336.164Z" fill="black"/>
<path d="M265.206 444.355C265.206 444.355 255.646 439.525 249.762 446.72C243.878 453.916 235.49 470.871 235.232 482.34C234.973 493.809 244.296 493.014 249.841 490.291C255.387 487.568 271.587 464.073 272.581 459.462C273.575 454.85 271.408 448.628 269.858 447.416C268.307 446.203 265.206 444.355 265.206 444.355Z" fill="#F3EB39"/>
<path d="M267.353 442.049L267.791 451.988C267.848 453.019 267.619 454.047 267.127 454.955C266.636 455.864 265.902 456.619 265.008 457.136C262.753 458.372 260.137 458.779 257.613 458.289C250.398 457.136 249.762 455.069 249.245 445.17C248.728 435.271 267.353 442.049 267.353 442.049Z" fill="#FFB6BA"/>
<path d="M267.353 442.049L267.791 451.988C267.848 453.019 267.619 454.047 267.127 454.955C266.636 455.864 265.902 456.619 265.008 457.136C262.753 458.372 260.137 458.779 257.613 458.289C250.398 457.136 249.762 455.069 249.245 445.17C248.728 435.271 267.353 442.049 267.353 442.049Z" fill="black" fill-opacity="0.2"/>
<path d="M230.183 425.372C230.183 425.372 220.602 420.542 214.738 427.738C208.874 434.933 200.447 451.888 200.188 463.338C199.93 474.787 209.252 474.031 214.818 471.288C220.383 468.545 236.563 445.071 237.537 440.459C238.511 435.848 236.384 429.626 234.834 428.414C233.283 427.201 230.183 425.372 230.183 425.372Z" fill="#F3EB39"/>
<path d="M232.27 422.987L232.707 432.926C232.761 433.959 232.527 434.987 232.033 435.895C231.538 436.804 230.801 437.558 229.905 438.074C227.658 439.313 225.047 439.721 222.53 439.227C215.315 438.074 214.579 436.006 214.162 426.088C213.745 416.169 232.27 422.987 232.27 422.987Z" fill="#FFB6BA"/>
<path d="M232.27 422.987L232.707 432.926C232.761 433.959 232.527 434.987 232.033 435.895C231.538 436.804 230.801 437.558 229.905 438.074C227.658 439.313 225.047 439.721 222.53 439.227C215.315 438.074 214.579 436.006 214.162 426.088C213.745 416.169 232.27 422.987 232.27 422.987Z" fill="black" fill-opacity="0.2"/>
<path d="M317.662 240.953C314.82 194.858 267.751 247.731 267.751 247.731L235.55 279.315L206.529 311.119C203.728 314.193 201.633 317.843 200.39 321.812C199.147 325.781 198.787 329.974 199.334 334.097L211.061 423.544C211.339 425.674 212.389 427.628 214.012 429.035C215.635 430.442 217.719 431.204 219.867 431.176C221.325 431.162 222.781 431.036 224.22 430.799C227.02 430.492 229.593 429.115 231.4 426.955C233.208 424.796 234.111 422.02 233.92 419.21L231.773 335.627L292.696 298.894C292.696 298.894 320.485 287.048 317.662 240.953Z" fill="white"/>
<path d="M317.662 240.953C314.82 194.858 267.751 247.731 267.751 247.731L235.55 279.315L206.529 311.119C203.728 314.193 201.633 317.843 200.39 321.812C199.147 325.781 198.787 329.974 199.334 334.097L211.061 423.544C211.339 425.674 212.389 427.628 214.012 429.035C215.635 430.442 217.719 431.204 219.867 431.176C221.325 431.162 222.781 431.036 224.22 430.799C227.02 430.492 229.593 429.115 231.4 426.955C233.208 424.796 234.111 422.02 233.92 419.21L231.773 335.627L292.696 298.894C292.696 298.894 320.485 287.048 317.662 240.953Z" fill="black"/>
<path d="M255.03 319.825L246.363 316.645C246.164 316.645 231.614 330.698 231.753 335.627L238.273 337.714L254.652 321.813L255.03 319.825Z" fill="#B9383E"/>
<path d="M255.03 319.825L246.363 316.645C246.164 316.645 231.614 330.698 231.753 335.627L238.273 337.714L254.652 321.813L255.03 319.825Z" fill="black"/>
<path d="M305.378 336.164C305.378 336.164 341.594 315.492 345.927 306.825C347.617 303.426 350.261 299.888 339.686 294.76L291.405 329.167L293.492 341.093L305.378 336.164Z" fill="#B9383E"/>
<path d="M305.378 336.164C305.378 336.164 341.594 315.492 345.927 306.825C347.617 303.426 350.261 299.888 339.686 294.76L291.405 329.167L293.492 341.093L305.378 336.164Z" fill="black"/>
<path d="M352.685 258.743C349.664 212.668 302.774 265.521 302.774 265.521L270.553 297.105L241.533 328.909C238.736 331.986 236.644 335.636 235.401 339.604C234.159 343.573 233.795 347.764 234.337 351.887L246.065 441.334C246.351 443.464 247.406 445.416 249.032 446.822C250.657 448.228 252.741 448.99 254.89 448.966C256.342 448.942 257.79 448.816 259.223 448.589C262.023 448.282 264.596 446.905 266.404 444.745C268.212 442.586 269.114 439.811 268.923 437L266.777 353.397L327.72 316.665C327.72 316.665 355.448 300.862 352.685 258.743Z" fill="black"/>
<path d="M324.837 110.579C360.616 125.367 359.821 146.477 359.821 146.477C359.821 146.477 352.824 223.819 355.21 275.479C356.204 297.066 240.479 298.715 257.812 241.112C278.166 173.172 270.533 118.192 280.054 109.923C289.575 101.654 315.614 106.743 324.837 110.579Z" fill="#B9383E"/>
<path d="M324.837 110.579C360.616 125.367 359.821 146.477 359.821 146.477C359.821 146.477 352.824 223.819 355.21 275.479C356.204 297.066 240.479 298.715 257.812 241.112C278.166 173.172 270.533 118.192 280.054 109.923C289.575 101.654 315.614 106.743 324.837 110.579Z" fill="#F3EB39"/>
<path d="M336.326 129.204C334.458 136.439 324.957 140.275 315.117 137.731C305.278 135.187 298.798 127.256 300.667 120.02C302.535 112.785 312.036 108.949 321.876 111.493C331.715 114.037 338.195 122.028 336.326 129.204Z" fill="#FFC2B0"/>
<path d="M321.141 140.295C318.968 140.287 316.804 140.006 314.701 139.46C309.823 138.296 305.439 135.617 302.178 131.808C300.721 130.182 299.675 128.231 299.125 126.118C298.575 124.006 298.538 121.792 299.017 119.663C301.005 111.533 311.56 107.14 322.294 109.923C327.171 111.087 331.555 113.766 334.816 117.576C336.271 119.198 337.317 121.146 337.867 123.255C338.417 125.364 338.454 127.574 337.977 129.701C336.307 136.2 329.33 140.295 321.141 140.295ZM315.774 112.467C309.135 112.467 303.589 115.548 302.317 120.418C301.98 122.028 302.031 123.696 302.467 125.282C302.902 126.869 303.709 128.329 304.822 129.542C307.617 132.789 311.366 135.071 315.535 136.061C324.46 138.347 333.047 135.087 334.677 128.746C335.011 127.139 334.958 125.475 334.523 123.893C334.087 122.31 333.282 120.853 332.172 119.643C329.357 116.455 325.608 114.236 321.459 113.302C319.605 112.794 317.695 112.52 315.774 112.487V112.467Z" fill="white"/>
<path d="M310.526 108.969C310.743 113.217 310.643 117.476 310.228 121.71C310.029 125.268 322.472 128.587 325.692 125.367C328.912 122.147 327.68 118.808 328.396 106.703C329.111 94.5976 310.526 108.969 310.526 108.969Z" fill="#FFC2B0"/>
<path d="M328.396 106.703C328.396 106.703 325.335 117.913 310.208 122.227L310.447 112.03L328.396 106.703Z" fill="#EA9C92"/>
<path d="M337.976 78.199C339.333 83.4594 339.099 89.0038 337.304 94.1314C335.51 99.2589 332.236 103.739 327.895 107.006C323.555 110.273 318.343 112.179 312.919 112.484C307.495 112.789 302.103 111.479 297.423 108.72C292.744 105.961 288.987 101.876 286.629 96.982C284.271 92.0881 283.417 86.6048 284.175 81.2255C284.932 75.8461 287.268 70.8123 290.887 66.7603C294.505 62.7083 299.244 59.8202 304.503 58.461C307.997 57.5581 311.635 57.3525 315.208 57.8559C318.782 58.3593 322.221 59.5619 325.329 61.3949C328.438 63.2278 331.155 65.6553 333.325 68.5386C335.495 71.4219 337.075 74.7046 337.976 78.199Z" fill="#FFC2B0"/>
<path d="M317.682 86.0702C317.682 86.0702 302.555 92.5502 292.08 92.6297C281.605 92.7092 283.911 83.9235 283.911 83.9235L315.058 79.5108L317.682 86.0702Z" fill="#EA9C92"/>
<path d="M288.96 87.7798C288.96 87.7798 302.138 82.1943 313.687 84.5199C316.426 85.062 318.896 86.5286 320.683 88.6742C321.204 89.397 321.942 89.9336 322.79 90.2048C324.778 90.6619 328.197 82.1545 332.192 81.9757C336.188 81.7968 338.831 84.5994 335.571 89.8271C332.312 95.0548 333.405 100.899 334.896 101.753C336.386 102.608 352.348 90.3837 338.295 62.516C324.241 34.6483 288.502 49.6952 282.937 55.3006C282.937 55.3006 277.093 60.409 272.322 55.877C272.322 55.877 266.995 95.83 288.96 87.7798Z" fill="#B9383E"/>
<path d="M288.96 87.7798C288.96 87.7798 302.138 82.1943 313.687 84.5199C316.426 85.062 318.896 86.5286 320.683 88.6742C321.204 89.397 321.942 89.9336 322.79 90.2048C324.778 90.6619 328.197 82.1545 332.192 81.9757C336.188 81.7968 338.831 84.5994 335.571 89.8271C332.312 95.0548 333.405 100.899 334.896 101.753C336.386 102.608 352.348 90.3837 338.295 62.516C324.241 34.6483 288.502 49.6952 282.937 55.3006C282.937 55.3006 277.093 60.409 272.322 55.877C272.322 55.877 266.995 95.83 288.96 87.7798Z" fill="black"/>
<path d="M339.785 202.987V223.878C339.789 225.063 339.545 226.235 339.069 227.32C338.593 228.405 337.896 229.379 337.022 230.179L294.088 269.317L298.958 276.771L355.667 235.665C356.973 234.713 358.066 233.498 358.874 232.098C359.682 230.697 360.187 229.143 360.358 227.536L364.194 191.081L339.785 202.987Z" fill="#FFC2B0"/>
<path d="M356.8 136.021C356.8 136.021 369.82 155.6 374.69 207.162C374.69 207.162 352.447 214.377 339.805 210.282C327.163 206.188 356.8 136.021 356.8 136.021Z" fill="#B9383E" fill-opacity="0.5"/>
<path d="M356.8 136.021C356.8 136.021 369.82 155.6 374.69 207.162C374.69 207.162 352.447 214.377 339.805 210.282C327.163 206.188 356.8 136.021 356.8 136.021Z" fill="black"/>
<path d="M337.42 160.788C337.42 160.788 332.311 188.08 332.033 200.9C331.977 202.625 332.467 204.322 333.435 205.751C334.403 207.179 335.798 208.264 337.42 208.851V160.788Z" fill="#B9383E"/>
<path d="M337.42 160.788C337.42 160.788 332.311 188.08 332.033 200.9C331.977 202.625 332.467 204.322 333.435 205.751C334.403 207.179 335.798 208.264 337.42 208.851V160.788Z" fill="#F3EB39" fill-opacity="0.8"/>
<path d="M326.269 296.489L316.787 295.237L255.526 259.876C254.315 259.325 252.991 259.067 251.662 259.122C250.332 259.178 249.035 259.544 247.873 260.194L204.462 285.239L198.717 284.483V290.208C198.734 290.63 198.867 291.039 199.102 291.39C199.337 291.741 199.665 292.02 200.049 292.196L269.46 332.268C270.675 332.819 272.001 333.077 273.334 333.021C274.666 332.966 275.967 332.599 277.132 331.95L324.4 304.679C324.916 304.457 325.363 304.1 325.692 303.645C326.021 303.19 326.22 302.654 326.269 302.095V296.489Z" fill="#F5F5F5"/>
<path d="M280.253 274.147L275.9 271.643H228.056L204.462 285.239L198.717 284.483V290.208C198.734 290.63 198.867 291.039 199.102 291.39C199.337 291.741 199.665 292.02 200.049 292.196L269.46 332.268C270.689 332.885 272.066 333.146 273.435 333.023L280.253 274.147Z" fill="#F5F5F5"/>
<path d="M201.262 284.821L198.717 284.483V290.208C198.734 290.63 198.867 291.039 199.102 291.39C199.337 291.741 199.665 292.02 200.049 292.196L201.262 292.891V284.821Z" fill="#5793CE"/>
<path d="M270.176 332.626C272.318 333.308 274.638 333.159 276.675 332.208V322.489H270.176V332.626Z" fill="#F5F5F5"/>
<path d="M269.46 326.583L200.049 286.511C198.062 285.378 198.32 283.39 200.586 282.078L247.874 254.787C249.037 254.142 250.334 253.778 251.662 253.723C252.991 253.668 254.314 253.923 255.526 254.469L324.997 294.561C326.985 295.694 326.706 297.682 324.44 298.974L277.173 326.265C276.003 326.921 274.694 327.291 273.354 327.347C272.014 327.402 270.68 327.14 269.46 326.583Z" fill="white"/>
<path d="M268.287 320.501L210.644 287.187C209.014 286.233 209.213 284.583 211.101 283.509L236.444 269.258C237.409 268.716 238.488 268.41 239.594 268.365C240.699 268.321 241.799 268.538 242.805 268.999L300.448 302.313C302.078 303.267 301.88 304.917 299.991 306.01L274.668 320.242C273.699 320.784 272.617 321.09 271.508 321.135C270.4 321.179 269.296 320.962 268.287 320.501Z" fill="#CCCCCC"/>
<path d="M250.557 253.475L249.841 258.266C249.224 262.346 249.325 266.504 250.139 270.55L250.994 274.764C251.233 275.929 251.814 276.997 252.664 277.829C253.514 278.662 254.594 279.221 255.765 279.435C256.206 279.514 256.659 279.501 257.096 279.398C257.533 279.295 257.943 279.103 258.303 278.835C258.663 278.567 258.963 278.227 259.187 277.838C259.41 277.449 259.551 277.018 259.601 276.572L260.734 266.336C260.734 266.336 263.358 269.774 264.709 269.774C266.061 269.774 263.298 259.518 260.436 253.714C257.573 247.91 250.557 253.475 250.557 253.475Z" fill="#FFC2B0"/>
<path d="M274.091 177.346L266.637 192.095C264.872 195.58 263.83 199.387 263.576 203.285L260.356 253.714L250.557 253.475L246.104 196.786C245.961 195.039 246.048 193.282 246.363 191.558L251.451 162.995L274.091 177.346Z" fill="#FFC2B0"/>
<path d="M267.114 330.439L261.39 322.826L200.188 287.386C199.104 286.61 198.217 285.591 197.599 284.41C196.981 283.23 196.649 281.92 196.63 280.588V230.477L193.112 225.886L196.411 223.898C196.783 223.688 197.208 223.59 197.634 223.614C198.061 223.639 198.471 223.786 198.817 224.037L268.148 264.368C269.229 265.146 270.113 266.166 270.73 267.346C271.348 268.526 271.682 269.834 271.706 271.166V325.748C271.772 326.308 271.684 326.876 271.453 327.39C271.222 327.905 270.856 328.347 270.394 328.67L267.114 330.439Z" fill="#F5F5F5"/>
<path d="M224.776 301.697L220.443 299.173L196.59 257.709V230.477L193.072 225.886L196.372 223.898C196.744 223.688 197.168 223.59 197.595 223.614C198.021 223.639 198.431 223.786 198.777 224.037L268.148 264.368C269.287 265.128 270.195 266.187 270.772 267.429L224.776 301.697Z" fill="#F5F5F5"/>
<path d="M194.622 227.913L193.072 225.925L196.372 223.938C196.744 223.728 197.168 223.629 197.595 223.654C198.021 223.679 198.431 223.825 198.777 224.077L199.989 224.773L194.622 227.913Z" fill="#F5F5F5"/>
<path d="M268.784 264.726C270.45 266.241 271.485 268.327 271.686 270.57L264.908 274.545L261.648 268.9L268.784 264.726Z" fill="#F5F5F5"/>
<path d="M264.849 266.197L195.478 226.025C193.49 224.892 191.92 226.025 191.92 228.708V283.291C191.935 284.622 192.263 285.931 192.878 287.112C193.492 288.293 194.376 289.313 195.458 290.089L264.829 330.26C266.817 331.393 268.387 330.26 268.387 327.577V272.994C268.376 271.662 268.05 270.352 267.435 269.17C266.82 267.988 265.934 266.969 264.849 266.197Z" fill="#B9383E"/>
<path d="M264.849 266.197L195.478 226.025C193.49 224.892 191.92 226.025 191.92 228.708V283.291C191.935 284.622 192.263 285.931 192.878 287.112C193.492 288.293 194.376 289.313 195.458 290.089L264.829 330.26C266.817 331.393 268.387 330.26 268.387 327.577V272.994C268.376 271.662 268.05 270.352 267.435 269.17C266.82 267.988 265.934 266.969 264.849 266.197Z" fill="#F3EB39"/>
<path d="M298.958 276.771L297.844 279.077C296.566 281.735 294.552 283.97 292.04 285.517L285.242 289.751C284.194 290.412 282.987 290.777 281.749 290.809C280.51 290.84 279.286 290.537 278.206 289.93L277.967 289.771C277.464 289.426 277.043 288.975 276.734 288.45C276.424 287.924 276.234 287.337 276.178 286.73C276.121 286.123 276.198 285.511 276.404 284.937C276.611 284.363 276.941 283.842 277.371 283.41L284.586 275.996C284.586 275.996 280.611 279.097 279.399 277.864C278.564 276.95 283.374 272.478 286.972 272.339C289.601 272.005 292.089 270.961 294.167 269.317L298.958 276.771Z" fill="#FFC2B0"/>
<path d="M281.031 110C281.031 110 254.634 138.722 244 165.079C251.229 176.198 262.305 184.259 275.108 187.719C297.211 194.1 281.031 110 281.031 110Z" fill="#B9383E" fill-opacity="0.5"/>
<path d="M281.031 110C281.031 110 254.634 138.722 244 165.079C251.229 176.198 262.305 184.259 275.108 187.719C297.211 194.1 281.031 110 281.031 110Z" fill="black"/>
<path d="M269.798 185.794L274.091 144.469L263.994 183.19C265.881 184.16 267.819 185.029 269.798 185.794Z" fill="#B9383E"/>
<path d="M269.798 185.794L274.091 144.469L263.994 183.19C265.881 184.16 267.819 185.029 269.798 185.794Z" fill="#F3EB39"/>
<path d="M300.468 103.98L293.372 101.992C295.369 105.05 298.286 107.395 301.701 108.69C306.65 110.042 307.425 105.848 307.425 105.848L300.468 103.98Z" fill="white"/>
<path d="M165.84 40.4921C161.909 40.4921 158.066 39.3264 154.797 37.1422C151.529 34.9581 148.981 31.8537 147.476 28.2217C145.972 24.5896 145.578 20.593 146.345 16.7372C147.112 12.8814 149.005 9.33967 151.785 6.5598C154.565 3.77994 158.107 1.88683 161.963 1.11987C165.818 0.35291 169.815 0.746543 173.447 2.25099C177.079 3.75544 180.184 6.30314 182.368 9.57191C184.552 12.8407 185.718 16.6837 185.718 20.615C185.718 23.2253 185.203 25.8101 184.205 28.2217C183.206 30.6333 181.741 32.8245 179.896 34.6703C178.05 36.516 175.859 37.9802 173.447 38.9791C171.036 39.978 168.451 40.4921 165.84 40.4921ZM165.84 5.09102C162.765 5.08709 159.757 5.99588 157.197 7.70236C154.638 9.40883 152.643 11.8362 151.464 14.6773C150.285 17.5184 149.975 20.6454 150.574 23.6625C151.174 26.6796 152.654 29.451 154.829 31.6261C157.004 33.8011 159.776 35.282 162.793 35.8811C165.81 36.4802 168.937 36.1707 171.778 34.9918C174.619 33.8128 177.047 31.8174 178.753 29.2582C180.46 26.699 181.368 23.691 181.364 20.615C181.359 16.4994 179.722 12.5539 176.812 9.64371C173.902 6.73353 169.956 5.09628 165.84 5.09102Z" fill="#B9383E"/>
<path d="M165.84 40.4921C161.909 40.4921 158.066 39.3264 154.797 37.1422C151.529 34.9581 148.981 31.8537 147.476 28.2217C145.972 24.5896 145.578 20.593 146.345 16.7372C147.112 12.8814 149.005 9.33967 151.785 6.5598C154.565 3.77994 158.107 1.88683 161.963 1.11987C165.818 0.35291 169.815 0.746543 173.447 2.25099C177.079 3.75544 180.184 6.30314 182.368 9.57191C184.552 12.8407 185.718 16.6837 185.718 20.615C185.718 23.2253 185.203 25.8101 184.205 28.2217C183.206 30.6333 181.741 32.8245 179.896 34.6703C178.05 36.516 175.859 37.9802 173.447 38.9791C171.036 39.978 168.451 40.4921 165.84 40.4921ZM165.84 5.09102C162.765 5.08709 159.757 5.99588 157.197 7.70236C154.638 9.40883 152.643 11.8362 151.464 14.6773C150.285 17.5184 149.975 20.6454 150.574 23.6625C151.174 26.6796 152.654 29.451 154.829 31.6261C157.004 33.8011 159.776 35.282 162.793 35.8811C165.81 36.4802 168.937 36.1707 171.778 34.9918C174.619 33.8128 177.047 31.8174 178.753 29.2582C180.46 26.699 181.368 23.691 181.364 20.615C181.359 16.4994 179.722 12.5539 176.812 9.64371C173.902 6.73353 169.956 5.09628 165.84 5.09102Z" fill="black"/>
<path d="M570.093 182.186C567.306 182.186 564.581 181.359 562.263 179.811C559.946 178.262 558.139 176.061 557.073 173.486C556.006 170.911 555.727 168.077 556.271 165.343C556.815 162.61 558.157 160.099 560.128 158.128C562.099 156.157 564.61 154.815 567.343 154.271C570.077 153.727 572.911 154.006 575.486 155.073C578.061 156.139 580.262 157.946 581.811 160.263C583.359 162.581 584.186 165.306 584.186 168.093C584.18 171.829 582.694 175.41 580.052 178.052C577.41 180.694 573.829 182.18 570.093 182.186ZM570.093 158.333C568.163 158.333 566.276 158.906 564.671 159.978C563.066 161.05 561.815 162.575 561.076 164.358C560.337 166.141 560.144 168.104 560.521 169.997C560.897 171.89 561.827 173.629 563.192 174.994C564.557 176.359 566.296 177.288 568.189 177.665C570.082 178.042 572.044 177.848 573.828 177.11C575.611 176.371 577.135 175.12 578.208 173.515C579.28 171.91 579.853 170.023 579.853 168.093C579.847 165.506 578.817 163.027 576.988 161.198C575.159 159.368 572.68 158.338 570.093 158.333Z" fill="#B9383E"/>
<path d="M570.093 182.186C567.306 182.186 564.581 181.359 562.263 179.811C559.946 178.262 558.139 176.061 557.073 173.486C556.006 170.911 555.727 168.077 556.271 165.343C556.815 162.61 558.157 160.099 560.128 158.128C562.099 156.157 564.61 154.815 567.343 154.271C570.077 153.727 572.911 154.006 575.486 155.073C578.061 156.139 580.262 157.946 581.811 160.263C583.359 162.581 584.186 165.306 584.186 168.093C584.18 171.829 582.694 175.41 580.052 178.052C577.41 180.694 573.829 182.18 570.093 182.186ZM570.093 158.333C568.163 158.333 566.276 158.906 564.671 159.978C563.066 161.05 561.815 162.575 561.076 164.358C560.337 166.141 560.144 168.104 560.521 169.997C560.897 171.89 561.827 173.629 563.192 174.994C564.557 176.359 566.296 177.288 568.189 177.665C570.082 178.042 572.044 177.848 573.828 177.11C575.611 176.371 577.135 175.12 578.208 173.515C579.28 171.91 579.853 170.023 579.853 168.093C579.847 165.506 578.817 163.027 576.988 161.198C575.159 159.368 572.68 158.338 570.093 158.333Z" fill="black"/>
<path d="M105.554 438.213L95.9927 418.773L115.432 409.192L124.993 428.652L105.554 438.213ZM101.797 420.741L107.521 432.409L119.189 426.664L113.465 414.996L101.797 420.741Z" fill="black"/>
<path d="M387.561 136.021L378 116.561L397.46 107L407.021 126.499L387.561 136.021ZM383.804 118.549L389.549 130.236L401.216 124.512L395.472 112.844L383.804 118.549Z" fill="#B9383E"/>
<path d="M387.561 136.021L378 116.561L397.46 107L407.021 126.499L387.561 136.021ZM383.804 118.549L389.549 130.236L401.216 124.512L395.472 112.844L383.804 118.549Z" fill="black"/>
<path d="M79.4197 319.585L70.4829 323.979L74.8765 332.915L83.8133 328.522L79.4197 319.585Z" fill="#B9383E"/>
<path d="M79.4197 319.585L70.4829 323.979L74.8765 332.915L83.8133 328.522L79.4197 319.585Z" fill="black"/>
<path d="M430.102 31.1896L376.891 0.499414C376.497 0.216721 376.033 0.0469539 375.55 0.00842257C375.067 -0.0301087 374.582 0.0640575 374.148 0.280766L369 3.26233L372.618 4.59409V43.255C372.648 44.8549 373.049 46.4259 373.791 47.8438C374.533 49.2616 375.594 50.4875 376.891 51.4245L427.697 80.7432V85.2951L432.905 82.2937C433.414 81.8923 433.813 81.3678 434.063 80.7696C434.314 80.1714 434.408 79.5193 434.336 78.8748V39.3591C434.32 37.7609 433.928 36.1888 433.193 34.7697C432.458 33.3506 431.399 32.1243 430.102 31.1896Z" fill="#F3EB39"/>
<path d="M423.425 85.124L370.274 54.4337C368.971 53.5023 367.905 52.2776 367.163 50.8585C366.421 49.4394 366.022 47.8656 366 46.2643V6.74859C366 3.58813 367.988 2.15698 370.274 3.50862L423.425 34.1989C424.725 35.1326 425.789 36.3577 426.531 37.7763C427.273 39.1949 427.673 40.7676 427.698 42.3683V81.884C427.698 85.0445 425.79 86.4756 423.425 85.124Z" fill="black"/>
<path d="M389.359 40.8301C389.359 43.1159 387.768 44.0501 385.781 42.8178C384.741 42.1358 383.876 41.2195 383.254 40.1425C382.633 39.0654 382.273 37.8576 382.203 36.6161C382.203 34.3302 383.793 33.396 385.781 34.6284C386.821 35.3103 387.686 36.2266 388.307 37.3037C388.929 38.3808 389.289 39.5886 389.359 40.8301Z" fill="white"/>
<path d="M400.231 47.1112C400.231 49.3971 398.621 50.3114 396.653 49.0989C395.607 48.4172 394.737 47.4988 394.111 46.4179C393.486 45.337 393.125 44.1241 393.056 42.8774C393.056 40.5915 394.666 39.6772 396.653 40.8897C397.696 41.5736 398.563 42.493 399.184 43.5738C399.806 44.6545 400.164 45.8663 400.231 47.1112Z" fill="white"/>
<path d="M411.104 53.3725C411.104 55.6584 409.494 56.5926 407.506 55.3602C406.467 54.6783 405.601 53.762 404.98 52.6849C404.358 51.6078 403.998 50.4 403.928 49.1585C403.928 46.8727 405.519 45.9385 407.506 47.1708C408.55 47.8506 409.419 48.7659 410.044 49.8431C410.669 50.9203 411.032 52.1292 411.104 53.3725Z" fill="white"/>
<path d="M64.1022 367.19L10.8912 336.499C10.4972 336.217 10.0335 336.047 9.55011 336.008C9.06671 335.97 8.58197 336.064 8.14816 336.281L3 339.262L6.61765 340.594V379.255C6.6476 380.855 7.04928 382.426 7.79099 383.844C8.5327 385.262 9.59408 386.488 10.8912 387.425L61.6971 416.743V421.295L66.9048 418.294C67.4142 417.892 67.8129 417.368 68.0633 416.77C68.3137 416.171 68.4076 415.519 68.336 414.875V375.359C68.3199 373.761 67.9284 372.189 67.1929 370.77C66.4575 369.351 65.3988 368.124 64.1022 367.19Z" fill="#F3EB39"/>
<path d="M57.4249 421.124L4.27356 390.434C2.97077 389.502 1.9052 388.278 1.16285 386.858C0.420505 385.439 0.0221852 383.866 0 382.264V342.749C0 339.588 1.9877 338.157 4.27356 339.509L57.4249 370.199C58.7254 371.133 59.7893 372.358 60.5314 373.776C61.2735 375.195 61.6732 376.768 61.6985 378.368V417.884C61.6985 421.044 59.7903 422.476 57.4249 421.124Z" fill="black"/>
<path d="M23.3586 376.83C23.3586 379.116 21.7685 380.05 19.7808 378.818C18.741 378.136 17.8756 377.22 17.2542 376.142C16.6329 375.065 16.2728 373.858 16.2029 372.616C16.2029 370.33 17.7931 369.396 19.7808 370.628C20.8205 371.31 21.6859 372.227 22.3073 373.304C22.9286 374.381 23.2888 375.589 23.3586 376.83Z" fill="white"/>
<path d="M34.2313 383.111C34.2313 385.397 32.6212 386.311 30.6534 385.099C29.6073 384.417 28.7365 383.499 28.1115 382.418C27.4864 381.337 27.1247 380.124 27.0557 378.877C27.0557 376.592 28.6657 375.677 30.6534 376.89C31.6958 377.574 32.5628 378.493 33.1843 379.574C33.8058 380.655 34.1645 381.866 34.2313 383.111Z" fill="white"/>
<path d="M45.1041 389.372C45.1041 391.658 43.494 392.593 41.5063 391.36C40.4665 390.678 39.6012 389.762 38.9798 388.685C38.3584 387.608 37.9984 386.4 37.9285 385.159C37.9285 382.873 39.5186 381.938 41.5063 383.171C42.5498 383.851 43.419 384.766 44.0439 385.843C44.6688 386.92 45.032 388.129 45.1041 389.372Z" fill="white"/>
</svg>
