<svg width="51" height="50" viewBox="0 0 51 50" fill="none" xmlns="http://www.w3.org/2000/svg">
<ellipse cx="25.9041" cy="25" rx="24.9739" ry="25" fill="white"/>
<rect x="13.9167" y="13" width="23.975" height="24" rx="5" fill="url(#paint0_linear_209_2214)"/>
<path d="M31.4346 23.2462C31.4103 22.6955 31.3214 22.3169 31.194 21.9889C31.0625 21.6407 30.8603 21.3289 30.5953 21.0698C30.3364 20.8066 30.0229 20.6021 29.6791 20.4725C29.3495 20.345 28.9733 20.2559 28.4232 20.2316C27.869 20.2053 27.6931 20.1992 26.2875 20.1992C24.8819 20.1992 24.706 20.2053 24.1539 20.2296C23.6038 20.2539 23.2256 20.343 22.898 20.4705C22.5501 20.6021 22.2386 20.8045 21.9798 21.0698C21.7168 21.3289 21.5126 21.6427 21.3831 21.9869C21.2557 22.3169 21.1668 22.6934 21.1425 23.2441C21.1162 23.7989 21.1101 23.975 21.1101 25.3821C21.1101 26.7891 21.1162 26.9652 21.1404 27.518C21.1647 28.0686 21.2537 28.4472 21.3812 28.7752C21.5126 29.1234 21.7168 29.4352 21.9798 29.6943C22.2386 29.9575 22.5521 30.162 22.8959 30.2916C23.2256 30.4191 23.6017 30.5082 24.1519 30.5325C24.7039 30.5568 24.88 30.5628 26.2855 30.5628C27.6911 30.5628 27.8671 30.5568 28.4192 30.5325C28.9693 30.5082 29.3475 30.4191 29.6751 30.2916C30.3709 30.0223 30.9209 29.4716 31.1899 28.7752C31.3173 28.4452 31.4063 28.0686 31.4306 27.518C31.4548 26.9652 31.4609 26.7891 31.4609 25.3821C31.4609 23.975 31.4589 23.7989 31.4346 23.2462ZM30.5023 27.4775C30.48 27.9836 30.3951 28.2569 30.3243 28.4391C30.1504 28.8906 29.7924 29.2489 29.3414 29.4231C29.1594 29.4939 28.8844 29.579 28.3807 29.6012C27.8347 29.6255 27.6709 29.6315 26.2896 29.6315C24.9082 29.6315 24.7424 29.6255 24.1983 29.6012C23.6927 29.579 23.4197 29.4939 23.2377 29.4231C23.0132 29.34 22.8089 29.2084 22.6431 29.0364C22.4712 28.8683 22.3398 28.6659 22.2568 28.4412C22.186 28.259 22.1011 27.9836 22.0789 27.4795C22.0546 26.9329 22.0486 26.7689 22.0486 25.3861C22.0486 24.0033 22.0546 23.8373 22.0789 23.2927C22.1011 22.7866 22.186 22.5133 22.2568 22.3311C22.3398 22.1063 22.4712 21.9019 22.6452 21.7358C22.813 21.5637 23.0152 21.4321 23.2397 21.3492C23.4218 21.2783 23.6968 21.1933 24.2004 21.171C24.7464 21.1467 24.9103 21.1406 26.2916 21.1406C27.6749 21.1406 27.8387 21.1467 28.3828 21.171C28.8884 21.1933 29.1614 21.2783 29.3434 21.3492C29.5679 21.4321 29.7722 21.5637 29.938 21.7358C30.1099 21.9039 30.2414 22.1063 30.3243 22.3311C30.3951 22.5133 30.48 22.7886 30.5023 23.2927C30.5266 23.8394 30.5326 24.0033 30.5326 25.3861C30.5326 26.7689 30.5266 26.9308 30.5023 27.4775Z" fill="#141414"/>
<path d="M26.2852 22.7207C24.817 22.7207 23.6257 23.9131 23.6257 25.383C23.6257 26.8528 24.817 28.0453 26.2852 28.0453C27.7536 28.0453 28.9447 26.8528 28.9447 25.383C28.9447 23.9131 27.7536 22.7207 26.2852 22.7207ZM26.2852 27.1099C25.3327 27.1099 24.5601 26.3366 24.5601 25.383C24.5601 24.4294 25.3327 23.656 26.2852 23.656C27.2378 23.656 28.0104 24.4294 28.0104 25.383C28.0104 26.3366 27.2378 27.1099 26.2852 27.1099Z" fill="#141414"/>
<path d="M29.6742 22.6137C29.6742 22.9569 29.3962 23.2352 29.0532 23.2352C28.7104 23.2352 28.4324 22.9569 28.4324 22.6137C28.4324 22.2704 28.7104 21.9922 29.0532 21.9922C29.3962 21.9922 29.6742 22.2704 29.6742 22.6137Z" fill="#141414"/>
<defs>
<linearGradient id="paint0_linear_209_2214" x1="15.9287" y1="34.9859" x2="35.9007" y2="15.0349" gradientUnits="userSpaceOnUse">
<stop stop-color="#FFD600"/>
<stop offset="0.5" stop-color="#FF0100"/>
<stop offset="1" stop-color="#D800B9"/>
</linearGradient>
</defs>
</svg>
