<svg width="51" height="50" viewBox="0 0 51 50" fill="none" xmlns="http://www.w3.org/2000/svg">
<ellipse cx="25.7674" cy="25" rx="24.9739" ry="25" fill="white"/>
<ellipse cx="25.7674" cy="25" rx="24.9739" ry="25" fill="white"/>
<rect x="13.7799" y="13" width="23.975" height="24" rx="5" fill="#1088C0"/>
<g clip-path="url(#clip0_209_2232)">
<path d="M30.5609 29.7994V29.799H30.5633V26.2782C30.5633 24.5558 30.1929 23.229 28.1814 23.229C27.2144 23.229 26.5655 23.7602 26.3005 24.2638H26.2726V23.3898H24.3654V29.799H26.3513V26.6254C26.3513 25.7898 26.5095 24.9818 27.5432 24.9818C28.5618 24.9818 28.577 25.9354 28.577 26.679V29.7994H30.5609Z" fill="#141414"/>
<path d="M21.1315 23.3901H23.1198V29.7993H21.1315V23.3901Z" fill="#141414"/>
<path d="M22.1249 20.1992C21.4891 20.1992 20.9733 20.7156 20.9733 21.352C20.9733 21.9884 21.4891 22.5156 22.1249 22.5156C22.7606 22.5156 23.2765 21.9884 23.2765 21.352C23.2761 20.7156 22.7602 20.1992 22.1249 20.1992V20.1992Z" fill="#141414"/>
</g>
<defs>
<clipPath id="clip0_209_2232">
<rect width="9.58997" height="9.60001" fill="white" transform="translate(20.9733 20.1992)"/>
</clipPath>
</defs>
</svg>
