<svg width="65" height="53" viewBox="0 0 65 53" fill="none" xmlns="http://www.w3.org/2000/svg">
<path d="M16.7373 2H11.7455C10.3131 2 9.15192 3.1612 9.15192 4.59361V17.4433C9.15192 18.8757 10.3131 20.0369 11.7455 20.0369H16.7373C18.1697 20.0369 19.3309 18.8757 19.3309 17.4433V4.59361C19.3309 3.1612 18.1697 2 16.7373 2Z" stroke="#F3EB39" stroke-width="3" stroke-miterlimit="10"/>
<path d="M28.4856 3.53354V52.9498L0 43.5225V13.0434L28.4856 3.53354Z" fill="#F3EB39"/>
<path d="M15.5285 15.3755C15.4553 15.2004 15.3497 15.0407 15.2173 14.9047C15.0868 14.7715 14.9315 14.6649 14.7603 14.5908C14.5871 14.5132 14.3994 14.4731 14.2096 14.4731C14.0198 14.4731 13.8322 14.5132 13.659 14.5908C13.4877 14.6649 13.3325 14.7715 13.2019 14.9047C13.0704 15.0408 12.9657 15.2006 12.8936 15.3755C12.8173 15.5564 12.778 15.7506 12.778 15.9468C12.778 16.1431 12.8173 16.3373 12.8936 16.5182C12.9665 16.6911 13.0711 16.8489 13.2019 16.9835C13.3332 17.1159 13.4883 17.2224 13.659 17.2973C13.8322 17.375 14.0198 17.4151 14.2096 17.4151C14.3994 17.4151 14.5871 17.375 14.7603 17.2973C14.931 17.2224 15.0861 17.1159 15.2173 16.9835C15.3491 16.849 15.4546 16.6912 15.5285 16.5182C15.6047 16.3373 15.644 16.1431 15.644 15.9468C15.644 15.7506 15.6047 15.5564 15.5285 15.3755Z" fill="black"/>
<path d="M21.1728 18.2444L21.1507 27.8809C21.1435 28.4711 21.0555 29.0575 20.8892 29.6238C20.7268 30.1738 20.4955 30.7011 20.2008 31.1932C19.9107 31.6788 19.5601 32.1257 19.1573 32.523C18.7531 32.9205 18.3019 33.2672 17.8137 33.5555C17.3214 33.8435 16.7939 34.0665 16.2443 34.219C15.6784 34.375 15.094 34.4537 14.507 34.4531C13.5092 34.4425 12.5281 34.1962 11.6436 33.7345C10.8772 33.3181 10.2176 32.7301 9.71627 32.0164C9.20389 31.2764 8.8367 30.4457 8.63423 29.5687C8.40468 28.6105 8.29645 27.6272 8.31209 26.642V24.1778C8.30947 24.0126 8.37061 23.8529 8.48279 23.7317C8.53831 23.6714 8.60613 23.6238 8.68165 23.5919C8.75717 23.5601 8.83865 23.5449 8.92057 23.5472H10.5863C10.6672 23.546 10.7474 23.5627 10.8212 23.596C10.895 23.6293 10.9605 23.6785 11.0131 23.74C11.1249 23.8644 11.1893 24.0243 11.1948 24.1915V26.6144C11.1948 26.9696 11.1948 27.3358 11.2251 27.7157C11.2531 28.0867 11.3102 28.455 11.3958 28.8171C11.4777 29.1745 11.6015 29.5211 11.7647 29.8495C11.9256 30.1724 12.1471 30.4613 12.4173 30.7003C12.7092 30.9576 13.0501 31.1533 13.4195 31.2758C13.8776 31.4262 14.358 31.4979 14.8402 31.4878C15.4582 31.506 16.0715 31.3738 16.6271 31.1023C17.0523 30.8821 17.4143 30.5571 17.6788 30.1579C17.9258 29.7738 18.0934 29.3441 18.1717 28.8942C18.2514 28.4396 18.2919 27.979 18.2928 27.5175V27.2422C18.2979 27.156 18.2979 27.0696 18.2928 26.9834V18.2444C18.2926 18.1621 18.3091 18.0807 18.3413 18.0049C18.3735 17.9292 18.4207 17.8608 18.48 17.8039C18.5353 17.7444 18.6022 17.6968 18.6765 17.6641C18.7508 17.6315 18.8311 17.6144 18.9123 17.6139H20.5643C20.6473 17.6132 20.7295 17.6297 20.8058 17.6624C20.8821 17.6951 20.9508 17.7433 21.0076 17.8039C21.065 17.8612 21.1095 17.9302 21.138 18.0062C21.1665 18.0822 21.1783 18.1634 21.1728 18.2444Z" fill="black"/>
<path d="M64.8402 15.147C64.8404 15.342 64.8011 15.5349 64.7246 15.7142C64.6551 15.8864 64.5543 16.0441 64.4272 16.1795C64.2961 16.3122 64.141 16.4187 63.9702 16.4934C63.7929 16.5734 63.6002 16.6138 63.4057 16.6118C63.2158 16.6128 63.0278 16.5724 62.8551 16.4934C62.6793 16.4202 62.5194 16.3136 62.3843 16.1795C62.2527 16.0434 62.1481 15.8837 62.0759 15.7087C61.9996 15.5288 61.9603 15.3355 61.9603 15.1401C61.9603 14.9448 61.9996 14.7514 62.0759 14.5716C62.1481 14.3966 62.2527 14.2369 62.3843 14.1008C62.516 13.969 62.671 13.8626 62.8413 13.7869C63.0141 13.7079 63.202 13.6675 63.392 13.6685C63.5865 13.6665 63.7791 13.7069 63.9564 13.7869C64.1321 13.8627 64.2918 13.9711 64.4272 14.1063C64.5588 14.2424 64.6634 14.4021 64.7356 14.5771C64.8086 14.7581 64.8441 14.9519 64.8402 15.147Z" fill="black"/>
<path d="M64.6694 18.8612C64.6141 18.8001 64.5465 18.7513 64.471 18.7181C64.3956 18.6849 64.314 18.668 64.2316 18.6684H62.5796C62.4972 18.668 62.4156 18.6849 62.3402 18.7181C62.2648 18.7513 62.1972 18.8001 62.1419 18.8612C62.0257 18.9772 61.9603 19.1347 61.9601 19.2989V26.5456H41.5141V21.8843C41.5141 20.7389 41.2709 19.9129 40.7845 19.4063C40.2917 18.8969 39.5813 18.6436 38.659 18.6436H35.7047C34.7869 18.6436 34.0756 18.8979 33.5709 19.4063C33.0661 19.9148 32.8165 20.7407 32.822 21.8843V26.2235C32.8114 26.723 32.8755 27.2213 33.012 27.702C33.1155 28.0758 33.3039 28.4207 33.5626 28.7097C33.8119 28.9753 34.1231 29.1749 34.4685 29.2907C34.8646 29.4204 35.2797 29.4827 35.6964 29.4751H38.7829C38.7065 30.0362 38.5253 30.5779 38.2487 31.072C38.0355 31.4353 37.7451 31.7474 37.398 31.9861C37.0771 32.1994 36.715 32.3429 36.3352 32.4074C35.9514 32.4732 35.5627 32.5064 35.1733 32.5065H34.7713C34.6337 32.5065 34.496 32.5065 34.3721 32.5065C34.2673 32.4908 34.1615 32.4825 34.0555 32.4817H33.7636C33.6803 32.4809 33.5978 32.4976 33.5214 32.5308C33.445 32.564 33.3765 32.613 33.3203 32.6745C33.2596 32.7329 33.2115 32.803 33.1788 32.8807C33.1461 32.9583 33.1297 33.0418 33.1303 33.126V34.7945C33.13 34.8775 33.1484 34.9594 33.1841 35.0343C33.2199 35.1091 33.2721 35.1749 33.3368 35.2268C33.4711 35.3409 33.6376 35.4102 33.8132 35.425C34.0389 35.4498 34.2482 35.4663 34.4382 35.4746C34.6281 35.4828 34.8126 35.4746 34.9888 35.4746C35.8307 35.4842 36.6682 35.353 37.4668 35.0863C38.1924 34.8398 38.8603 34.4482 39.4299 33.9355C40.0091 33.4074 40.4771 32.769 40.8066 32.0577C41.1788 31.2417 41.415 30.3702 41.5059 29.4779H61.9491C62.8797 29.4779 63.5947 29.2246 64.094 28.718C64.5932 28.2114 64.8428 27.3854 64.8428 26.24V19.2989C64.8446 19.1359 64.7823 18.9787 64.6694 18.8612ZM38.6342 26.5456H35.7047V21.5621H38.6342V26.5456Z" fill="black"/>
<path d="M36.382 37.8286H35.9745C35.9605 37.8273 35.9464 37.8291 35.9333 37.8339C35.9201 37.8387 35.9082 37.8464 35.8984 37.8565C35.8887 37.8665 35.8813 37.8786 35.8768 37.8919C35.8723 37.9052 35.8709 37.9193 35.8726 37.9332V38.5527C35.8708 38.5665 35.8722 38.5806 35.8767 38.5938C35.8811 38.6069 35.8886 38.6189 35.8984 38.6288C35.9083 38.6386 35.9203 38.6461 35.9334 38.6505C35.9466 38.655 35.9607 38.6564 35.9745 38.6546H36.382C36.3957 38.6565 36.4096 38.6552 36.4227 38.6507C36.4358 38.6462 36.4477 38.6387 36.4573 38.6288C36.467 38.6189 36.4742 38.6068 36.4783 38.5936C36.4824 38.5804 36.4834 38.5664 36.4811 38.5527V37.9305C36.4811 37.8644 36.448 37.8286 36.382 37.8286Z" fill="#010101"/>
<path d="M63.2321 37.5616C62.9901 37.5533 62.7493 37.5983 62.5266 37.6935C62.3039 37.7887 62.1049 37.9316 61.9436 38.1122C61.6169 38.4793 61.4526 39.03 61.4508 39.7642C61.4458 40.0664 61.4791 40.368 61.5499 40.6618C61.6076 40.8982 61.7004 41.1247 61.8252 41.3336H60.3467C60.0941 41.3462 59.8439 41.2798 59.6308 41.1436C59.5396 41.0772 59.4666 40.989 59.4185 40.887C59.3704 40.785 59.3487 40.6725 59.3555 40.5599V34.99C59.3579 34.9761 59.3569 34.9618 59.3527 34.9483C59.3484 34.9348 59.341 34.9226 59.331 34.9126C59.321 34.9026 59.3088 34.8952 59.2953 34.8909C59.2818 34.8867 59.2675 34.8857 59.2536 34.8881H58.8984C58.8847 34.8862 58.8708 34.8875 58.8577 34.892C58.8446 34.8965 58.8327 34.904 58.8231 34.9139C58.8134 34.9238 58.8062 34.9359 58.8021 34.9491C58.798 34.9623 58.797 34.9763 58.7993 34.99V40.4608C58.7993 40.6067 58.7993 40.7361 58.7828 40.8435C58.7775 40.9385 58.7552 41.0318 58.7167 41.1188C58.6843 41.1904 58.6264 41.2473 58.5543 41.2785C58.4583 41.3178 58.355 41.3356 58.2514 41.3308H57.4777C57.2234 41.3437 56.9714 41.2773 56.7564 41.1409C56.6648 41.0749 56.5915 40.9867 56.5433 40.8846C56.4952 40.7825 56.4737 40.6698 56.4811 40.5572V37.8534C56.4828 37.8395 56.4813 37.8254 56.4769 37.8121C56.4724 37.7988 56.465 37.7867 56.4552 37.7767C56.4454 37.7666 56.4335 37.7589 56.4204 37.7541C56.4072 37.7493 56.3931 37.7474 56.3792 37.7488H56.0212C55.9552 37.7488 55.9221 37.7846 55.9221 37.8534V40.4333C55.9235 40.5831 55.9162 40.733 55.9001 40.882C55.8946 40.9811 55.8612 41.0765 55.8037 41.1574C55.7441 41.2323 55.6587 41.2824 55.5642 41.2978C55.4163 41.3256 55.2659 41.3376 55.1154 41.3336C54.8517 41.3466 54.5899 41.2835 54.361 41.1519C54.2718 41.096 54.1993 41.0172 54.1509 40.9237C54.1024 40.8303 54.0799 40.7256 54.0857 40.6205V38.8143C54.088 38.8007 54.087 38.7867 54.0829 38.7734C54.0788 38.7602 54.0716 38.7482 54.0619 38.7383C54.0523 38.7283 54.0404 38.7208 54.0273 38.7163C54.0142 38.7119 54.0003 38.7105 53.9866 38.7124H53.6286C53.6148 38.7106 53.6008 38.712 53.5876 38.7165C53.5744 38.721 53.5625 38.7284 53.5526 38.7383C53.5428 38.7481 53.5353 38.7601 53.5308 38.7733C53.5263 38.7865 53.525 38.8005 53.5268 38.8143V40.436C53.5289 40.5913 53.5224 40.7467 53.5075 40.9013C53.5007 41.0019 53.4632 41.098 53.4001 41.1766C53.3324 41.2468 53.2433 41.2923 53.1468 41.306C52.9964 41.3285 52.8445 41.3386 52.6925 41.3363C52.4331 41.3495 52.176 41.2811 51.9574 41.1409C51.8671 41.0768 51.7945 40.991 51.7463 40.8913C51.6982 40.7917 51.6761 40.6814 51.6821 40.5709V38.8171C51.6843 38.8034 51.6834 38.7894 51.6793 38.7762C51.6751 38.763 51.668 38.7509 51.6583 38.741C51.6487 38.7311 51.6368 38.7236 51.6237 38.7191C51.6106 38.7146 51.5966 38.7133 51.5829 38.7152H51.2112C51.1975 38.7133 51.1836 38.7146 51.1705 38.7191C51.1574 38.7236 51.1455 38.7311 51.1359 38.741C51.1262 38.7509 51.119 38.763 51.1149 38.7762C51.1108 38.7894 51.1098 38.8034 51.1121 38.8171V40.4388C51.1121 40.5902 51.1121 40.7141 51.1121 40.8352C51.1107 40.9302 51.0901 41.0238 51.0515 41.1106C51.0207 41.1826 50.965 41.2412 50.8946 41.2758C50.8016 41.3188 50.6996 41.3387 50.5972 41.3336H49.4959C49.2434 41.3462 48.9932 41.2798 48.7801 41.1436C48.6889 41.0772 48.6158 40.989 48.5677 40.887C48.5196 40.785 48.4979 40.6725 48.5047 40.5599C48.5047 40.4828 48.5047 40.3975 48.5047 40.3011C48.5047 40.2047 48.5047 40.1029 48.5047 39.9927C48.5043 39.7079 48.4757 39.4239 48.4194 39.1447C48.3635 38.8611 48.246 38.5932 48.0752 38.36C47.8849 38.1122 47.6361 37.9154 47.3511 37.7873C46.9634 37.6262 46.5454 37.5511 46.1259 37.5671C45.6854 37.5663 45.2476 37.636 44.8291 37.7736C44.4323 37.9016 44.0487 38.0676 43.6837 38.2692V34.9955C43.686 34.9818 43.6851 34.9678 43.6809 34.9546C43.6768 34.9414 43.6696 34.9293 43.66 34.9194C43.6503 34.9095 43.6385 34.902 43.6254 34.8975C43.6123 34.893 43.5983 34.8917 43.5846 34.8936H43.2267C43.213 34.8917 43.199 34.893 43.1859 34.8975C43.1728 34.902 43.1609 34.9095 43.1513 34.9194C43.1416 34.9293 43.1344 34.9414 43.1303 34.9546C43.1262 34.9678 43.1253 34.9818 43.1275 34.9955V40.447C43.1295 40.5933 43.1212 40.7396 43.1028 40.8848C43.0924 40.982 43.0614 41.0758 43.0119 41.1601C42.9701 41.2272 42.9056 41.277 42.8302 41.3005C42.7361 41.3267 42.6387 41.3388 42.5411 41.3363H41.85C41.5974 41.3493 41.3471 41.2829 41.1342 41.1464C41.043 41.08 40.9699 40.9917 40.9218 40.8897C40.8737 40.7877 40.852 40.6752 40.8588 40.5627V37.8589C40.8611 37.8449 40.8601 37.8306 40.8558 37.817C40.8515 37.8035 40.8442 37.7911 40.8342 37.7809C40.8243 37.7708 40.8122 37.7631 40.7988 37.7584C40.7853 37.7538 40.771 37.7524 40.757 37.7543H40.4183C40.4044 37.753 40.3903 37.7548 40.3771 37.7596C40.364 37.7644 40.352 37.7721 40.3423 37.7822C40.3325 37.7922 40.3251 37.8043 40.3206 37.8176C40.3161 37.8309 40.3147 37.845 40.3164 37.8589V40.469C40.3164 40.615 40.3164 40.7444 40.3027 40.8518C40.296 40.9466 40.2737 41.0396 40.2366 41.1271C40.2041 41.1986 40.1462 41.2555 40.0741 41.2868C39.9773 41.3262 39.873 41.3441 39.7685 41.3391H38.9591C38.7218 41.3535 38.4867 41.2865 38.2928 41.1491C38.2111 41.0766 38.1472 40.9862 38.1061 40.8849C38.0651 40.7837 38.0479 40.6744 38.056 40.5654V38.7565C38.0577 38.7426 38.0563 38.7285 38.0518 38.7152C38.0473 38.7019 38.0399 38.6898 38.0301 38.6797C38.0204 38.6697 38.0084 38.662 37.9953 38.6572C37.9821 38.6523 37.9681 38.6505 37.9541 38.6519H37.5989C37.5849 38.65 37.5705 38.6514 37.5571 38.656C37.5437 38.6606 37.5315 38.6683 37.5216 38.6785C37.5117 38.6887 37.5043 38.701 37.5001 38.7146C37.4958 38.7281 37.4948 38.7425 37.4971 38.7565V41.7301C37.5039 41.9762 37.4589 42.2211 37.3649 42.4487C37.2848 42.6327 37.1643 42.7964 37.0125 42.9277C36.8577 43.0574 36.6763 43.1514 36.4811 43.2031C36.0726 43.3058 35.6451 43.3058 35.2366 43.2031C35.0313 43.1559 34.8369 43.0699 34.6639 42.9498C34.4809 42.8223 34.3316 42.6522 34.2289 42.4542C34.1061 42.2065 34.0474 41.932 34.0582 41.6557C34.0575 41.342 34.1193 41.0313 34.2399 40.7416C34.3465 40.4787 34.4754 40.2254 34.6254 39.9845C34.6337 39.9741 34.6397 39.962 34.6427 39.9491C34.6457 39.9361 34.6458 39.9227 34.6429 39.9097C34.64 39.8967 34.6342 39.8845 34.6259 39.8741C34.6176 39.8637 34.6071 39.8553 34.5951 39.8496L34.2812 39.6431C34.2124 39.6018 34.1656 39.6018 34.138 39.6431C33.9521 39.92 33.7987 40.2175 33.681 40.5296C33.5364 40.9083 33.4645 41.3109 33.469 41.7163C33.4649 42.0195 33.5162 42.3209 33.6204 42.6056C33.7159 42.8633 33.8662 43.0973 34.0609 43.2912C34.2668 43.4877 34.5129 43.6371 34.7823 43.729C35.0974 43.838 35.4291 43.8911 35.7625 43.8859C36.1109 43.8916 36.4577 43.8356 36.7867 43.7207C37.0561 43.6243 37.3006 43.4691 37.5026 43.2664C37.6902 43.0704 37.8322 42.8354 37.9183 42.5781C38.0123 42.2977 38.0588 42.0037 38.056 41.708V41.5731C38.1667 41.695 38.3085 41.7844 38.4662 41.8319C38.6115 41.8732 38.7613 41.8964 38.9122 41.9008H39.8318C40.0385 41.9148 40.2443 41.8617 40.4183 41.7493C40.5576 41.646 40.6692 41.5098 40.7432 41.3529C40.7785 41.4566 40.8371 41.551 40.9144 41.6288C40.9917 41.7065 41.0857 41.7657 41.1892 41.8016C41.3955 41.864 41.6097 41.8964 41.8252 41.898H42.5907C42.6957 41.8994 42.8007 41.892 42.9045 41.876C42.9823 41.8647 43.0577 41.8405 43.1275 41.8044C43.1712 41.8407 43.2233 41.8653 43.279 41.876C43.3358 41.8896 43.394 41.897 43.4524 41.898H46.4811C46.7234 41.898 46.9436 41.898 47.1391 41.8815C47.3139 41.8741 47.4874 41.8483 47.6567 41.8044C47.7974 41.7673 47.9294 41.7028 48.0449 41.6144C48.1618 41.5212 48.256 41.4025 48.3203 41.2675C48.3416 41.3849 48.3935 41.4947 48.4709 41.5856C48.5483 41.6765 48.6483 41.7453 48.7608 41.7851C48.9648 41.8561 49.1782 41.896 49.3941 41.9035H50.5642C50.7879 41.9179 51.0111 41.8693 51.2085 41.7631C51.3538 41.6688 51.4694 41.5351 51.5416 41.3776C51.6263 41.5539 51.7707 41.6943 51.9491 41.7741C52.1209 41.8573 52.3089 41.9015 52.4998 41.9035H52.9678C53.1861 41.9158 53.4034 41.8672 53.5956 41.7631C53.7456 41.6703 53.866 41.5366 53.9425 41.3776C54.0265 41.5534 54.1698 41.6938 54.3472 41.7741C54.5191 41.857 54.7071 41.9012 54.8979 41.9035H55.3632C55.5869 41.9176 55.81 41.869 56.0075 41.7631C56.159 41.6647 56.2771 41.5226 56.3461 41.3556C56.3884 41.457 56.4511 41.5486 56.5301 41.6249C56.6092 41.7011 56.7031 41.7603 56.8059 41.7989C57.0078 41.8646 57.2186 41.899 57.4309 41.9008H58.3037C58.5104 41.9148 58.7161 41.8617 58.8902 41.7493C59.0303 41.6468 59.142 41.5103 59.2151 41.3529C59.2505 41.457 59.3094 41.5517 59.3872 41.6295C59.465 41.7073 59.5597 41.7662 59.6639 41.8016C59.8673 41.8642 60.0788 41.8967 60.2916 41.898H63.2239C63.4681 41.9152 63.7132 41.8794 63.9423 41.7929C64.1714 41.7064 64.3791 41.5713 64.551 41.3969C64.8502 41.0647 64.9998 40.514 64.9998 39.7449C65.0089 38.2894 64.4197 37.5616 63.2321 37.5616ZM47.8467 40.7086C47.8189 40.8599 47.7504 41.0008 47.6485 41.1161C47.5506 41.2125 47.424 41.2744 47.2878 41.2923C47.1055 41.3189 46.9213 41.3309 46.7371 41.3281H43.5763C43.6159 41.23 43.6427 41.1273 43.6562 41.0225C43.6748 40.9086 43.6849 40.7936 43.6865 40.6783V38.8721C43.8434 38.7895 44.0196 38.7042 44.2151 38.6133C44.6283 38.4279 45.0616 38.2911 45.5064 38.2058C45.7314 38.1623 45.96 38.1402 46.1892 38.1398C46.4702 38.1311 46.7503 38.175 47.0152 38.2692C47.2202 38.3434 47.4023 38.4696 47.5438 38.6353C47.6801 38.8025 47.7745 38.9998 47.8192 39.2108C47.8768 39.4618 47.9046 39.7187 47.9018 39.9762C47.9097 40.2216 47.8912 40.4671 47.8467 40.7086ZM64.1683 40.9674C64.0523 41.0947 63.9084 41.1935 63.748 41.2561C63.5875 41.3187 63.4147 41.3433 63.2432 41.3281C63.0698 41.3436 62.8953 41.3163 62.7349 41.2487C62.5746 41.181 62.4333 41.0749 62.3236 40.9399C62.1073 40.5667 62.0112 40.1361 62.0482 39.7064C62.0289 39.3042 62.1347 38.906 62.3511 38.5665C62.4533 38.4256 62.5894 38.3126 62.7467 38.238C62.904 38.1635 63.0776 38.1297 63.2514 38.1398C63.431 38.1252 63.6113 38.1586 63.7738 38.2365C63.9364 38.3143 64.0753 38.4339 64.1765 38.583C64.3816 38.9505 64.4771 39.369 64.4519 39.789C64.4847 40.1993 64.3853 40.6094 64.1683 40.9591V40.9674Z" fill="black"/>
<path d="M41.3518 42.7737H40.8259C40.812 42.7713 40.7977 42.7722 40.7843 42.7765C40.7708 42.7808 40.7586 42.7882 40.7486 42.7982C40.7386 42.8082 40.7312 42.8204 40.7269 42.8339C40.7226 42.8474 40.7217 42.8616 40.7241 42.8756V43.4951C40.7218 43.5091 40.7228 43.5234 40.7271 43.537C40.7314 43.5505 40.7387 43.5628 40.7487 43.573C40.7586 43.5832 40.7707 43.5909 40.7841 43.5955C40.7976 43.6002 40.8119 43.6016 40.8259 43.5997H41.3518C41.3659 43.6016 41.3802 43.6002 41.3936 43.5955C41.4071 43.5909 41.4192 43.5832 41.4291 43.573C41.439 43.5628 41.4464 43.5505 41.4507 43.537C41.4549 43.5234 41.456 43.5091 41.4537 43.4951V42.8866C41.4583 42.8719 41.4591 42.8563 41.4558 42.8413C41.4525 42.8263 41.4454 42.8123 41.4351 42.8009C41.4248 42.7895 41.4117 42.781 41.3971 42.7762C41.3825 42.7714 41.3669 42.7706 41.3518 42.7737ZM40.055 42.7737H39.5264C39.5125 42.7713 39.4982 42.7722 39.4847 42.7765C39.4713 42.7808 39.459 42.7882 39.449 42.7982C39.439 42.8082 39.4316 42.8204 39.4273 42.8339C39.4231 42.8474 39.4221 42.8616 39.4245 42.8756V43.4951C39.4222 43.5091 39.4233 43.5234 39.4275 43.537C39.4318 43.5505 39.4392 43.5628 39.4491 43.573C39.459 43.5832 39.4712 43.5909 39.4846 43.5955C39.498 43.6002 39.5123 43.6016 39.5264 43.5997H40.055C40.1211 43.5997 40.1541 43.5639 40.1541 43.4951V42.8866C40.1586 42.8722 40.1593 42.8569 40.1561 42.8421C40.153 42.8274 40.1461 42.8137 40.1362 42.8024C40.1262 42.7911 40.1136 42.7825 40.0993 42.7774C40.0851 42.7724 40.0699 42.7711 40.055 42.7737Z" fill="#010101"/>
<path d="M63.4305 35.9096H63.0257C63.0119 35.9078 62.9979 35.9092 62.9847 35.9136C62.9715 35.9181 62.9595 35.9256 62.9497 35.9354C62.9398 35.9453 62.9324 35.9572 62.9279 35.9704C62.9234 35.9836 62.922 35.9976 62.9238 36.0115V36.6309C62.9216 36.645 62.9226 36.6593 62.9269 36.6729C62.9311 36.6864 62.9385 36.6987 62.9484 36.7089C62.9583 36.7191 62.9705 36.7268 62.9839 36.7314C62.9973 36.7361 63.0117 36.7375 63.0257 36.7356H63.4305C63.4445 36.7375 63.4588 36.7361 63.4723 36.7314C63.4857 36.7268 63.4978 36.7191 63.5077 36.7089C63.5177 36.6987 63.525 36.6864 63.5293 36.6729C63.5336 36.6593 63.5346 36.645 63.5323 36.6309V36.0032C63.5328 35.99 63.5305 35.9769 63.5254 35.9648C63.5203 35.9527 63.5127 35.9418 63.503 35.9329C63.4933 35.924 63.4818 35.9173 63.4693 35.9132C63.4568 35.9092 63.4435 35.908 63.4305 35.9096Z" fill="#010101"/>
</svg>
