<svg width="44" height="44" viewBox="0 0 44 44" fill="none" xmlns="http://www.w3.org/2000/svg">
<ellipse cx="22" cy="22" rx="22" ry="22" fill="white"/>
<path d="M17.4559 30.9998C16.721 31.0075 15.9927 30.8607 15.3181 30.5691C14.6435 30.2775 14.0377 29.8474 13.5399 29.3068C12.5221 28.1605 11.9724 26.6735 11.9999 25.1408V18.8588C11.9724 17.3261 12.5221 15.8391 13.5399 14.6928C14.0377 14.1522 14.6435 13.7221 15.3181 13.4305C15.9927 13.1389 16.721 12.9921 17.4559 12.9998H26.5249C27.2731 13.0108 28.0114 13.1728 28.6955 13.4762C29.3795 13.7795 29.9953 14.218 30.5057 14.7651C31.0162 15.3123 31.4109 15.9569 31.6661 16.6604C31.9213 17.3638 32.0317 18.1116 31.9909 18.8588V25.0958C32.0342 25.8481 31.9259 26.6015 31.6723 27.3112C31.4188 28.0208 31.0251 28.6723 30.5149 29.2268C30.0028 29.7776 29.3842 30.2187 28.6967 30.5235C28.0091 30.8282 27.2669 30.9903 26.5149 30.9998H17.4559ZM13.5169 18.8588V25.1408C13.4732 25.6877 13.5421 26.2377 13.7194 26.7569C13.8968 27.2761 14.1787 27.7534 14.5477 28.1593C14.9168 28.5652 15.3652 28.8911 15.8653 29.1169C16.3653 29.3426 16.9063 29.4634 17.4549 29.4718H26.5069C27.0511 29.4641 27.588 29.3461 28.0853 29.1249C28.5826 28.9037 29.0298 28.5839 29.3999 28.1848C29.7754 27.7765 30.0641 27.2962 30.2482 26.7729C30.4323 26.2496 30.508 25.6943 30.4709 25.1408V18.8138C30.5025 18.2674 30.4238 17.7203 30.2397 17.2049C30.0555 16.6895 29.7696 16.2164 29.3989 15.8138C29.0287 15.4146 28.5813 15.0947 28.0838 14.8735C27.5864 14.6523 27.0492 14.5343 26.5049 14.5268H17.4559C16.9071 14.535 16.3659 14.6558 15.8657 14.8815C15.3655 15.1073 14.9169 15.4332 14.5477 15.8393C14.1785 16.2453 13.8965 16.7228 13.7192 17.2422C13.5419 17.7615 13.473 18.3118 13.5169 18.8588ZM20.3819 23.1378L20.2209 23.0198L16.0859 19.7198C15.9283 19.5928 15.8272 19.4089 15.8044 19.2078C15.7815 19.0068 15.8388 18.8049 15.9639 18.6458C16.0763 18.5025 16.2366 18.4047 16.4154 18.3704C16.5942 18.336 16.7794 18.3674 16.9369 18.4588L17.0309 18.5218L21.1599 21.8218C21.3822 21.9971 21.6532 22.0997 21.936 22.1154C22.2187 22.1312 22.4994 22.0594 22.7399 21.9098L22.8579 21.8278L26.9579 18.5278C27.0354 18.4651 27.1247 18.4183 27.2204 18.3903C27.3162 18.3623 27.4166 18.3536 27.5157 18.3647C27.6149 18.3757 27.7108 18.4064 27.7981 18.4548C27.8853 18.5032 27.962 18.5685 28.0239 18.6468C28.1383 18.7902 28.1977 18.9699 28.1912 19.1533C28.1848 19.3367 28.113 19.5117 27.9889 19.6468L27.9059 19.7228L23.7999 23.0228C23.3165 23.4024 22.7248 23.6182 22.1105 23.6387C21.4963 23.6592 20.8914 23.4834 20.3839 23.1368L20.3819 23.1378Z" fill="#F3EB39"/>
</svg>
