<svg width="618" height="440" viewBox="0 0 618 440" fill="none" xmlns="http://www.w3.org/2000/svg">
<g opacity="0.1">
<path d="M618 87.6751H385.722V348.821H618V87.6751Z" fill="url(#paint0_linear_14_2581)"/>
<path d="M153.443 87.675L269.583 0L385.722 87.675V348.82H153.443V87.675Z" fill="url(#paint1_linear_14_2581)"/>
<path d="M618 199.801H153.443" stroke="#00395E" stroke-width="2.2" stroke-miterlimit="10"/>
<path d="M618 87.675H385.722L269.583 0H501.861L618 87.675Z" fill="#00395E"/>
<path d="M327.167 106.577C333.14 106.577 338.053 112.783 338.053 120.421V161.953H316.28V120.421C316.28 112.783 321.149 106.577 327.167 106.577Z" fill="#00395E"/>
<path d="M269.657 106.577C275.631 106.577 280.544 112.783 280.544 120.421V161.953H258.771V120.421C258.771 112.783 263.654 106.577 269.657 106.577Z" fill="#00395E"/>
<path d="M212.058 106.577C218.032 106.577 222.945 112.783 222.945 120.421V161.953H201.112V120.421C201.112 112.783 205.995 106.577 212.058 106.577Z" fill="#00395E"/>
<path d="M327.167 234.024C333.14 234.024 338.053 240.23 338.053 247.868V289.416H316.28V247.868C316.28 240.185 321.149 234.024 327.167 234.024Z" fill="#00395E"/>
<path d="M269.657 234.024C275.631 234.024 280.544 240.23 280.544 247.868V289.416H258.771V247.868C258.771 240.185 263.654 234.024 269.657 234.024Z" fill="#00395E"/>
<path d="M212.058 234.024C218.032 234.024 222.945 240.23 222.945 247.868V289.416H201.112V247.868C201.112 240.185 205.995 234.024 212.058 234.024Z" fill="#00395E"/>
<path d="M520.513 0H352.196L454.506 87.675H473.83L520.513 0Z" fill="#002B47"/>
<path d="M520.513 0L567.196 87.675V348.82H473.83V87.675L520.513 0Z" fill="url(#paint2_linear_14_2581)"/>
<path d="M454.506 348.835H473.83L473.83 87.69H454.506L454.506 348.835Z" fill="url(#paint3_linear_14_2581)"/>
<path d="M541.032 106.577C547.005 106.577 551.919 112.783 551.919 120.421V161.953H530.145V120.421C530.145 112.783 535.029 106.577 541.032 106.577Z" fill="#00395E"/>
<path d="M510.881 161.953H489.108V116.885C489.108 114.155 490.193 111.537 492.126 109.606C494.058 107.676 496.679 106.592 499.412 106.592H500.562C503.295 106.592 505.915 107.676 507.848 109.606C509.78 111.537 510.866 114.155 510.866 116.885V161.953H510.881Z" fill="#00395E"/>
<path d="M541.032 195.027C547.005 195.027 551.919 201.218 551.919 208.872V250.404H530.145V208.857C530.145 201.218 535.029 195.027 541.032 195.027Z" fill="#00395E"/>
<path d="M510.881 250.404H489.108V205.336C489.108 203.984 489.374 202.646 489.892 201.397C490.41 200.148 491.169 199.013 492.126 198.057C493.082 197.101 494.218 196.343 495.469 195.826C496.719 195.309 498.059 195.042 499.412 195.042H500.562C503.295 195.042 505.915 196.127 507.848 198.057C509.78 199.988 510.866 202.606 510.866 205.336V250.404H510.881Z" fill="#00395E"/>
<path d="M420.114 109.635C426.087 109.635 431.001 115.826 431.001 123.479V165.012H409.182V123.479C409.182 115.826 414.111 109.635 420.114 109.635Z" fill="#00395E"/>
<path d="M420.114 234.024C426.087 234.024 431.001 240.23 431.001 247.868V289.416H409.182V247.868C409.182 240.185 414.111 234.024 420.114 234.024Z" fill="#00395E"/>
<path d="M592.777 109.635C598.751 109.635 603.664 115.826 603.664 123.479V165.012H581.89V123.479C581.89 115.826 586.759 109.635 592.777 109.635Z" fill="#00395E"/>
<path d="M592.777 234.024C598.751 234.024 603.664 240.23 603.664 247.868V289.416H581.89V247.868C581.89 240.185 586.759 234.024 592.777 234.024Z" fill="#00395E"/>
<path d="M520.513 283.448C530.817 283.448 539.165 294.055 539.165 307.154V348.791H501.831V307.183C501.861 294.085 510.209 283.448 520.513 283.448Z" fill="#00395E"/>
<path d="M521.23 72.3091C528.677 72.3091 534.715 66.4983 534.715 59.3302C534.715 52.1621 528.677 46.3512 521.23 46.3512C513.782 46.3512 507.745 52.1621 507.745 59.3302C507.745 66.4983 513.782 72.3091 521.23 72.3091Z" fill="#00395E"/>
<path d="M269.583 72.3091C277.03 72.3091 283.068 66.4983 283.068 59.3302C283.068 52.1621 277.03 46.3512 269.583 46.3512C262.135 46.3512 256.098 52.1621 256.098 59.3302C256.098 66.4983 262.135 72.3091 269.583 72.3091Z" fill="#00395E"/>
<path d="M567.196 179.975H473.83" stroke="#00395E" stroke-width="2.2" stroke-miterlimit="10"/>
</g>
<path opacity="0.1" d="M444.187 429.752C444.187 424.621 480.536 420.458 525.366 420.458C570.197 420.458 606.531 424.621 606.531 429.752C606.531 434.884 570.182 439.032 525.366 439.032C480.55 439.032 444.187 434.884 444.187 429.752Z" fill="#00395E"/>
<path opacity="0.1" d="M326.002 428.156C326.002 423.024 355.869 418.862 392.875 418.862C429.881 418.862 459.763 423.024 459.763 428.156C459.763 433.288 429.821 437.45 392.875 437.45C355.929 437.45 326.002 433.228 326.002 428.156Z" fill="#00395E"/>
<path opacity="0.1" d="M336.217 418.862C373.15 418.862 403.09 414.701 403.09 409.568C403.09 404.435 373.15 400.274 336.217 400.274C299.284 400.274 269.344 404.435 269.344 409.568C269.344 414.701 299.284 418.862 336.217 418.862Z" fill="#00395E"/>
<path opacity="0.1" d="M239.267 407.703C371.411 407.703 478.534 402.019 478.534 395.008C478.534 387.996 371.411 382.312 239.267 382.312C107.124 382.312 0 387.996 0 395.008C0 402.019 107.124 407.703 239.267 407.703Z" fill="#00395E"/>
<path d="M193.391 243.512H231.562V211.139H193.391V243.512Z" fill="url(#paint4_linear_14_2581)"/>
<path d="M345.117 322.878H364.949C369.823 322.779 374.667 323.653 379.199 325.449C383.73 327.244 387.858 329.924 391.339 333.333C394.821 336.741 397.587 340.81 399.475 345.299C401.363 349.789 402.336 354.61 402.336 359.48C402.336 364.349 401.363 369.17 399.475 373.66C397.587 378.15 394.821 382.218 391.339 385.627C387.858 389.035 383.73 391.715 379.199 393.511C374.667 395.306 369.823 396.18 364.949 396.082H345.117C340.243 396.18 335.399 395.306 330.867 393.511C326.336 391.715 322.208 389.035 318.727 385.627C315.245 382.218 312.479 378.15 310.591 373.66C308.703 369.17 307.73 364.349 307.73 359.48C307.73 354.61 308.703 349.789 310.591 345.299C312.479 340.81 315.245 336.741 318.727 333.333C322.208 329.924 326.336 327.244 330.867 325.449C335.399 323.653 340.243 322.779 345.117 322.878Z" fill="url(#paint5_linear_14_2581)"/>
<path d="M110.868 359.532C110.868 349.826 114.727 340.518 121.597 333.656C128.467 326.793 137.784 322.937 147.5 322.937H167.347C176.936 323.131 186.067 327.072 192.781 333.915C199.494 340.758 203.254 349.958 203.254 359.539C203.254 369.121 199.494 378.32 192.781 385.164C186.067 392.007 176.936 395.948 167.347 396.141H147.5C142.688 396.141 137.923 395.194 133.478 393.354C129.032 391.514 124.993 388.818 121.592 385.418C118.19 382.018 115.492 377.982 113.652 373.541C111.812 369.099 110.866 364.339 110.868 359.532Z" fill="url(#paint6_linear_14_2581)"/>
<path d="M279.364 322.878H259.532V328.77C254.378 332.071 250.136 336.613 247.199 341.979C244.261 347.345 242.722 353.363 242.722 359.48C242.722 365.596 244.261 371.614 247.199 376.98C250.136 382.347 254.378 386.889 259.532 390.189V396.082H279.364C284.238 396.18 289.082 395.306 293.614 393.511C298.145 391.715 302.273 389.035 305.755 385.627C309.236 382.218 312.002 378.15 313.89 373.66C315.779 369.17 316.751 364.349 316.751 359.48C316.751 354.61 315.779 349.789 313.89 345.299C312.002 340.81 309.236 336.741 305.755 333.333C302.273 329.924 298.145 327.244 293.614 325.449C289.082 323.653 284.238 322.779 279.364 322.878Z" fill="url(#paint7_linear_14_2581)"/>
<path d="M81.7619 322.877H61.915V328.77C56.7636 332.073 52.5257 336.616 49.5906 341.982C46.6554 347.348 45.1172 353.365 45.1172 359.48C45.1172 365.594 46.6554 371.611 49.5906 376.977C52.5257 382.343 56.7636 386.886 61.915 390.189V396.082H81.7619C91.3512 395.888 100.483 391.947 107.196 385.104C113.909 378.261 117.669 369.061 117.669 359.48C117.669 349.898 113.909 340.698 107.196 333.855C100.483 327.012 91.3512 323.071 81.7619 322.877Z" fill="url(#paint8_linear_14_2581)"/>
<path d="M107.522 287.715L129.923 220.941C130.885 218.086 132.72 215.604 135.169 213.846C137.618 212.088 140.557 211.141 143.572 211.139H195.84C197.144 211.139 198.436 211.396 199.641 211.894C200.845 212.393 201.94 213.124 202.862 214.045C203.784 214.966 204.516 216.06 205.015 217.263C205.514 218.467 205.771 219.757 205.771 221.06V364.276H27.0001C23.1345 364.276 19.4272 362.742 16.6938 360.011C13.9604 357.281 12.4248 353.577 12.4248 349.716V307.944C12.4242 305.092 13.4818 302.341 15.3931 300.222C17.3045 298.103 19.934 296.767 22.7738 296.472L107.522 287.715Z" fill="url(#paint9_linear_14_2581)"/>
<path d="M107.522 287.715L129.923 220.941C130.885 218.086 132.72 215.604 135.169 213.846C137.618 212.088 140.557 211.141 143.572 211.139H195.84C197.144 211.139 198.436 211.396 199.641 211.894C200.845 212.393 201.94 213.124 202.862 214.045C203.784 214.966 204.516 216.06 205.015 217.263C205.514 218.467 205.771 219.757 205.771 221.06V364.276H24.8944C23.2576 364.278 21.6364 363.958 20.1236 363.333C18.6108 362.709 17.2361 361.793 16.078 360.637C14.9199 359.482 14.0011 358.109 13.3743 356.599C12.7474 355.088 12.4248 353.469 12.4248 351.834V308.034C12.4242 305.182 13.4818 302.43 15.3931 300.312C17.3045 298.193 19.934 296.857 22.7738 296.562L107.522 287.715Z" fill="#F3EB39"/>
<path d="M17.8607 355.37H10.3938C9.15414 355.37 7.96523 354.878 7.08864 354.002C6.21205 353.126 5.71958 351.939 5.71958 350.7L5.71958 339.049C5.71958 337.811 6.21205 336.623 7.08864 335.747C7.96523 334.872 9.15414 334.38 10.3938 334.38H17.8607C19.2786 334.38 20.6384 334.942 21.641 335.944C22.6436 336.945 23.2069 338.304 23.2069 339.72L23.2069 350.044C23.203 351.458 22.6379 352.812 21.6358 353.811C20.6336 354.809 19.276 355.37 17.8607 355.37Z" fill="url(#paint10_linear_14_2581)"/>
<path d="M471.038 287.715H316.504L288.13 364.291H381.824C409.404 364.291 436.72 358.92 462.242 348.477C464.846 347.41 467.074 345.594 468.643 343.259C470.212 340.924 471.05 338.176 471.053 335.364L471.038 287.715Z" fill="url(#paint11_linear_14_2581)"/>
<path d="M344.968 287.715H205.861V364.291H297.538L336.187 348.477C338.793 347.413 341.023 345.598 342.593 343.262C344.162 340.927 344.999 338.177 344.998 335.364L344.968 287.715Z" fill="#F3EB39"/>
<path d="M22.7739 296.562L107.522 287.715L129.923 220.941C130.885 218.086 132.72 215.604 135.169 213.846C137.618 212.088 140.557 211.141 143.572 211.139H195.84C197.144 211.139 198.436 211.396 199.641 211.894C200.845 212.393 201.94 213.124 202.862 214.045C203.785 214.966 204.516 216.06 205.015 217.263C205.514 218.467 205.771 219.757 205.771 221.06V287.715H344.968V326.01C329.004 332.455 330.975 331.068 310.874 329.74C297.314 328.86 282.679 317.626 263.086 316.313C252.274 315.597 239.193 320.789 228.739 328.934C218.285 337.08 144.304 330.262 123.292 332.008C102.281 333.753 98.398 330.262 84.1662 322.699C69.9344 315.135 52.8055 319.193 46.9664 321.207C41.1274 323.221 32.7197 330.799 24.2822 329.65C21.7896 329.274 19.4219 328.313 17.3736 326.845C15.3253 325.377 13.6549 323.445 12.4995 321.207V308.034C12.497 305.193 13.5441 302.452 15.4401 300.334C17.3361 298.217 19.9476 296.874 22.7739 296.562Z" fill="#F3EB39"/>
<path d="M91.0953 338.229H344.669C344.205 340.501 343.188 342.624 341.709 344.411C340.23 346.198 338.333 347.595 336.187 348.477L319.342 355.37H91.0953V338.229Z" fill="url(#paint12_linear_14_2581)"/>
<path d="M267.859 395.128C287.569 390.532 299.817 370.844 295.216 351.154C290.615 331.465 270.907 319.23 251.197 323.826C231.488 328.422 219.24 348.11 223.841 367.799C228.442 387.489 248.15 399.724 267.859 395.128Z" fill="black"/>
<path d="M259.532 377.493C269.495 377.493 277.572 369.425 277.572 359.472C277.572 349.519 269.495 341.451 259.532 341.451C249.569 341.451 241.492 349.519 241.492 359.472C241.492 369.425 249.569 377.493 259.532 377.493Z" fill="url(#paint13_linear_14_2581)"/>
<path d="M259.532 372.138C266.534 372.138 272.211 366.467 272.211 359.472C272.211 352.477 266.534 346.807 259.532 346.807C252.53 346.807 246.854 352.477 246.854 359.472C246.854 366.467 252.53 372.138 259.532 372.138Z" fill="url(#paint14_linear_14_2581)"/>
<path d="M264.49 347.821C262.199 348.792 260.245 350.416 258.872 352.489C257.498 354.562 256.766 356.993 256.766 359.48C256.766 361.966 257.498 364.397 258.872 366.47C260.245 368.543 262.199 370.167 264.49 371.138C266.776 370.162 268.724 368.536 270.093 366.464C271.462 364.391 272.191 361.963 272.191 359.48C272.191 356.996 271.462 354.568 270.093 352.495C268.724 350.423 266.776 348.798 264.49 347.821Z" fill="url(#paint15_linear_14_2581)"/>
<path d="M205.861 301.723H344.998V292.907H205.861V301.723Z" fill="url(#paint16_linear_14_2581)"/>
<path d="M118.723 287.715L140.033 224.327C140.282 223.574 140.762 222.919 141.406 222.456C142.05 221.992 142.824 221.744 143.617 221.746H195.243V287.715H168.362C162.247 287.714 156.344 289.954 151.771 294.011L150.278 295.353H116.318L118.723 287.715Z" fill="black" fill-opacity="0.5"/>
<path d="M205.861 292.922H171.244C167.616 292.92 164.03 293.708 160.737 295.231C157.444 296.754 154.522 298.974 152.174 301.738H205.861V292.922Z" fill="url(#paint17_linear_14_2581)"/>
<path d="M205.846 364.291H212.656V287.715H205.846V364.291Z" fill="url(#paint18_linear_14_2581)"/>
<path d="M195.243 248.047C169.729 251.95 145.246 260.88 123.218 274.318L140.033 224.327C140.282 223.574 140.762 222.919 141.406 222.456C142.05 221.992 142.824 221.744 143.617 221.746H195.243V248.047Z" fill="url(#paint19_linear_14_2581)"/>
<path d="M108.314 353.177V295.383L135.896 222.015C136.492 220.437 137.554 219.077 138.941 218.115C140.327 217.154 141.974 216.635 143.662 216.629H195.631C196.763 216.633 197.847 217.084 198.647 217.883C199.447 218.682 199.898 219.765 199.902 220.896V287.417C200.544 288.217 200.928 289.192 201.006 290.214C201.083 291.236 200.849 292.258 200.335 293.145L200.081 293.518C199.423 294.147 198.95 294.944 198.713 295.822C198.476 296.701 198.485 297.627 198.737 298.501L199.603 301.485V349.223C199.603 351.993 198.502 354.649 196.542 356.607C194.581 358.566 191.922 359.666 189.15 359.666H114.84C113.115 359.662 111.462 358.978 110.24 357.763C109.018 356.548 108.326 354.899 108.314 353.177ZM197.124 298.948C196.793 297.805 196.776 296.593 197.075 295.44C197.375 294.288 197.98 293.237 198.827 292.399V292.31C199.194 291.68 199.35 290.949 199.272 290.225C199.194 289.5 198.887 288.819 198.394 288.282L198.17 288.043V220.911C198.17 220.57 198.103 220.232 197.972 219.917C197.841 219.602 197.65 219.316 197.409 219.075C197.167 218.834 196.881 218.643 196.566 218.512C196.25 218.382 195.913 218.315 195.571 218.315H143.587C142.242 218.318 140.929 218.729 139.822 219.493C138.716 220.258 137.867 221.34 137.39 222.596L109.971 295.502V353.177C109.971 354.466 110.484 355.703 111.397 356.616C112.31 357.528 113.549 358.04 114.84 358.04H189.195C191.521 358.04 193.752 357.118 195.398 355.476C197.045 353.834 197.972 351.607 197.976 349.283V301.858L197.124 298.948Z" fill="url(#paint20_linear_14_2581)"/>
<path d="M176.083 301.738H189.523C190.029 301.738 190.53 301.838 190.998 302.031C191.465 302.225 191.89 302.508 192.248 302.866C192.605 303.223 192.889 303.647 193.083 304.114C193.276 304.581 193.376 305.082 193.376 305.587C193.376 306.608 192.97 307.587 192.248 308.309C191.525 309.031 190.545 309.436 189.523 309.436H176.083C175.576 309.438 175.074 309.34 174.606 309.147C174.138 308.954 173.712 308.671 173.354 308.313C172.996 307.955 172.712 307.53 172.519 307.062C172.326 306.595 172.228 306.093 172.23 305.587C172.228 305.081 172.326 304.58 172.519 304.112C172.712 303.644 172.996 303.219 173.354 302.861C173.712 302.503 174.138 302.22 174.606 302.027C175.074 301.835 175.576 301.736 176.083 301.738Z" fill="url(#paint21_linear_14_2581)"/>
<path d="M171.991 301.738H185.431C185.939 301.736 186.441 301.834 186.91 302.027C187.38 302.22 187.806 302.503 188.165 302.86C188.525 303.218 188.81 303.643 189.005 304.111C189.199 304.579 189.299 305.081 189.299 305.587C189.299 306.094 189.199 306.596 189.005 307.064C188.81 307.532 188.525 307.957 188.165 308.314C187.806 308.672 187.38 308.955 186.91 309.147C186.441 309.34 185.939 309.438 185.431 309.436H171.991C171.484 309.438 170.981 309.34 170.512 309.147C170.043 308.955 169.616 308.672 169.257 308.314C168.898 307.957 168.613 307.532 168.418 307.064C168.223 306.596 168.123 306.094 168.123 305.587C168.123 305.081 168.223 304.579 168.418 304.111C168.613 303.643 168.898 303.218 169.257 302.86C169.616 302.503 170.043 302.22 170.512 302.027C170.981 301.834 171.484 301.736 171.991 301.738Z" fill="url(#paint22_linear_14_2581)"/>
<path d="M333.2 299.694C333.462 299.699 333.721 299.639 333.954 299.519C334.186 299.399 334.386 299.223 334.534 299.007C334.682 298.791 334.774 298.542 334.802 298.282C334.829 298.022 334.792 297.759 334.693 297.516L333.334 292.922H328.989L330.333 297.516C330.532 298.127 330.914 298.663 331.426 299.052C331.938 299.442 332.557 299.666 333.2 299.694Z" fill="black"/>
<path d="M298.778 299.694C299.04 299.699 299.299 299.639 299.531 299.519C299.764 299.399 299.963 299.223 300.111 299.007C300.259 298.791 300.352 298.542 300.379 298.282C300.407 298.022 300.37 297.759 300.271 297.516L298.912 292.922H294.567L295.911 297.516C296.11 298.127 296.492 298.663 297.004 299.052C297.516 299.442 298.135 299.666 298.778 299.694Z" fill="black"/>
<path d="M264.326 299.694C264.588 299.699 264.847 299.639 265.079 299.519C265.312 299.399 265.511 299.223 265.659 299.007C265.807 298.791 265.9 298.542 265.927 298.282C265.955 298.022 265.918 297.759 265.819 297.516L264.46 292.922H260.115L261.459 297.516C261.658 298.127 262.04 298.663 262.552 299.052C263.064 299.442 263.683 299.666 264.326 299.694Z" fill="black"/>
<path d="M229.979 299.694C230.24 299.699 230.499 299.639 230.732 299.519C230.965 299.399 231.164 299.223 231.312 299.007C231.46 298.791 231.552 298.542 231.58 298.282C231.608 298.022 231.571 297.759 231.472 297.516L230.113 292.922H225.767L227.111 297.516C227.311 298.127 227.692 298.663 228.205 299.052C228.717 299.442 229.336 299.666 229.979 299.694Z" fill="black"/>
<path d="M85.6032 387.411C101.042 374.337 102.947 351.235 89.8589 335.812C76.7707 320.39 53.6453 318.486 38.2069 331.561C22.7684 344.636 20.8631 367.737 33.9512 383.16C47.0394 398.583 70.1647 400.486 85.6032 387.411Z" fill="black"/>
<path d="M61.915 377.493C71.8781 377.493 79.9549 369.425 79.9549 359.472C79.9549 349.519 71.8781 341.451 61.915 341.451C51.9518 341.451 43.8751 349.519 43.8751 359.472C43.8751 369.425 51.9518 377.493 61.915 377.493Z" fill="url(#paint23_linear_14_2581)"/>
<path d="M61.915 372.138C68.9173 372.138 74.5937 366.467 74.5937 359.472C74.5937 352.477 68.9173 346.807 61.915 346.807C54.9128 346.807 49.2363 352.477 49.2363 359.472C49.2363 366.467 54.9128 372.138 61.915 372.138Z" fill="url(#paint24_linear_14_2581)"/>
<path d="M66.873 347.821C64.5877 348.798 62.6396 350.423 61.2706 352.495C59.9015 354.568 59.1718 356.996 59.1718 359.48C59.1718 361.963 59.9015 364.391 61.2706 366.464C62.6396 368.536 64.5877 370.162 66.873 371.138C69.1639 370.167 71.1178 368.543 72.4914 366.47C73.865 364.397 74.5974 361.966 74.5974 359.48C74.5974 356.993 73.865 354.562 72.4914 352.489C71.1178 350.416 69.1639 348.792 66.873 347.821Z" fill="url(#paint25_linear_14_2581)"/>
<path d="M37.0056 313.673H51.8497C53.3755 313.673 54.6124 312.437 54.6124 310.913V308.526C54.6124 307.002 53.3755 305.766 51.8497 305.766H37.0056C35.4798 305.766 34.2429 307.002 34.2429 308.526V310.913C34.2429 312.437 35.4798 313.673 37.0056 313.673Z" fill="black"/>
<path d="M34.2279 313.673H49.072C50.5978 313.673 51.8347 312.437 51.8347 310.913V308.526C51.8347 307.002 50.5978 305.766 49.072 305.766H34.2279C32.7021 305.766 31.4652 307.002 31.4652 308.526V310.913C31.4652 312.437 32.7021 313.673 34.2279 313.673Z" fill="black" fill-opacity="0.5"/>
<path d="M97.8155 278.66H116.318V295.383H97.8155C97.3527 295.383 96.8944 295.292 96.4668 295.115C96.0392 294.938 95.6507 294.679 95.3234 294.352C94.9961 294.025 94.7365 293.637 94.5594 293.21C94.3823 292.782 94.2911 292.325 94.2911 291.862V282.21C94.2872 281.745 94.3754 281.284 94.5508 280.854C94.7261 280.423 94.9851 280.031 95.3128 279.701C95.6404 279.371 96.0303 279.109 96.4598 278.93C96.8894 278.752 97.3501 278.66 97.8155 278.66Z" fill="black"/>
<path d="M103.042 278.66H116.333V295.383H103.042C102.25 295.383 101.491 295.069 100.93 294.509C100.37 293.95 100.056 293.191 100.056 292.399V281.778C100.037 281.375 100.101 280.972 100.243 280.594C100.385 280.217 100.602 279.872 100.881 279.58C101.161 279.289 101.496 279.057 101.867 278.899C102.239 278.741 102.639 278.659 103.042 278.66Z" fill="#F3EB39"/>
<path d="M104.536 281.061H113.989V292.996H104.536C103.961 292.996 103.411 292.768 103.005 292.363C102.598 291.957 102.37 291.407 102.37 290.833V283.284C102.362 282.995 102.412 282.708 102.518 282.438C102.623 282.169 102.781 281.923 102.983 281.716C103.185 281.509 103.426 281.344 103.693 281.232C103.96 281.119 104.246 281.061 104.536 281.061Z" fill="url(#paint26_linear_14_2581)"/>
<path d="M471.038 287.715H331.901V160.715C331.901 159.05 332.563 157.452 333.742 156.274C334.921 155.096 336.52 154.435 338.188 154.435L464.751 154.435C466.418 154.435 468.017 155.096 469.196 156.274C470.375 157.452 471.038 159.05 471.038 160.715V287.715Z" fill="#F3EB39"/>
<path d="M344.998 287.715H205.89L205.89 160.715C205.89 159.05 206.553 157.452 207.732 156.274C208.911 155.096 210.51 154.435 212.178 154.435L338.71 154.435C340.378 154.435 341.977 155.096 343.156 156.274C344.335 157.452 344.998 159.05 344.998 160.715V287.715Z" fill="#FFC538"/>
<path d="M344.998 287.715H205.89L205.89 160.715C205.89 159.05 206.553 157.452 207.732 156.274C208.911 155.096 210.51 154.435 212.178 154.435L338.71 154.435C340.378 154.435 341.977 155.096 343.156 156.274C344.335 157.452 344.998 159.05 344.998 160.715V287.715Z" fill="black" fill-opacity="0.2"/>
<path d="M345.222 338.229V287.715H471.038V335.364C471.02 336.327 470.91 337.286 470.709 338.229H345.222Z" fill="#F3EB39"/>
<path d="M355.033 326.01V287.715H462.167V323.832C462.161 324.566 462.07 325.297 461.898 326.01H355.033Z" fill="black" fill-opacity="0.5"/>
<path d="M355.018 287.715H462.167V167.1H355.018V287.715Z" fill="url(#paint27_linear_14_2581)"/>
<mask id="mask0_14_2581" style="mask-type:luminance" maskUnits="userSpaceOnUse" x="356" y="157" width="107" height="159">
<path d="M356 315.91H462.865V157H356V315.91Z" fill="white"/>
</mask>
<g mask="url(#mask0_14_2581)">
<path d="M456.223 228.788H390.052C388.329 228.788 386.931 230.183 386.931 231.905V322.803C386.931 324.525 388.329 325.921 390.052 325.921H456.223C457.947 325.921 459.345 324.525 459.345 322.803V231.905C459.345 230.183 457.947 228.788 456.223 228.788Z" fill="#82684D"/>
<path d="M450.265 230.578H381.286V324.146H450.265V230.578Z" fill="#D1D1D1"/>
<path d="M436.212 246.167H395.339V308.541H436.212V246.167Z" fill="white"/>
<path d="M445.725 235.038V319.67H385.826V235.038H445.725ZM448.861 228.788H382.69C381.863 228.791 381.072 229.121 380.487 229.705C379.903 230.289 379.573 231.08 379.569 231.905V322.803C379.569 323.63 379.898 324.423 380.483 325.008C381.068 325.592 381.862 325.921 382.69 325.921H448.861C449.272 325.923 449.678 325.843 450.058 325.687C450.437 325.531 450.782 325.302 451.073 325.012C451.363 324.722 451.593 324.378 451.749 323.998C451.905 323.619 451.984 323.213 451.982 322.803V231.905C451.982 231.079 451.653 230.285 451.068 229.701C450.483 229.116 449.689 228.788 448.861 228.788Z" fill="#AD8B66"/>
<path d="M411.348 223.775H398.012C395.636 223.775 393.357 222.832 391.676 221.153C389.996 219.475 389.052 217.198 389.052 214.824C389.052 211.984 388.49 209.171 387.4 206.548C386.309 203.925 384.71 201.543 382.695 199.539C380.681 197.534 378.29 195.947 375.659 194.868C373.029 193.79 370.211 193.24 367.368 193.252C361.653 193.268 356.177 195.548 352.143 199.592C348.108 203.637 345.845 209.114 345.849 214.824V236.366C345.849 241.114 347.737 245.667 351.098 249.025C354.458 252.382 359.016 254.268 363.769 254.268H402.522L411.273 247.868L411.348 223.775Z" fill="#F3EB39"/>
<path d="M345.849 236.351V215.465C345.849 217.657 346.72 219.76 348.272 221.31C349.823 222.859 351.928 223.73 354.122 223.73H368.638C368.638 223.73 367.383 243.363 368.503 247.406C369.623 251.448 377.717 254.268 377.717 254.268H363.844C361.483 254.278 359.143 253.822 356.96 252.925C354.776 252.029 352.791 250.711 351.119 249.046C349.446 247.381 348.12 245.402 347.216 243.224C346.311 241.045 345.847 238.71 345.849 236.351Z" fill="black" fill-opacity="0.5"/>
<path d="M367.368 193.252C367.846 193.252 368.309 193.252 368.772 193.252C363.301 193.62 358.175 196.054 354.436 200.061C350.697 204.068 348.625 209.346 348.641 214.824V215.54C348.649 217.727 349.524 219.821 351.075 221.365C352.626 222.908 354.725 223.775 356.915 223.775H354.122C352.099 223.779 350.147 223.035 348.641 221.686C347.762 220.916 347.057 219.966 346.575 218.9C346.094 217.835 345.846 216.679 345.849 215.51V214.824C345.845 209.114 348.108 203.637 352.143 199.592C356.177 195.548 361.653 193.268 367.368 193.252Z" fill="#A996EB"/>
<path d="M375.701 254.328H404.284C406.661 254.328 408.94 253.385 410.62 251.706C412.3 250.027 413.244 247.751 413.244 245.377V225.759C413.244 225.241 413.038 224.744 412.671 224.377C412.304 224.011 411.807 223.805 411.288 223.805C410.769 223.805 410.272 224.011 409.905 224.377C409.538 224.744 409.332 225.241 409.332 225.759V245.317C409.332 246.67 408.794 247.968 407.836 248.925C406.878 249.882 405.579 250.419 404.224 250.419H375.701C374.347 250.419 373.048 249.882 372.09 248.925C371.132 247.968 370.594 246.67 370.594 245.317V225.759C370.594 225.241 370.388 224.744 370.021 224.377C369.654 224.011 369.156 223.805 368.637 223.805C368.119 223.805 367.621 224.011 367.254 224.377C366.887 224.744 366.681 225.241 366.681 225.759V245.317C366.673 246.503 366.901 247.678 367.352 248.775C367.802 249.871 368.466 250.868 369.305 251.706C370.145 252.545 371.142 253.208 372.24 253.658C373.338 254.108 374.514 254.336 375.701 254.328Z" fill="black"/>
<path d="M370.191 288.177H379.121V254.343H370.191V288.177Z" fill="url(#paint28_linear_14_2581)"/>
<path d="M395.175 268.008H365.696V236.679C365.696 236.284 365.853 235.904 366.133 235.624C366.413 235.345 366.793 235.187 367.189 235.187H393.622C394.018 235.187 394.397 235.345 394.677 235.624C394.958 235.904 395.115 236.284 395.115 236.679V268.008H395.175Z" fill="#F3EB39" fill-opacity="0.5"/>
<path d="M352.001 239.618H362.858V235.113H352.001V239.618Z" fill="url(#paint29_linear_14_2581)"/>
<path d="M352.001 239.618H362.858V235.113H352.001V239.618Z" stroke="white" stroke-width="0.13" stroke-miterlimit="10"/>
<path d="M352.001 268.023H362.858V263.517H352.001V268.023Z" fill="url(#paint30_linear_14_2581)"/>
<path d="M352.001 268.023H362.858V263.517H352.001V268.023Z" stroke="white" stroke-width="0.13" stroke-miterlimit="10"/>
<path d="M386.095 261.011L389.246 256.924L392.412 261.011H391.202V263.801H387.305V261.011H386.095Z" fill="url(#paint31_linear_14_2581)"/>
<path d="M386.095 265.874H392.412V264.651H386.095V265.874Z" fill="url(#paint32_linear_14_2581)"/>
<path d="M453.521 326.01H395.608V264.427C395.608 263.636 395.922 262.877 396.483 262.318C397.043 261.758 397.802 261.444 398.594 261.444H450.534C451.326 261.444 452.086 261.758 452.646 262.318C453.206 262.877 453.521 263.636 453.521 264.427V326.01Z" fill="#F3EB39" fill-opacity="0.5"/>
<path d="M403.881 326.01H355.033V264.427C355.033 263.636 355.348 262.877 355.908 262.318C356.468 261.758 357.228 261.444 358.02 261.444H400.849C401.642 261.444 402.401 261.758 402.961 262.318C403.522 262.877 403.836 263.636 403.836 264.427V326.01H403.881Z" fill="#F3EB39" fill-opacity="0.5"/>
<path d="M417.396 270.231H438.721V261.384H417.396V270.231Z" fill="url(#paint33_linear_14_2581)"/>
<path d="M417.396 270.231H438.721V261.384H417.396V270.231Z" stroke="white" stroke-width="0.25" stroke-miterlimit="10"/>
<path d="M413.752 326.01H369.13V278.495C369.13 277.874 369.377 277.278 369.817 276.839C370.257 276.4 370.853 276.153 371.475 276.153H411.408C412.029 276.153 412.626 276.4 413.065 276.839C413.505 277.278 413.752 277.874 413.752 278.495V326.01Z" fill="#F3EB39" fill-opacity="0.5"/>
<path d="M375.447 326.01H337.814V278.495C337.814 277.874 338.061 277.278 338.501 276.839C338.941 276.4 339.537 276.153 340.159 276.153H373.103C373.724 276.153 374.321 276.4 374.761 276.839C375.2 277.278 375.447 277.874 375.447 278.495V326.01Z" fill="#F3EB39" fill-opacity="0.5"/>
<path d="M348.417 283.031H364.844V276.213H348.417V283.031Z" fill="url(#paint34_linear_14_2581)"/>
<path d="M348.417 283.031H364.844V276.213H348.417V283.031Z" stroke="white" stroke-width="0.19" stroke-miterlimit="10"/>
<path d="M399.998 315.388L404.792 309.197L409.571 315.388H407.749V319.61H401.835V315.388H399.998Z" fill="url(#paint35_linear_14_2581)"/>
<path d="M303.601 276.153H388.828V249.584H303.601C300.152 249.699 296.882 251.149 294.482 253.628C292.083 256.107 290.741 259.42 290.741 262.869C290.741 266.317 292.083 269.63 294.482 272.109C296.882 274.588 300.152 276.038 303.601 276.153Z" fill="#F3EB39" fill-opacity="0.5"/>
<path d="M375.537 262.876C375.537 265.506 376.318 268.076 377.78 270.262C379.243 272.449 381.322 274.152 383.754 275.158C386.186 276.163 388.863 276.426 391.444 275.912C394.026 275.398 396.397 274.13 398.257 272.27C400.117 270.409 401.383 268.039 401.895 265.46C402.407 262.881 402.141 260.208 401.132 257.779C400.122 255.35 398.414 253.275 396.224 251.817C394.034 250.358 391.46 249.581 388.828 249.584C387.081 249.582 385.35 249.924 383.736 250.592C382.121 251.259 380.655 252.239 379.42 253.473C378.185 254.708 377.207 256.175 376.54 257.788C375.874 259.402 375.533 261.131 375.537 262.876Z" fill="black"/>
<path d="M379.718 262.876C379.718 264.679 380.254 266.442 381.257 267.942C382.26 269.441 383.686 270.609 385.354 271.299C387.023 271.988 388.858 272.168 390.628 271.815C392.399 271.462 394.024 270.592 395.3 269.316C396.575 268.04 397.443 266.414 397.794 264.645C398.144 262.876 397.961 261.043 397.268 259.377C396.575 257.712 395.404 256.29 393.901 255.29C392.399 254.29 390.633 253.758 388.828 253.761C387.63 253.761 386.444 253.997 385.338 254.455C384.232 254.913 383.227 255.585 382.381 256.431C381.535 257.278 380.864 258.283 380.407 259.389C379.95 260.495 379.716 261.68 379.718 262.876Z" fill="#F3EB39"/>
<path d="M383.511 262.876C383.511 263.926 383.823 264.953 384.407 265.827C384.992 266.7 385.822 267.381 386.793 267.783C387.765 268.185 388.834 268.29 389.865 268.085C390.896 267.88 391.844 267.374 392.587 266.631C393.331 265.889 393.837 264.942 394.042 263.912C394.247 262.882 394.142 261.814 393.74 260.844C393.337 259.873 392.656 259.044 391.782 258.46C390.907 257.876 389.879 257.565 388.828 257.565C387.419 257.569 386.069 258.13 385.073 259.125C384.077 260.12 383.515 261.469 383.511 262.876Z" fill="black"/>
</g>
<path d="M113.959 289.416C110.426 287.068 106.494 285.385 102.355 284.448V283.21C102.355 282.925 102.412 282.643 102.522 282.381C102.632 282.118 102.793 281.88 102.996 281.68C103.199 281.48 103.439 281.322 103.704 281.216C103.968 281.11 104.251 281.057 104.536 281.061H113.989L113.959 289.416Z" fill="url(#paint36_linear_14_2581)"/>
<path d="M213.492 278.66H336.515V167.1H213.492V278.66Z" fill="#F3EB39"/>
<path d="M213.492 189.925H336.515" stroke="#FFA538" stroke-width="1.81" stroke-miterlimit="10"/>
<path d="M213.492 176.752H336.515" stroke="#FFA538" stroke-width="1.81" stroke-miterlimit="10"/>
<path d="M213.492 216.286H336.515" stroke="#FFA538" stroke-width="1.81" stroke-miterlimit="10"/>
<path d="M213.492 203.113H336.515" stroke="#FFA538" stroke-width="1.81" stroke-miterlimit="10"/>
<path d="M213.492 242.647H336.515" stroke="#FFA538" stroke-width="1.81" stroke-miterlimit="10"/>
<path d="M213.492 229.459H336.515" stroke="#FFA538" stroke-width="1.81" stroke-miterlimit="10"/>
<path d="M213.492 269.007H336.515" stroke="#FFA538" stroke-width="1.81" stroke-miterlimit="10"/>
<path d="M213.492 255.82H336.515" stroke="#FFA538" stroke-width="1.81" stroke-miterlimit="10"/>
<path d="M489.556 399.409H497.784C499.778 399.409 501.753 399.801 503.596 400.563C505.439 401.326 507.113 402.443 508.523 403.852C509.934 405.261 511.052 406.934 511.816 408.774C512.579 410.615 512.972 412.588 512.972 414.58C512.972 416.573 512.579 418.546 511.816 420.387C511.052 422.227 509.934 423.9 508.523 425.309C507.113 426.718 505.439 427.835 503.596 428.598C501.753 429.36 499.778 429.752 497.784 429.752H489.556C485.528 429.752 481.665 428.154 478.816 425.309C475.968 422.463 474.368 418.604 474.368 414.58C474.368 410.557 475.968 406.698 478.816 403.852C481.665 401.007 485.528 399.409 489.556 399.409Z" fill="url(#paint37_linear_14_2581)"/>
<path d="M529.399 409.747H539.673V424.665C539.673 426.026 539.132 427.332 538.168 428.294C537.205 429.256 535.898 429.797 534.536 429.797C533.173 429.797 531.867 429.256 530.903 428.294C529.94 427.332 529.399 426.026 529.399 424.665V409.747Z" fill="black"/>
<path d="M585.833 255.208H604.963" stroke="black" stroke-width="9.17" stroke-miterlimit="10" stroke-linecap="round"/>
<path d="M522.887 255.208H542.017" stroke="black" stroke-width="9.17" stroke-miterlimit="10" stroke-linecap="round"/>
<path d="M466.812 418.728H496.992C499.741 418.728 502.377 417.637 504.321 415.695C506.264 413.754 507.356 411.12 507.356 408.374V263.13C507.356 262.39 507.651 261.68 508.174 261.157C508.698 260.634 509.408 260.34 510.149 260.34H520.528C521.89 260.34 523.197 259.799 524.16 258.837C525.124 257.874 525.665 256.569 525.665 255.208C525.665 253.847 525.124 252.542 524.16 251.579C523.197 250.617 521.89 250.076 520.528 250.076H510.149C506.683 250.076 503.36 251.451 500.909 253.899C498.459 256.347 497.082 259.668 497.082 263.13V408.374L466.812 408.464C465.449 408.464 464.142 409.005 463.179 409.967C462.216 410.929 461.674 412.235 461.674 413.596C461.674 414.957 462.216 416.262 463.179 417.225C464.142 418.187 465.449 418.728 466.812 418.728Z" fill="#F3EB39"/>
<path d="M505.266 279.644H565.896C567.259 279.644 568.566 279.103 569.529 278.141C570.492 277.179 571.034 275.873 571.034 274.512C571.034 273.151 570.492 271.846 569.529 270.883C568.566 269.921 567.259 269.38 565.896 269.38H505.266C503.903 269.38 502.597 269.921 501.633 270.883C500.67 271.846 500.129 273.151 500.129 274.512C500.129 275.873 500.67 277.179 501.633 278.141C502.597 279.103 503.903 279.644 505.266 279.644Z" fill="black"/>
<path d="M505.266 318.253H565.896C567.259 318.253 568.566 317.712 569.529 316.75C570.492 315.787 571.034 314.482 571.034 313.121C571.034 311.76 570.492 310.455 569.529 309.492C568.566 308.53 567.259 307.989 565.896 307.989H505.266C504.591 307.989 503.923 308.122 503.3 308.38C502.677 308.638 502.11 309.016 501.633 309.492C501.156 309.969 500.778 310.534 500.52 311.157C500.261 311.78 500.129 312.447 500.129 313.121C500.129 313.795 500.261 314.462 500.52 315.085C500.778 315.707 501.156 316.273 501.633 316.75C502.11 317.226 502.677 317.604 503.3 317.862C503.923 318.12 504.591 318.253 505.266 318.253Z" fill="black"/>
<path d="M465.93 409.747H476.205V424.665C476.205 426.026 475.664 427.332 474.7 428.294C473.737 429.256 472.43 429.797 471.068 429.797C469.705 429.797 468.399 429.256 467.435 428.294C466.472 427.332 465.93 426.026 465.93 424.665V409.747Z" fill="black"/>
<path d="M466.812 418.728H530.504C531.866 418.728 533.173 418.187 534.136 417.225C535.1 416.262 535.641 414.957 535.641 413.596C535.641 412.235 535.1 410.93 534.136 409.967C533.173 409.005 531.866 408.464 530.504 408.464H466.812C465.449 408.464 464.142 409.005 463.179 409.967C462.216 410.93 461.674 412.235 461.674 413.596C461.674 414.957 462.216 416.262 463.179 417.225C464.142 418.187 465.449 418.728 466.812 418.728Z" fill="black"/>
<path d="M530.504 418.728H560.67C563.418 418.728 566.054 417.637 567.998 415.695C569.942 413.754 571.034 411.12 571.034 408.374V263.13C571.034 262.39 571.328 261.68 571.852 261.157C572.375 260.634 573.086 260.34 573.826 260.34H584.205C585.568 260.34 586.874 259.799 587.838 258.837C588.801 257.874 589.342 256.569 589.342 255.208C589.342 253.847 588.801 252.542 587.838 251.579C586.874 250.617 585.568 250.076 584.205 250.076H573.826C570.362 250.08 567.041 251.456 564.591 253.904C562.141 256.351 560.763 259.669 560.759 263.13V408.374L530.504 408.464C529.141 408.464 527.835 409.005 526.871 409.967C525.908 410.929 525.366 412.235 525.366 413.596C525.366 414.957 525.908 416.262 526.871 417.225C527.835 418.187 529.141 418.728 530.504 418.728Z" fill="#F3EB39"/>
<path d="M464.676 344.614H515.958C516.75 344.614 517.51 344.928 518.07 345.487C518.63 346.047 518.945 346.806 518.945 347.597V408.509H461.674V347.597C461.674 347.204 461.752 346.815 461.903 346.452C462.054 346.089 462.275 345.759 462.554 345.482C462.833 345.205 463.164 344.985 463.528 344.836C463.893 344.687 464.283 344.612 464.676 344.614Z" fill="url(#paint38_linear_14_2581)"/>
<path d="M464.676 344.614H515.958C516.75 344.614 517.51 344.928 518.07 345.487C518.63 346.047 518.945 346.806 518.945 347.597V408.509H461.674V347.597C461.674 347.204 461.752 346.815 461.903 346.452C462.054 346.089 462.275 345.759 462.554 345.482C462.833 345.205 463.164 344.985 463.528 344.836C463.893 344.687 464.283 344.612 464.676 344.614Z" fill="#F3EB39"/>
<path d="M513.838 344.614H556.145C556.937 344.614 557.697 344.928 558.257 345.487C558.817 346.047 559.131 346.806 559.131 347.597V408.509H510.836V347.597C510.836 347.204 510.914 346.815 511.065 346.452C511.216 346.089 511.437 345.759 511.716 345.482C511.995 345.205 512.326 344.985 512.69 344.836C513.054 344.687 513.444 344.612 513.838 344.614Z" fill="#B9383E"/>
<path d="M513.838 344.614H556.145C556.937 344.614 557.697 344.928 558.257 345.487C558.817 346.047 559.131 346.806 559.131 347.597V408.509H510.836V347.597C510.836 347.204 510.914 346.815 511.065 346.452C511.216 346.089 511.437 345.759 511.716 345.482C511.995 345.205 512.326 344.985 512.69 344.836C513.054 344.687 513.444 344.612 513.838 344.614Z" fill="#F3EB39"/>
<path d="M545.542 344.539H524.456V353.281H545.542V344.539Z" fill="url(#paint39_linear_14_2581)"/>
<path d="M545.542 344.539H524.456V353.281H545.542V344.539Z" stroke="white" stroke-width="0.25" stroke-miterlimit="10"/>
<path d="M545.542 399.707H524.456V408.449H545.542V399.707Z" fill="url(#paint40_linear_14_2581)"/>
<path d="M545.542 399.707H524.456V408.449H545.542V399.707Z" stroke="white" stroke-width="0.25" stroke-miterlimit="10"/>
<path d="M479.311 394.829L473.173 386.877L467.036 394.829H469.38V400.244H476.966V394.829H479.311Z" fill="url(#paint41_linear_14_2581)"/>
<path d="M479.326 401.915H467.036V404.272H479.326V401.915Z" fill="url(#paint42_linear_14_2581)"/>
<path d="M549.953 344.553H508.318V300.275C508.318 299.698 508.548 299.144 508.956 298.735C509.365 298.327 509.92 298.097 510.498 298.097H547.832C548.411 298.097 548.965 298.327 549.374 298.735C549.783 299.144 550.013 299.698 550.013 300.275V344.553H549.953Z" fill="#F3EB39"/>
<path d="M514.202 344.553H479.078V300.275C479.078 299.698 479.307 299.144 479.716 298.735C480.125 298.327 480.68 298.097 481.258 298.097H512.021C512.6 298.097 513.154 298.327 513.563 298.735C513.972 299.144 514.202 299.698 514.202 300.275V344.553Z" fill="#F3EB39"/>
<path d="M505.325 298.083H489.989V304.438H505.325V298.083Z" fill="url(#paint43_linear_14_2581)"/>
<path d="M505.325 298.083H489.989V304.438H505.325V298.083Z" stroke="white" stroke-width="0.18" stroke-miterlimit="10"/>
<path d="M505.325 338.184H489.989V344.539H505.325V338.184Z" fill="url(#paint44_linear_14_2581)"/>
<path d="M505.325 338.184H489.989V344.539H505.325V338.184Z" stroke="white" stroke-width="0.18" stroke-miterlimit="10"/>
<path d="M561.506 399.409H569.72V401.855C571.856 403.222 573.614 405.104 574.832 407.328C576.049 409.552 576.687 412.046 576.687 414.58C576.687 417.115 576.049 419.609 574.832 421.833C573.614 424.057 571.856 425.939 569.72 427.306V429.752H561.506C559.512 429.752 557.537 429.36 555.694 428.598C553.851 427.835 552.177 426.718 550.767 425.309C549.356 423.9 548.238 422.227 547.475 420.387C546.711 418.546 546.318 416.573 546.318 414.58C546.318 412.588 546.711 410.615 547.475 408.774C548.238 406.934 549.356 405.261 550.767 403.852C552.177 402.443 553.851 401.326 555.694 400.563C557.537 399.801 559.512 399.409 561.506 399.409Z" fill="url(#paint45_linear_14_2581)"/>
<path d="M569.749 429.752C578.137 429.752 584.937 422.96 584.937 414.58C584.937 406.201 578.137 399.409 569.749 399.409C561.361 399.409 554.562 406.201 554.562 414.58C554.562 422.96 561.361 429.752 569.749 429.752Z" fill="black"/>
<path d="M562.283 414.581C562.283 413.105 562.72 411.663 563.541 410.436C564.361 409.21 565.528 408.254 566.892 407.689C568.256 407.125 569.758 406.977 571.206 407.265C572.655 407.553 573.985 408.263 575.029 409.306C576.073 410.349 576.785 411.678 577.073 413.125C577.361 414.572 577.213 416.072 576.648 417.435C576.083 418.798 575.126 419.963 573.898 420.783C572.67 421.602 571.226 422.04 569.749 422.04C567.769 422.04 565.87 421.254 564.47 419.855C563.069 418.456 562.283 416.559 562.283 414.581Z" fill="url(#paint46_linear_14_2581)"/>
<path d="M569.749 419.832C572.653 419.832 575.006 417.481 575.006 414.58C575.006 411.68 572.653 409.329 569.749 409.329C566.846 409.329 564.493 411.68 564.493 414.58C564.493 417.481 566.846 419.832 569.749 419.832Z" fill="url(#paint47_linear_14_2581)"/>
<path d="M567.703 409.747C568.744 409.308 569.898 409.215 570.996 409.483C572.093 409.75 573.075 410.363 573.796 411.232C574.517 412.101 574.938 413.178 574.999 414.305C575.059 415.431 574.754 416.547 574.129 417.488C573.505 418.428 572.594 419.142 571.531 419.524C570.469 419.907 569.311 419.937 568.23 419.611C567.148 419.285 566.201 418.62 565.528 417.713C564.855 416.807 564.492 415.709 564.493 414.58C564.493 413.549 564.798 412.54 565.369 411.681C565.94 410.821 566.752 410.148 567.703 409.747Z" fill="url(#paint48_linear_14_2581)"/>
<path d="M371.953 409.553H330.318V365.275C330.318 364.698 330.548 364.144 330.956 363.735C331.365 363.327 331.92 363.097 332.498 363.097H369.832C370.411 363.097 370.965 363.327 371.374 363.735C371.783 364.144 372.013 364.698 372.013 365.275V409.553H371.953Z" fill="#F3EB39"/>
<path d="M336.202 409.553H301.078V365.275C301.078 364.698 301.307 364.144 301.716 363.735C302.125 363.327 302.68 363.097 303.258 363.097H334.021C334.6 363.097 335.154 363.327 335.563 363.735C335.972 364.144 336.202 364.698 336.202 365.275V409.553Z" fill="#F3EB39"/>
<path d="M345.923 369.453H361.26V363.097H345.923V369.453Z" fill="url(#paint49_linear_14_2581)"/>
<path d="M345.923 369.453H361.26V363.097H345.923V369.453Z" stroke="white" stroke-width="0.18" stroke-miterlimit="10"/>
<path d="M345.923 409.568H361.26V403.213H345.923V409.568Z" fill="url(#paint50_linear_14_2581)"/>
<path d="M345.923 409.568H361.26V403.213H345.923V409.568Z" stroke="white" stroke-width="0.18" stroke-miterlimit="10"/>
<path d="M431.18 428.096H386.558V380.641C386.558 380.02 386.805 379.424 387.245 378.985C387.684 378.546 388.281 378.299 388.903 378.299H428.835C429.457 378.299 430.053 378.546 430.493 378.985C430.933 379.424 431.18 380.02 431.18 380.641V428.096Z" fill="#F3EB39"/>
<path d="M392.875 428.096H355.242V380.641C355.242 380.02 355.489 379.424 355.929 378.985C356.369 378.546 356.965 378.299 357.587 378.299H390.53C391.152 378.299 391.749 378.546 392.188 378.985C392.628 379.424 392.875 380.02 392.875 380.641V428.096Z" fill="#F3EB39"/>
<path d="M365.845 385.117H382.272V378.299H365.845V385.117Z" fill="url(#paint51_linear_14_2581)"/>
<path d="M365.845 385.117H382.272V378.299H365.845V385.117Z" stroke="white" stroke-width="0.19" stroke-miterlimit="10"/>
<path d="M365.845 428.096H382.272V421.279H365.845V428.096Z" fill="url(#paint52_linear_14_2581)"/>
<path d="M365.845 428.096H382.272V421.279H365.845V428.096Z" stroke="white" stroke-width="0.19" stroke-miterlimit="10"/>
<path d="M417.441 417.49L422.22 411.299L427.013 417.49H425.176V421.711H419.263V417.49H417.441Z" fill="url(#paint53_linear_14_2581)"/>
<path d="M417.441 424.844H427.013V423.009H417.441V424.844Z" fill="url(#paint54_linear_14_2581)"/>
<defs>
<linearGradient id="paint0_linear_14_2581" x1="501.861" y1="274.497" x2="501.861" y2="27.1663" gradientUnits="userSpaceOnUse">
<stop stop-color="#B8E7FF"/>
<stop offset="1" stop-color="#E5F7FF"/>
</linearGradient>
<linearGradient id="paint1_linear_14_2581" x1="269.583" y1="508.432" x2="269.583" y2="178.05" gradientUnits="userSpaceOnUse">
<stop stop-color="#C9EDFF"/>
<stop offset="1" stop-color="#E5F7FF"/>
</linearGradient>
<linearGradient id="paint2_linear_14_2581" x1="520.513" y1="575.37" x2="520.513" y2="112.052" gradientUnits="userSpaceOnUse">
<stop stop-color="#C9EDFF"/>
<stop offset="1" stop-color="#E5F7FF"/>
</linearGradient>
<linearGradient id="paint3_linear_14_2581" x1="464.168" y1="305.005" x2="464.168" y2="93.165" gradientUnits="userSpaceOnUse">
<stop stop-color="#C9EDFF"/>
<stop offset="1" stop-color="#E5F7FF"/>
</linearGradient>
<linearGradient id="paint4_linear_14_2581" x1="212.476" y1="248.211" x2="212.476" y2="180.855" gradientUnits="userSpaceOnUse">
<stop stop-color="#E74C3C"/>
<stop offset="1" stop-color="#F9A2A1"/>
</linearGradient>
<linearGradient id="paint5_linear_14_2581" x1="83.972" y1="359.472" x2="712.888" y2="359.472" gradientUnits="userSpaceOnUse">
<stop stop-color="#292929"/>
<stop offset="1" stop-color="#424242"/>
</linearGradient>
<linearGradient id="paint6_linear_14_2581" x1="-113.63" y1="359.472" x2="515.286" y2="359.472" gradientUnits="userSpaceOnUse">
<stop stop-color="#292929"/>
<stop offset="1" stop-color="#424242"/>
</linearGradient>
<linearGradient id="paint7_linear_14_2581" x1="279.364" y1="388.339" x2="279.364" y2="315.12" gradientUnits="userSpaceOnUse">
<stop stop-color="#292929"/>
<stop offset="1" stop-color="#424242"/>
</linearGradient>
<linearGradient id="paint8_linear_14_2581" x1="81.7619" y1="388.339" x2="81.7619" y2="315.12" gradientUnits="userSpaceOnUse">
<stop stop-color="#292929"/>
<stop offset="1" stop-color="#424242"/>
</linearGradient>
<linearGradient id="paint9_linear_14_2581" x1="109.15" y1="441.09" x2="109.15" y2="122.494" gradientUnits="userSpaceOnUse">
<stop stop-color="#E74C3C"/>
<stop offset="1" stop-color="#F9A2A1"/>
</linearGradient>
<linearGradient id="paint10_linear_14_2581" x1="14.4856" y1="377.389" x2="14.4856" y2="342.316" gradientUnits="userSpaceOnUse">
<stop stop-color="#D1D1D1"/>
<stop offset="1" stop-color="white"/>
</linearGradient>
<linearGradient id="paint11_linear_14_2581" x1="379.584" y1="403.466" x2="379.584" y2="334.559" gradientUnits="userSpaceOnUse">
<stop stop-color="#292929"/>
<stop offset="1" stop-color="#424242"/>
</linearGradient>
<linearGradient id="paint12_linear_14_2581" x1="217.897" y1="363.963" x2="217.897" y2="328.308" gradientUnits="userSpaceOnUse">
<stop stop-color="#292929"/>
<stop offset="1" stop-color="#424242"/>
</linearGradient>
<linearGradient id="paint13_linear_14_2581" x1="259.517" y1="384.52" x2="259.517" y2="343.002" gradientUnits="userSpaceOnUse">
<stop stop-color="#C2C2C2"/>
<stop offset="1" stop-color="white"/>
</linearGradient>
<linearGradient id="paint14_linear_14_2581" x1="259.517" y1="349.85" x2="259.517" y2="368.423" gradientUnits="userSpaceOnUse">
<stop stop-color="#656565"/>
<stop offset="1" stop-color="#C2C2C2"/>
</linearGradient>
<linearGradient id="paint15_linear_14_2581" x1="309.396" y1="359.472" x2="205.189" y2="359.472" gradientUnits="userSpaceOnUse">
<stop stop-color="#656565"/>
<stop offset="1" stop-color="#C2C2C2"/>
</linearGradient>
<linearGradient id="paint16_linear_14_2581" x1="275.437" y1="263.13" x2="275.437" y2="306.706" gradientUnits="userSpaceOnUse">
<stop/>
<stop offset="1" stop-opacity="0"/>
</linearGradient>
<linearGradient id="paint17_linear_14_2581" x1="179.025" y1="263.13" x2="179.025" y2="306.706" gradientUnits="userSpaceOnUse">
<stop/>
<stop offset="1" stop-opacity="0"/>
</linearGradient>
<linearGradient id="paint18_linear_14_2581" x1="209.251" y1="426.888" x2="209.251" y2="250.136" gradientUnits="userSpaceOnUse">
<stop/>
<stop offset="0.02" stop-opacity="0.95"/>
<stop offset="1" stop-opacity="0"/>
</linearGradient>
<linearGradient id="paint19_linear_14_2581" x1="185.237" y1="325.473" x2="154.814" y2="234.662" gradientUnits="userSpaceOnUse">
<stop stop-color="white"/>
<stop offset="1" stop-color="white" stop-opacity="0"/>
</linearGradient>
<linearGradient id="paint20_linear_14_2581" x1="154.668" y1="523.335" x2="154.668" y2="172.993" gradientUnits="userSpaceOnUse">
<stop/>
<stop offset="1" stop-opacity="0"/>
</linearGradient>
<linearGradient id="paint21_linear_14_2581" x1="182.818" y1="307.392" x2="182.818" y2="289.58" gradientUnits="userSpaceOnUse">
<stop stop-color="#D1D1D1"/>
<stop offset="1" stop-color="white"/>
</linearGradient>
<linearGradient id="paint22_linear_14_2581" x1="178.711" y1="316.433" x2="178.711" y2="302.917" gradientUnits="userSpaceOnUse">
<stop stop-color="#D1D1D1"/>
<stop offset="1" stop-color="white"/>
</linearGradient>
<linearGradient id="paint23_linear_14_2581" x1="61.9299" y1="384.52" x2="61.9299" y2="343.002" gradientUnits="userSpaceOnUse">
<stop stop-color="#C2C2C2"/>
<stop offset="1" stop-color="white"/>
</linearGradient>
<linearGradient id="paint24_linear_14_2581" x1="61.9299" y1="349.85" x2="61.9299" y2="368.423" gradientUnits="userSpaceOnUse">
<stop stop-color="#656565"/>
<stop offset="1" stop-color="#C2C2C2"/>
</linearGradient>
<linearGradient id="paint25_linear_14_2581" x1="111.793" y1="359.472" x2="7.6013" y2="359.472" gradientUnits="userSpaceOnUse">
<stop stop-color="#656565"/>
<stop offset="1" stop-color="#C2C2C2"/>
</linearGradient>
<linearGradient id="paint26_linear_14_2581" x1="106.359" y1="298.889" x2="106.359" y2="274.199" gradientUnits="userSpaceOnUse">
<stop stop-color="#C2C2C2"/>
<stop offset="1" stop-color="white"/>
</linearGradient>
<linearGradient id="paint27_linear_14_2581" x1="296.075" y1="227.4" x2="437.213" y2="227.4" gradientUnits="userSpaceOnUse">
<stop stop-color="#292929"/>
<stop offset="1" stop-color="#424242"/>
</linearGradient>
<linearGradient id="paint28_linear_14_2581" x1="374.656" y1="246.63" x2="374.656" y2="305.96" gradientUnits="userSpaceOnUse">
<stop stop-color="#C2C2C2"/>
<stop offset="1" stop-color="white"/>
</linearGradient>
<linearGradient id="paint29_linear_14_2581" x1="357.437" y1="248.435" x2="357.437" y2="234.233" gradientUnits="userSpaceOnUse">
<stop stop-color="white"/>
<stop offset="1" stop-color="white" stop-opacity="0"/>
</linearGradient>
<linearGradient id="paint30_linear_14_2581" x1="357.437" y1="257.61" x2="357.437" y2="267.978" gradientUnits="userSpaceOnUse">
<stop stop-color="white"/>
<stop offset="1" stop-color="white" stop-opacity="0"/>
</linearGradient>
<linearGradient id="paint31_linear_14_2581" x1="389.261" y1="268.649" x2="389.261" y2="258.43" gradientUnits="userSpaceOnUse">
<stop stop-color="#292929"/>
<stop offset="1" stop-color="#424242"/>
</linearGradient>
<linearGradient id="paint32_linear_14_2581" x1="389.246" y1="268.247" x2="389.246" y2="258.37" gradientUnits="userSpaceOnUse">
<stop stop-color="#292929"/>
<stop offset="1" stop-color="#424242"/>
</linearGradient>
<linearGradient id="paint33_linear_14_2581" x1="428.059" y1="287.536" x2="428.059" y2="259.639" gradientUnits="userSpaceOnUse">
<stop stop-color="white"/>
<stop offset="1" stop-color="white" stop-opacity="0"/>
</linearGradient>
<linearGradient id="paint34_linear_14_2581" x1="356.616" y1="296.353" x2="356.616" y2="274.87" gradientUnits="userSpaceOnUse">
<stop stop-color="white"/>
<stop offset="1" stop-color="white" stop-opacity="0"/>
</linearGradient>
<linearGradient id="paint35_linear_14_2581" x1="404.792" y1="326.965" x2="404.792" y2="311.495" gradientUnits="userSpaceOnUse">
<stop stop-color="#292929"/>
<stop offset="1" stop-color="#424242"/>
</linearGradient>
<linearGradient id="paint36_linear_14_2581" x1="107.851" y1="286.73" x2="109.729" y2="282.88" gradientUnits="userSpaceOnUse">
<stop stop-color="white"/>
<stop offset="1" stop-color="white" stop-opacity="0"/>
</linearGradient>
<linearGradient id="paint37_linear_14_2581" x1="381.346" y1="414.58" x2="641.984" y2="414.58" gradientUnits="userSpaceOnUse">
<stop stop-color="#292929"/>
<stop offset="1" stop-color="#424242"/>
</linearGradient>
<linearGradient id="paint38_linear_14_2581" x1="490.31" y1="344.613" x2="490.31" y2="408.509" gradientUnits="userSpaceOnUse">
<stop stop-color="#F5F5F5"/>
<stop offset="0.904601" stop-color="#B9383E"/>
</linearGradient>
<linearGradient id="paint39_linear_14_2581" x1="534.999" y1="370.392" x2="534.999" y2="342.808" gradientUnits="userSpaceOnUse">
<stop stop-color="white"/>
<stop offset="1" stop-color="white" stop-opacity="0"/>
</linearGradient>
<linearGradient id="paint40_linear_14_2581" x1="534.999" y1="388.235" x2="534.999" y2="408.36" gradientUnits="userSpaceOnUse">
<stop stop-color="white"/>
<stop offset="1" stop-color="white" stop-opacity="0"/>
</linearGradient>
<linearGradient id="paint41_linear_14_2581" x1="473.173" y1="409.672" x2="473.173" y2="389.816" gradientUnits="userSpaceOnUse">
<stop stop-color="#292929"/>
<stop offset="1" stop-color="#424242"/>
</linearGradient>
<linearGradient id="paint42_linear_14_2581" x1="473.173" y1="408.912" x2="473.173" y2="389.697" gradientUnits="userSpaceOnUse">
<stop stop-color="#292929"/>
<stop offset="1" stop-color="#424242"/>
</linearGradient>
<linearGradient id="paint43_linear_14_2581" x1="497.665" y1="316.88" x2="497.665" y2="296.83" gradientUnits="userSpaceOnUse">
<stop stop-color="white"/>
<stop offset="1" stop-color="white" stop-opacity="0"/>
</linearGradient>
<linearGradient id="paint44_linear_14_2581" x1="497.665" y1="325.429" x2="497.665" y2="346.717" gradientUnits="userSpaceOnUse">
<stop stop-color="white"/>
<stop offset="1" stop-color="white" stop-opacity="0"/>
</linearGradient>
<linearGradient id="paint45_linear_14_2581" x1="561.521" y1="426.53" x2="561.521" y2="396.201" gradientUnits="userSpaceOnUse">
<stop stop-color="#292929"/>
<stop offset="1" stop-color="#424242"/>
</linearGradient>
<linearGradient id="paint46_linear_14_2581" x1="569.749" y1="424.964" x2="569.749" y2="407.748" gradientUnits="userSpaceOnUse">
<stop stop-color="#C2C2C2"/>
<stop offset="1" stop-color="white"/>
</linearGradient>
<linearGradient id="paint47_linear_14_2581" x1="569.749" y1="410.582" x2="569.749" y2="418.28" gradientUnits="userSpaceOnUse">
<stop stop-color="#656565"/>
<stop offset="1" stop-color="#C2C2C2"/>
</linearGradient>
<linearGradient id="paint48_linear_14_2581" x1="549.081" y1="414.58" x2="592.269" y2="414.58" gradientUnits="userSpaceOnUse">
<stop stop-color="#656565"/>
<stop offset="1" stop-color="#C2C2C2"/>
</linearGradient>
<linearGradient id="paint49_linear_14_2581" x1="353.599" y1="381.895" x2="353.599" y2="361.844" gradientUnits="userSpaceOnUse">
<stop stop-color="white"/>
<stop offset="1" stop-color="white" stop-opacity="0"/>
</linearGradient>
<linearGradient id="paint50_linear_14_2581" x1="353.599" y1="390.458" x2="353.599" y2="411.746" gradientUnits="userSpaceOnUse">
<stop stop-color="white"/>
<stop offset="1" stop-color="white" stop-opacity="0"/>
</linearGradient>
<linearGradient id="paint51_linear_14_2581" x1="374.044" y1="398.454" x2="374.044" y2="376.971" gradientUnits="userSpaceOnUse">
<stop stop-color="white"/>
<stop offset="1" stop-color="white" stop-opacity="0"/>
</linearGradient>
<linearGradient id="paint52_linear_14_2581" x1="374.044" y1="412.343" x2="374.044" y2="428.037" gradientUnits="userSpaceOnUse">
<stop stop-color="white"/>
<stop offset="1" stop-color="white" stop-opacity="0"/>
</linearGradient>
<linearGradient id="paint53_linear_14_2581" x1="422.235" y1="429.051" x2="422.235" y2="413.581" gradientUnits="userSpaceOnUse">
<stop stop-color="#292929"/>
<stop offset="1" stop-color="#424242"/>
</linearGradient>
<linearGradient id="paint54_linear_14_2581" x1="422.235" y1="428.455" x2="422.235" y2="413.491" gradientUnits="userSpaceOnUse">
<stop stop-color="#292929"/>
<stop offset="1" stop-color="#424242"/>
</linearGradient>
</defs>
</svg>
