<svg width="44" height="44" viewBox="0 0 44 44" fill="none" xmlns="http://www.w3.org/2000/svg">
<circle cx="21.9998" cy="22" r="22" fill="white"/>
<path d="M27.4196 32C26.6272 31.9776 25.8492 31.7831 25.1396 31.43C22.4343 30.0904 19.9873 28.2829 17.9116 26.091C15.7089 24.035 13.9023 21.5922 12.5816 18.884L12.4816 18.645C11.7996 17.027 11.8376 15.688 12.5886 14.668C13.2456 13.58 15.0546 12 16.3946 12H16.4696H16.4996C17.0336 12.0636 17.5271 12.3166 17.8906 12.713C18.9348 13.7886 19.814 15.0128 20.4996 16.346C20.5603 16.6791 20.5507 17.0212 20.4713 17.3503C20.3919 17.6794 20.2445 17.9883 20.0386 18.257L19.9286 18.451C19.7286 18.82 19.6876 18.98 19.7536 19.165C20.201 20.3124 20.8808 21.355 21.7504 22.2271C22.62 23.0993 23.6605 23.7822 24.8066 24.233C24.8669 24.2561 24.931 24.2683 24.9956 24.269C25.2433 24.2358 25.4787 24.1413 25.6806 23.994L25.9286 23.853C26.3051 23.6076 26.7406 23.4677 27.1896 23.448C27.345 23.4494 27.4998 23.4668 27.6516 23.5C28.9844 24.1868 30.208 25.0674 31.2826 26.113C31.6883 26.4848 31.9435 26.9926 31.9996 27.54C32.0456 28.857 30.4436 30.778 29.3816 31.382C28.8101 31.7918 28.1227 32.0083 27.4196 32ZM16.3766 13.462H16.3896H16.3016C15.2828 13.8614 14.4105 14.5628 13.8016 15.472L13.7236 15.588C13.5299 16.021 13.4468 16.4952 13.4817 16.9682C13.5166 17.4412 13.6685 17.8982 13.9236 18.298L14.0236 18.542C15.3168 21.0305 17.0276 23.2785 19.0816 25.188C20.9955 27.1928 23.2424 28.8507 25.7226 30.088L25.9346 30.182C26.3903 30.3927 26.8838 30.5097 27.3856 30.526C27.8157 30.5322 28.2364 30.4001 28.5856 30.149L28.6356 30.117C29.0277 29.8108 29.3887 29.4668 29.7136 29.09C30.1279 28.6941 30.4133 28.1825 30.5326 27.622C30.4872 27.4304 30.3822 27.2581 30.2326 27.13C29.3415 26.3093 28.3764 25.5729 27.3496 24.93C27.3085 24.921 27.2666 24.9163 27.2246 24.916C26.9493 24.9543 26.6881 25.0608 26.4646 25.226L26.2186 25.364C25.8546 25.5901 25.4387 25.7192 25.0106 25.739C24.7591 25.7349 24.5103 25.6865 24.2756 25.596C22.9412 25.0699 21.7299 24.2737 20.7177 23.2574C19.7055 22.2411 18.9142 21.0266 18.3936 19.69C18.2719 19.3388 18.2397 18.9628 18.3002 18.5961C18.3606 18.2294 18.5116 17.8836 18.7396 17.59L18.8516 17.39C19.0626 17.008 19.1116 16.841 19.0716 16.644C18.4284 15.6168 17.692 14.6511 16.8716 13.759C16.7421 13.6102 16.5688 13.5062 16.3766 13.462Z" fill="#F3EB39"/>
</svg>
