<svg width="187" height="157" viewBox="0 0 187 157" fill="none" xmlns="http://www.w3.org/2000/svg">
<path d="M44.0487 60.8447H71.2175V75.6337H44.0487V60.8447ZM90.6446 127.579V129.969H42.0906V127.579H44.9522V90.1844H87.8101V127.579H90.6446ZM115.798 60.8447H142.936V75.6337H115.798V60.8447ZM118.046 90.1844H147.143V143.91H118.046V90.1844Z" fill="#EDEDED"/>
<path d="M172.305 19.3167H137.277L145.426 41.4248H145.457V47.522C145.455 48.8839 145.185 50.2323 144.662 51.4899C144.138 52.7476 143.372 53.8899 142.406 54.8515C141.44 55.8131 140.293 56.5752 139.032 57.0942C137.771 57.6132 136.42 57.8789 135.056 57.8761C133.691 57.8789 132.34 57.6132 131.079 57.0942C129.818 56.5752 128.671 55.8131 127.705 54.8515C126.739 53.8899 125.973 52.7476 125.449 51.4899C124.926 50.2323 124.656 48.8839 124.655 47.522C124.654 50.2678 123.561 52.901 121.616 54.8426C119.671 56.7842 117.034 57.8753 114.284 57.8761C112.92 57.8789 111.568 57.6132 110.307 57.0942C109.046 56.5752 107.9 55.8131 106.934 54.8515C105.968 53.8899 105.201 52.7476 104.678 51.4899C104.154 50.2323 103.884 48.8839 103.883 47.522C103.882 50.2678 102.789 52.901 100.844 54.8426C98.8997 56.7842 96.2624 57.8753 93.5121 57.8761C92.148 57.8789 90.7967 57.6132 89.5355 57.0942C88.2744 56.5752 87.128 55.8131 86.162 54.8515C85.196 53.8899 84.4294 52.7476 83.9059 51.4899C83.3824 50.2323 83.1123 48.8839 83.1112 47.522C83.1104 50.2678 82.0175 52.901 80.0727 54.8426C78.128 56.7842 75.4907 57.8753 72.7404 57.8761C71.3763 57.8789 70.025 57.6132 68.7638 57.0942C67.5026 56.5752 66.3563 55.8131 65.3903 54.8515C64.4243 53.8899 63.6577 52.7476 63.1342 51.4899C62.6107 50.2323 62.3406 48.8839 62.3394 47.522C62.3382 48.8839 62.0682 50.2323 61.5447 51.4899C61.0212 52.7476 60.2545 53.8899 59.2886 54.8515C58.3226 55.8131 57.1762 56.5752 55.915 57.0942C54.6539 57.6132 53.3026 57.8789 51.9385 57.8761C49.1927 57.8697 46.5617 56.7758 44.623 54.8346C42.6843 52.8933 41.5963 50.2634 41.5979 47.522V41.4248H41.5677L49.6903 19.3167H14.695L14.5771 0.328125H172.42L172.305 19.3167Z" fill="#F1B974"/>
<path d="M183.428 150.158C183.428 153.606 181.035 156.403 178.083 156.403H8.93245C5.98017 156.403 3.58691 153.606 3.58691 150.158C3.58691 146.71 5.98017 143.913 8.93245 143.913H178.083C181.035 143.913 183.428 146.707 183.428 150.158Z" fill="#93CDBE"/>
<path d="M44.9521 90.1844H87.8101V127.576H44.9521V90.1844Z" fill="#E0E1E0"/>
<path d="M75.2788 92.7788H83.9513V101.314H75.2788V92.7788ZM62.0373 92.7788H70.7129V101.314H62.0373V92.7788ZM48.7959 92.7788H57.4714V101.314H48.7959V92.7788ZM75.2788 104.608H83.9513V113.143H75.2788V104.608ZM62.0373 104.608H70.7129V113.143H62.0373V104.608ZM48.7959 104.608H57.4714V113.143H48.7959V104.608ZM75.2788 116.441H83.9513V124.976H75.2788V116.441ZM62.0373 116.441H70.7129V124.976H62.0373V116.441ZM48.7959 116.441H57.4714V124.976H48.7959V116.441Z" fill="#92B6CF"/>
<path d="M118.046 90.1844H147.143V143.91H118.046V90.1844Z" fill="#788D9A"/>
<path d="M119.814 91.9221H145.372V143.901H119.814V91.9221Z" fill="#DADDE1"/>
<path d="M123.125 120.695C124.157 120.695 124.993 119.86 124.993 118.83C124.993 117.8 124.157 116.966 123.125 116.966C122.094 116.966 121.258 117.8 121.258 118.83C121.258 119.86 122.094 120.695 123.125 120.695Z" fill="#788D9A"/>
<path d="M123.126 94.1788H142.063V115.186H123.126V94.1788Z" fill="#92B6CF"/>
<path d="M115.798 60.8447H142.936V75.6337H115.798V60.8447Z" fill="#E0E1E0"/>
<path d="M120.539 63.6115H138.198V72.8915H120.539V63.6115Z" fill="#92B6CF"/>
<path d="M44.0483 60.8447H71.2172V75.6337H44.0483V60.8447Z" fill="#E0E1E0"/>
<path d="M48.8018 63.6115H66.4611V72.8915H48.8018V63.6115Z" fill="#92B6CF"/>
<path d="M42.0906 127.579H90.6446V129.972H42.0906V127.579Z" fill="#C9C9C9"/>
<path d="M20.802 41.4249V47.5221C20.7948 50.2712 19.6957 52.9053 17.7458 54.8463C15.796 56.7874 13.1546 57.8771 10.401 57.8763C7.65078 57.8755 5.0134 56.7843 3.06868 54.8427C1.12396 52.9011 0.0310744 50.268 0.0302734 47.5221V41.4249H20.802Z" fill="#E15F5A"/>
<path d="M41.6008 41.4248V47.522C41.5936 50.2711 40.4945 52.9051 38.5446 54.8462C36.5947 56.7873 33.9533 57.8769 31.1998 57.8761C29.0929 57.8938 27.0318 57.2616 25.2983 56.0659C23.9158 55.1069 22.7852 53.8294 22.002 52.3416C21.2188 50.8539 20.8061 49.1997 20.7988 47.519V41.4218L41.6008 41.4248Z" fill="#EBC25D"/>
<path d="M62.3423 41.4249V47.5221C62.3411 48.8841 62.0711 50.2324 61.5476 51.4901C61.0241 52.7477 60.2575 53.89 59.2915 54.8516C58.3255 55.8133 57.1791 56.5754 55.918 57.0943C54.6568 57.6133 53.3055 57.879 51.9414 57.8763C49.1956 57.8699 46.5646 56.776 44.6259 54.8347C42.6872 52.8935 41.5992 50.2635 41.6008 47.5221V41.4249H62.3423Z" fill="#E15F5A"/>
<path d="M83.1082 41.4188V47.5161C83.1074 50.2619 82.0145 52.895 80.0697 54.8366C78.125 56.7782 75.4876 57.8694 72.7374 57.8702C71.3733 57.8729 70.022 57.6072 68.7608 57.0882C67.4996 56.5693 66.3533 55.8072 65.3873 54.8455C64.4213 53.8839 63.6547 52.7416 63.1312 51.484C62.6077 50.2263 62.3376 48.878 62.3364 47.5161V41.4188H83.1082Z" fill="#EBC25D"/>
<path d="M103.88 41.4188V47.5161C103.879 50.2619 102.786 52.895 100.841 54.8366C98.8967 56.7782 96.2594 57.8694 93.5091 57.8702C92.145 57.8729 90.7937 57.6072 89.5325 57.0882C88.2713 56.5693 87.125 55.8072 86.159 54.8455C85.193 53.8839 84.4264 52.7416 83.9029 51.484C83.3794 50.2263 83.1093 48.878 83.1082 47.5161V41.4188H103.88Z" fill="#E15F5A"/>
<path d="M124.648 41.4188V47.5161C124.648 50.2619 123.555 52.895 121.61 54.8366C119.665 56.7782 117.028 57.8694 114.278 57.8702C112.914 57.8729 111.562 57.6072 110.301 57.0882C109.04 56.5693 107.894 55.8072 106.928 54.8455C105.962 53.8839 105.195 52.7416 104.671 51.484C104.148 50.2263 103.878 48.878 103.877 47.5161V41.4188H124.648Z" fill="#EBC25D"/>
<path d="M145.456 41.4249V47.5221C145.455 48.8841 145.185 50.2324 144.662 51.4901C144.138 52.7477 143.372 53.89 142.406 54.8516C141.44 55.8133 140.293 56.5754 139.032 57.0943C137.771 57.6133 136.42 57.879 135.056 57.8763C133.691 57.879 132.34 57.6133 131.079 57.0943C129.818 56.5754 128.671 55.8133 127.705 54.8516C126.739 53.89 125.973 52.7477 125.449 51.4901C124.926 50.2324 124.656 48.8841 124.655 47.5221V41.4249H145.456Z" fill="#E15F5A"/>
<path d="M166.198 41.4249V47.5221C166.19 49.2028 165.777 50.8568 164.994 52.3445C164.211 53.8321 163.081 55.1097 161.698 56.0691C160.822 56.6514 159.858 57.119 158.834 57.4418C157.859 57.7407 156.844 57.8883 155.824 57.8793C153.074 57.8785 150.436 56.7873 148.492 54.8457C146.547 52.9041 145.454 50.271 145.453 47.5252V41.4279L166.198 41.4249Z" fill="#EBC25D"/>
<path d="M187 41.4249V47.5221C187 50.2758 185.904 52.9167 183.954 54.8639C182.004 56.811 179.359 57.9049 176.601 57.9049C173.843 57.9049 171.197 56.811 169.247 54.8639C167.297 52.9167 166.201 50.2758 166.201 47.5221V41.4249H187Z" fill="#E15F5A"/>
<path d="M32.2243 19.3169L28.163 27.1639L20.8019 41.425H0L14.6949 19.3169H32.2243Z" fill="#F26E62"/>
<path d="M49.6933 19.3169L41.5737 41.425H20.802L28.1631 27.1639L32.2243 19.3169H49.6933Z" fill="#FEDC7D"/>
<path d="M67.2224 19.3169L62.3422 41.425H41.5735L49.693 19.3169H67.2224Z" fill="#F26E62"/>
<path d="M84.7461 19.3198H67.2319L62.3396 41.4128H83.1143L84.7461 19.3198Z" fill="#FEDC7D"/>
<path d="M102.257 19.3198H84.746L83.1143 41.4128H103.889L102.257 19.3198Z" fill="#F26E62"/>
<path d="M119.768 19.3198H102.257L103.889 41.4128H124.66L119.768 19.3198Z" fill="#FEDC7D"/>
<path d="M145.429 41.425H124.658L119.747 19.3169H137.277L145.429 41.425Z" fill="#F26E62"/>
<path d="M166.198 41.425H145.429L137.277 19.3169H154.806L158.837 27.1338L166.198 41.425Z" fill="#FEDC7D"/>
<path d="M187 41.425H166.198L158.837 27.1338L154.806 19.3169H172.305L187 41.425Z" fill="#F26E62"/>
<path d="M166.198 47.5221C166.19 49.2027 165.777 50.8567 164.994 52.3444C164.211 53.8321 163.081 55.1096 161.699 56.0691C160.822 56.6513 159.858 57.119 158.834 57.4418C157.859 57.7407 156.844 57.8882 155.824 57.8792C153.074 57.8784 150.437 56.7873 148.492 54.8457C146.547 52.9041 145.454 50.2709 145.453 47.5251C145.452 48.887 145.182 50.2354 144.659 51.493C144.135 52.7507 143.369 53.893 142.403 54.8546C141.437 55.8162 140.29 56.5783 139.029 57.0973C137.768 57.6163 136.417 57.882 135.052 57.8792C133.688 57.882 132.337 57.6163 131.076 57.0973C129.815 56.5783 128.668 55.8162 127.702 54.8546C126.736 53.893 125.97 52.7507 125.446 51.493C124.923 50.2354 124.653 48.887 124.652 47.5251C124.651 50.2709 123.558 52.9041 121.613 54.8457C119.668 56.7873 117.031 57.8784 114.281 57.8792C112.917 57.882 111.565 57.6163 110.304 57.0973C109.043 56.5783 107.897 55.8162 106.931 54.8546C105.965 53.893 105.198 52.7507 104.675 51.493C104.151 50.2354 103.881 48.887 103.88 47.5251C103.879 50.2709 102.786 52.9041 100.841 54.8457C98.8967 56.7873 96.2593 57.8784 93.509 57.8792C92.1449 57.882 90.7936 57.6163 89.5325 57.0973C88.2713 56.5783 87.1249 55.8162 86.1589 54.8546C85.193 53.893 84.4263 52.7507 83.9028 51.493C83.3793 50.2354 83.1093 48.887 83.1081 47.5251C83.1073 50.2709 82.0144 52.9041 80.0697 54.8457C78.125 56.7873 75.4876 57.8784 72.7373 57.8792C71.3732 57.882 70.0219 57.6163 68.7607 57.0973C67.4995 56.5783 66.3532 55.8162 65.3872 54.8546C64.4212 53.893 63.6546 52.7507 63.1311 51.493C62.6076 50.2354 62.3375 48.887 62.3363 47.5251C62.3352 48.887 62.0651 50.2354 61.5416 51.493C61.0181 52.7507 60.2515 53.893 59.2855 54.8546C58.3195 55.8162 57.1731 56.5783 55.912 57.0973C54.6508 57.6163 53.2995 57.882 51.9354 57.8792C49.1896 57.8728 46.5586 56.7789 44.6199 54.8377C42.6812 52.8964 41.5932 50.2665 41.5948 47.5251C41.5876 50.2742 40.4885 52.9082 38.5387 54.8493C36.5888 56.7904 33.9474 57.88 31.1939 57.8792C29.0869 57.8969 27.0259 57.2647 25.2923 56.0691C23.9099 55.11 22.7792 53.8325 21.996 52.3448C21.2128 50.857 20.8001 49.2028 20.7929 47.5221C20.7929 51.7518 18.2214 55.3963 14.571 57.0013V143.919H118.046V90.1936H147.143V143.919H172.414V57.0013C170.57 56.1917 169.001 54.865 167.897 53.1823C166.794 51.4996 166.204 49.5333 166.198 47.5221ZM44.0546 60.8509H71.2234V75.6369H44.0546V60.8509ZM90.6504 129.978H42.0965V127.585H44.9581V90.1936H87.819V127.585H90.6535V129.978H90.6504ZM142.945 75.6399H115.807V60.8539H142.945V75.6399Z" fill="#EDEDED"/>
</svg>
