<svg width="188" height="164" viewBox="0 0 188 164" fill="none" xmlns="http://www.w3.org/2000/svg">
<path d="M38.2366 66.3667H86.0333V98.7128H38.2366V66.3667Z" fill="#85A2FF"/>
<path d="M79.6606 52.889H130.644V98.7127H79.6606V52.889Z" fill="#00B377"/>
<path d="M117.898 63.671H168.881V98.7126H117.898V63.671Z" fill="#3A69FF"/>
<path d="M95.5928 20.543H133.83V55.5846H95.5928V20.543Z" fill="#F2444E"/>
<path d="M124.271 25.9341H168.881V69.0622H124.271V25.9341Z" fill="#FFA54F"/>
<path d="M140.203 25.9341H152.949V34.0206H140.203V25.9341Z" fill="#F07F35"/>
<path d="M31.864 15.1519H82.8472V71.7575H31.864V15.1519Z" fill="#FFA54F"/>
<path d="M66.9148 24.5862C66.4923 24.5862 66.087 24.4442 65.7882 24.1915C65.4894 23.9387 65.3216 23.5959 65.3216 23.2385V9.76094C65.3216 7.97371 64.4823 6.25968 62.9884 4.99591C61.4944 3.73214 59.4682 3.02217 57.3555 3.02217C55.2427 3.02217 53.2165 3.73214 51.7226 4.99591C50.2286 6.25968 49.3893 7.97371 49.3893 9.76094V23.2385C49.3893 23.5959 49.2215 23.9387 48.9227 24.1915C48.6239 24.4442 48.2187 24.5862 47.7961 24.5862C47.3736 24.5862 46.9683 24.4442 46.6695 24.1915C46.3707 23.9387 46.2029 23.5959 46.2029 23.2385V9.76094C46.2029 7.25882 47.3779 4.85917 49.4694 3.0899C51.5609 1.32063 54.3976 0.32666 57.3555 0.32666C60.3133 0.32666 63.15 1.32063 65.2415 3.0899C67.333 4.85917 68.508 7.25882 68.508 9.76094V23.2385C68.508 23.5959 68.3402 23.9387 68.0414 24.1915C67.7426 24.4442 67.3374 24.5862 66.9148 24.5862Z" fill="#F07F35"/>
<path d="M76.4744 28.6295H114.712V58.2801H76.4744V28.6295Z" fill="#00D498"/>
<path d="M168.944 163.405C172.463 163.405 175.317 160.991 175.317 158.014C175.317 155.036 172.463 152.623 168.944 152.623C165.424 152.623 162.571 155.036 162.571 158.014C162.571 160.991 165.424 163.405 168.944 163.405Z" fill="#737069"/>
<path d="M28.7398 163.405C32.2595 163.405 35.1127 160.991 35.1127 158.014C35.1127 155.036 32.2595 152.623 28.7398 152.623C25.2202 152.623 22.3669 155.036 22.3669 158.014C22.3669 160.991 25.2202 163.405 28.7398 163.405Z" fill="#737069"/>
<path d="M178.503 144.536H27.6417L36.6522 116.588C36.7108 116.406 36.7234 116.215 36.6892 116.029L34.0285 101.408H175.317C175.739 101.408 176.144 101.266 176.443 101.013C176.742 100.761 176.91 100.418 176.91 100.06V43.4547C176.91 43.1186 176.761 42.7947 176.494 42.5464C176.226 42.2981 175.858 42.1435 175.462 42.1127L21.0633 30.1177L19.0383 18.9903C18.9588 18.6491 18.7266 18.3471 18.3901 18.1474C18.0537 17.9477 17.6389 17.8657 17.2327 17.9186C16.8264 17.9715 16.4601 18.1552 16.2101 18.4313C15.9602 18.7073 15.8461 19.0544 15.8916 19.4L33.488 116.155L24.0171 145.529C23.9526 145.729 23.9435 145.939 23.9904 146.142C24.0373 146.346 24.1391 146.537 24.2877 146.702C24.4363 146.867 24.6278 147 24.8473 147.092C25.0668 147.184 25.3084 147.232 25.5534 147.232H27.1466V158.014C27.1466 158.371 27.3144 158.714 27.6132 158.967C27.912 159.22 28.3173 159.362 28.7398 159.362C29.1624 159.362 29.5676 159.22 29.8664 158.967C30.1652 158.714 30.333 158.371 30.333 158.014V147.232H167.35V158.014C167.35 158.371 167.518 158.714 167.817 158.967C168.116 159.22 168.521 159.362 168.944 159.362C169.366 159.362 169.771 159.22 170.07 158.967C170.369 158.714 170.537 158.371 170.537 158.014V147.232H178.503C178.926 147.232 179.331 147.09 179.63 146.837C179.928 146.584 180.096 146.242 180.096 145.884C180.096 145.527 179.928 145.184 179.63 144.931C179.331 144.678 178.926 144.536 178.503 144.536ZM60.5099 72.9726L61.2858 79.3933L48.0879 79.0294L47.1643 72.487L60.5099 72.9726ZM46.7815 69.7754L45.859 63.2388L59.4078 63.8483L60.1825 70.2629L46.7815 69.7754ZM48.4699 81.7367L61.614 82.0992L62.3915 88.5317L49.3968 88.2908L48.4699 81.7367ZM50.8661 98.7127L49.7768 90.9944L62.7161 91.2343L63.6199 98.7127H50.8661ZM63.7282 73.0898L77.1113 73.5764L77.7291 79.8468L64.5026 79.4819L63.7282 73.0898ZM64.8272 82.1872L77.9936 82.5504L78.6122 88.8319L65.6011 88.5907L64.8272 82.1872ZM66.8231 98.7127L65.9265 91.2936L78.8774 91.5339L79.5848 98.7127H66.8231ZM81.1992 82.6407L94.3321 83.0029L94.8065 89.1352L81.8149 88.8943L81.1992 82.6407ZM82.7824 98.7127L82.081 91.5932L95.0156 91.8331L95.5478 98.7127H82.7824ZM173.723 98.7127H162.499L162.189 93.0787L173.723 93.2923V98.7127ZM173.723 90.5962L162.041 90.3798L161.737 84.8615L173.723 85.192V90.5962ZM173.723 82.4948L161.589 82.1602L161.285 76.6391L173.723 77.092V82.4948ZM173.723 74.3938L161.137 73.9359L160.833 68.4121L173.724 68.9923L173.723 74.3938ZM173.723 66.2931L160.684 65.7065L160.38 60.1864L173.724 60.894L173.723 66.2931ZM173.723 58.1928L160.232 57.4778L159.927 51.9456L173.723 52.7943V58.1928ZM173.723 44.6842V50.0924L159.778 49.2342L159.467 43.577L173.723 44.6842ZM159.308 98.7127H146.568L146.249 92.7825L158.995 93.0184L159.308 98.7127ZM158.847 90.3205L146.104 90.0847L145.8 84.4221L158.542 84.7735L158.847 90.3205ZM158.393 82.0719L145.655 81.7205L145.351 76.0599L158.088 76.5232L158.393 82.0719ZM157.94 73.8196L145.205 73.3563L144.901 67.6958L157.635 68.2686L157.94 73.8196ZM157.486 65.5623L144.756 64.9895L144.452 59.3421L157.181 60.0159L157.486 65.5623ZM157.032 57.3073L144.307 56.6334L144.003 50.9654L156.726 51.7485L157.032 57.3073ZM156.263 43.3274L156.577 49.0365L143.857 48.2537L143.538 42.3388L156.263 43.3274ZM143.378 98.7127H130.637L130.31 92.4874L143.056 92.7232L143.378 98.7127ZM142.912 90.025L130.169 89.7892L129.864 83.9824L142.606 84.3338L142.912 90.025ZM142.461 81.6326L129.722 81.2811L129.417 75.4797L142.155 75.943L142.461 81.6326ZM142.009 73.2401L129.274 72.7768L128.97 66.9784L141.704 67.5512L142.009 73.2401ZM141.557 64.8456L128.827 64.2728L128.524 58.4977L141.253 59.1716L141.557 64.8456ZM141.107 56.4639L128.381 55.7901L128.076 49.987L140.801 50.7697L141.107 56.4639ZM140.335 42.0905L140.654 48.0576L127.935 47.2749L127.611 41.1019L140.335 42.0905ZM127.448 98.7127H114.705L114.362 92.1919L127.117 92.4277L127.448 98.7127ZM126.976 89.7295L114.22 89.4937L113.907 83.5427L126.669 83.8948L126.976 89.7295ZM126.527 81.1919L113.765 80.8398L113.453 74.8978L126.223 75.3628L126.527 81.1919ZM126.079 72.6596L113.311 72.1956L112.999 66.2594L125.773 66.8342L126.079 72.6596ZM125.631 64.1279L112.857 63.5531L112.546 57.65L125.326 58.3272L125.631 64.1279ZM125.183 55.6189L112.404 54.9413L112.092 49.0018L124.877 49.7885L125.183 55.6189ZM124.407 40.8522L124.735 47.0772L111.949 46.2904L111.611 39.8579L124.407 40.8522ZM111.515 98.7127H98.7394L98.2116 91.8924L111.168 92.1326L111.515 98.7127ZM111.028 89.4337L98.0029 89.1925L97.5309 83.0902L110.712 83.4537L111.028 89.4337ZM110.571 80.7538L97.323 80.3886L96.8514 74.2961L110.257 74.7836L110.571 80.7538ZM110.115 72.0807L96.6423 71.5891L96.1715 65.5023L109.802 66.1155L110.115 72.0807ZM109.659 63.4113L95.9616 62.795L95.494 56.748L109.348 57.4822L109.659 63.4113ZM109.206 54.7738L95.2841 54.036L94.8125 47.9407L108.892 48.807L109.206 54.7738ZM108.409 39.6116L108.75 46.096L94.6026 45.2257L94.0824 38.4987L108.409 39.6116ZM94.123 80.2993L80.9327 79.9354L80.3177 73.6933L93.6494 74.1785L94.123 80.2993ZM93.4403 71.4715L80.0508 70.9843L79.4367 64.7493L92.9671 65.3581L93.4403 71.4715ZM92.7576 62.6484L79.1698 62.0372L78.56 55.848L92.2876 56.5755L92.7576 62.6484ZM92.0777 53.8661L78.2923 53.1353L77.6769 46.8865L91.6041 47.7433L92.0777 53.8661ZM90.8692 38.2487L91.3938 45.0279L77.4089 44.1677L76.7178 37.1493L90.8692 38.2487ZM76.8417 70.8701L63.4 70.3808L62.6285 63.9945L76.2247 64.6061L76.8417 70.8701ZM75.9563 61.894L62.3007 61.2788L61.5376 54.9467L75.3476 55.6789L75.9563 61.894ZM75.0764 52.9652L61.207 52.2286L60.4335 45.8248L74.4598 46.6877L75.0764 52.9652ZM73.4935 36.8993L74.1902 43.9699L60.1037 43.102L59.2202 35.7904L73.4935 36.8993ZM59.08 61.1346L45.4755 60.5224L44.5594 54.0471L58.3113 54.7759L59.08 61.1346ZM57.9831 52.0578L44.1774 51.326L43.2517 44.7688L57.2064 45.6273L57.9831 52.0578ZM55.9876 35.5377L56.8774 42.9035L42.8669 42.0413L41.7935 34.4352L55.9876 35.5377ZM21.5623 32.8634L38.5485 34.1832L39.6299 41.8421L23.0094 40.8199L21.5623 32.8634ZM23.5065 43.5528L40.0147 44.5683L40.9443 51.1545L24.734 50.2946L23.5065 43.5528ZM25.2287 53.0208L41.3283 53.8739L42.2444 60.3768L26.4352 59.6655L25.2287 53.0208ZM26.9319 62.3853L42.6296 63.0929L43.556 69.6574L28.1523 69.0968L26.9319 62.3853ZM28.6446 71.8118L43.9372 72.3681L44.8649 78.9384L29.867 78.5267L28.6446 71.8118ZM30.3573 81.2357L45.2456 81.6464L46.1749 88.2298L31.5801 87.9603L30.3573 81.2357ZM32.0721 90.6646L46.5565 90.9341L47.657 98.7127H33.5366L32.0721 90.6646Z" fill="#D6D7D2"/>
<path d="M86.0334 114.886V163.405H188V114.886H86.0334Z" fill="#56EBB4"/>
<path d="M168.881 120.277H105.152C105.152 123.136 103.809 125.879 101.419 127.901C99.0288 129.923 95.7869 131.059 92.4065 131.059V147.232C95.7869 147.232 99.0288 148.368 101.419 150.39C103.809 152.412 105.152 155.154 105.152 158.014H168.881C168.881 155.154 170.224 152.412 172.614 150.39C175.005 148.368 178.247 147.232 181.627 147.232V131.059C178.247 131.059 175.005 129.923 172.614 127.901C170.224 125.879 168.881 123.136 168.881 120.277Z" fill="#00D498"/>
<path d="M152.949 139.145C152.954 142.673 151.319 146.06 148.397 148.576C147.831 149.065 147.222 149.516 146.576 149.927C143.819 151.677 140.464 152.623 137.017 152.623C133.57 152.623 130.215 151.677 127.458 149.927C126.812 149.516 126.203 149.065 125.637 148.576C123.808 146.997 122.467 145.062 121.73 142.941C120.994 140.82 120.886 138.578 121.415 136.413C121.945 134.248 123.095 132.227 124.766 130.527C126.437 128.827 128.576 127.501 130.996 126.666C133.415 125.83 136.041 125.511 138.64 125.736C141.24 125.961 143.734 126.724 145.903 127.957C148.073 129.19 149.85 130.856 151.078 132.807C152.307 134.758 152.95 136.935 152.949 139.145Z" fill="#56EBB4"/>
<path d="M114.712 137.797H98.7795C98.357 137.797 97.9517 137.655 97.6529 137.403C97.3541 137.15 97.1863 136.807 97.1863 136.45C97.1863 136.092 97.3541 135.749 97.6529 135.497C97.9517 135.244 98.357 135.102 98.7795 135.102H114.712C115.134 135.102 115.54 135.244 115.838 135.497C116.137 135.749 116.305 136.092 116.305 136.45C116.305 136.807 116.137 137.15 115.838 137.403C115.54 137.655 115.134 137.797 114.712 137.797ZM114.712 143.188H98.7795C98.357 143.188 97.9517 143.046 97.6529 142.794C97.3541 142.541 97.1863 142.198 97.1863 141.841C97.1863 141.483 97.3541 141.14 97.6529 140.888C97.9517 140.635 98.357 140.493 98.7795 140.493H114.712C115.134 140.493 115.54 140.635 115.838 140.888C116.137 141.14 116.305 141.483 116.305 141.841C116.305 142.198 116.137 142.541 115.838 142.794C115.54 143.046 115.134 143.188 114.712 143.188ZM175.254 137.797H159.322C158.9 137.797 158.494 137.655 158.195 137.403C157.897 137.15 157.729 136.807 157.729 136.45C157.729 136.092 157.897 135.749 158.195 135.497C158.494 135.244 158.9 135.102 159.322 135.102H175.254C175.677 135.102 176.082 135.244 176.381 135.497C176.68 135.749 176.848 136.092 176.848 136.45C176.848 136.807 176.68 137.15 176.381 137.403C176.082 137.655 175.677 137.797 175.254 137.797ZM175.254 143.188H159.322C158.9 143.188 158.494 143.046 158.195 142.794C157.897 142.541 157.729 142.198 157.729 141.841C157.729 141.483 157.897 141.14 158.195 140.888C158.494 140.635 158.9 140.493 159.322 140.493H175.254C175.677 140.493 176.082 140.635 176.381 140.888C176.68 141.14 176.848 141.483 176.848 141.841C176.848 142.198 176.68 142.541 176.381 142.794C176.082 143.046 175.677 143.188 175.254 143.188Z" fill="#00B377"/>
<path d="M140.203 133.754C140.203 132.266 138.777 131.059 137.017 131.059C135.257 131.059 133.83 132.266 133.83 133.754V136.45C133.83 137.939 135.257 139.145 137.017 139.145C138.777 139.145 140.203 137.939 140.203 136.45V133.754Z" fill="#00B377"/>
<path d="M146.576 143.967V149.927C143.818 151.677 140.464 152.623 137.017 152.623C133.569 152.623 130.215 151.677 127.457 149.927V143.967C127.458 142.688 128.058 141.462 129.127 140.558C130.196 139.654 131.645 139.146 133.157 139.145H140.876C142.388 139.146 143.837 139.654 144.906 140.558C145.975 141.462 146.576 142.688 146.576 143.967Z" fill="#00B377"/>
<path d="M109.932 155.318H74.881C72.2413 155.318 70.1013 157.129 70.1013 159.362C70.1013 161.595 72.2413 163.405 74.881 163.405H109.932C112.572 163.405 114.712 161.595 114.712 159.362C114.712 157.129 112.572 155.318 109.932 155.318Z" fill="#F07F35"/>
<path d="M109.932 147.232H74.881C72.2413 147.232 70.1013 149.042 70.1013 151.275C70.1013 153.508 72.2413 155.318 74.881 155.318H109.932C112.572 155.318 114.712 153.508 114.712 151.275C114.712 149.042 112.572 147.232 109.932 147.232Z" fill="#F07F35"/>
<path d="M109.932 139.145H74.881C72.2413 139.145 70.1013 140.956 70.1013 143.189C70.1013 145.422 72.2413 147.232 74.881 147.232H109.932C112.572 147.232 114.712 145.422 114.712 143.189C114.712 140.956 112.572 139.145 109.932 139.145Z" fill="#F07F35"/>
<path d="M109.932 131.059H74.881C72.2413 131.059 70.1013 132.869 70.1013 135.102C70.1013 137.335 72.2413 139.145 74.881 139.145H109.932C112.572 139.145 114.712 137.335 114.712 135.102C114.712 132.869 112.572 131.059 109.932 131.059Z" fill="#F07F35"/>
<path d="M108.339 153.971H76.4741C75.5942 153.971 74.8809 154.574 74.8809 155.318C74.8809 156.063 75.5942 156.666 76.4741 156.666H108.339C109.219 156.666 109.932 156.063 109.932 155.318C109.932 154.574 109.219 153.971 108.339 153.971Z" fill="#E86D3C"/>
<path d="M108.339 137.798H76.4741C75.5942 137.798 74.8809 138.401 74.8809 139.145C74.8809 139.89 75.5942 140.493 76.4741 140.493H108.339C109.219 140.493 109.932 139.89 109.932 139.145C109.932 138.401 109.219 137.798 108.339 137.798Z" fill="#E86D3C"/>
<path d="M108.339 145.884H76.4741C75.5942 145.884 74.8809 146.488 74.8809 147.232C74.8809 147.976 75.5942 148.58 76.4741 148.58H108.339C109.219 148.58 109.932 147.976 109.932 147.232C109.932 146.488 109.219 145.884 108.339 145.884Z" fill="#E86D3C"/>
<path d="M66.9148 163.405C79.2336 163.405 89.2199 154.957 89.2199 144.537C89.2199 134.116 79.2336 125.668 66.9148 125.668C54.596 125.668 44.6096 134.116 44.6096 144.537C44.6096 154.957 54.596 163.405 66.9148 163.405Z" fill="#FFA54F"/>
<path d="M66.9149 158.014C75.7141 158.014 82.8472 151.98 82.8472 144.536C82.8472 137.093 75.7141 131.059 66.9149 131.059C58.1158 131.059 50.9827 137.093 50.9827 144.536C50.9827 151.98 58.1158 158.014 66.9149 158.014Z" fill="#FFC682"/>
<path d="M70.898 142.702C71.3206 142.702 71.7258 142.56 72.0246 142.308C72.3234 142.055 72.4912 141.712 72.4912 141.355V141.167C72.4894 140.152 72.101 139.164 71.3836 138.35C70.6662 137.536 69.6579 136.94 68.5082 136.649V135.102C68.5082 134.745 68.3403 134.402 68.0415 134.149C67.7427 133.896 67.3375 133.754 66.9149 133.754C66.4924 133.754 66.0871 133.896 65.7884 134.149C65.4896 134.402 65.3217 134.745 65.3217 135.102V136.649C64.172 136.94 63.1637 137.536 62.4463 138.35C61.7289 139.164 61.3405 140.152 61.3387 141.167C61.3353 142.034 61.6408 142.881 62.2153 143.599C62.7898 144.317 63.6067 144.871 64.5594 145.191L68.0872 146.384C68.4473 146.505 68.7561 146.715 68.9733 146.986C69.1905 147.258 69.306 147.578 69.3048 147.906C69.3048 148.442 69.053 148.956 68.6048 149.335C68.1566 149.714 67.5488 149.927 66.9149 149.927C66.2811 149.927 65.6732 149.714 65.2251 149.335C64.7769 148.956 64.5251 148.442 64.5251 147.906V147.232C64.5251 146.874 64.3572 146.532 64.0585 146.279C63.7597 146.026 63.3544 145.884 62.9319 145.884C62.5093 145.884 62.1041 146.026 61.8053 146.279C61.5065 146.532 61.3387 146.874 61.3387 147.232V147.906C61.3413 148.92 61.7301 149.907 62.4475 150.72C63.1648 151.534 64.1726 152.13 65.3217 152.421V153.971C65.3217 154.328 65.4896 154.671 65.7884 154.924C66.0871 155.176 66.4924 155.318 66.9149 155.318C67.3375 155.318 67.7427 155.176 68.0415 154.924C68.3403 154.671 68.5082 154.328 68.5082 153.971V152.424C69.658 152.133 70.6663 151.537 71.3837 150.723C72.1011 149.909 72.4895 148.921 72.4912 147.906C72.4946 147.039 72.1891 146.191 71.6145 145.474C71.04 144.756 70.2232 144.201 69.2705 143.882L65.7427 142.688C65.3826 142.567 65.0738 142.358 64.8566 142.086C64.6394 141.815 64.5239 141.495 64.5251 141.167C64.5251 140.631 64.7769 140.117 65.2251 139.737C65.6732 139.358 66.2811 139.145 66.9149 139.145C67.5488 139.145 68.1566 139.358 68.6048 139.737C69.053 140.117 69.3048 140.631 69.3048 141.167V141.355C69.3048 141.712 69.4726 142.055 69.7714 142.308C70.0702 142.56 70.4755 142.702 70.898 142.702Z" fill="#F07F35"/>
<path d="M14.8729 22.7105L21.1721 21.8908L19.6498 13.4966C19.4021 12.1303 18.6636 10.8615 17.5346 9.86226C16.4055 8.863 14.9406 8.18162 13.3383 7.9105L3.81156 6.29858C3.40122 6.22914 2.97872 6.22876 2.5682 6.29745C2.15768 6.36614 1.76718 6.50256 1.41898 6.69893C1.07079 6.89529 0.771732 7.14775 0.538883 7.44189C0.306035 7.73603 0.143958 8.06608 0.0619068 8.41321C-0.0201814 8.76033 -0.0206374 9.11773 0.0605644 9.46501C0.141766 9.81228 0.303036 10.1426 0.535164 10.4372C0.767292 10.7317 1.06573 10.9847 1.41344 11.1817C1.76115 11.3786 2.15133 11.5157 2.56168 11.5852L10.4569 12.9208C11.2559 13.0561 11.9864 13.3961 12.5493 13.8945C13.1122 14.393 13.4802 15.0259 13.6035 15.7073L14.8729 22.7105Z" fill="#737069"/>
</svg>
