<svg width="166" height="167" viewBox="0 0 166 167" fill="none" xmlns="http://www.w3.org/2000/svg">
<path d="M116.253 39.9628C116.019 39.7191 115.737 39.5253 115.426 39.3929C115.115 39.2605 114.78 39.1923 114.442 39.1924H51.556C51.2156 39.1924 50.8789 39.2615 50.566 39.3955C50.2532 39.5295 49.9707 39.7257 49.7359 39.9721C49.501 40.2185 49.3185 40.51 49.1995 40.829C49.0805 41.148 49.0275 41.4878 49.0436 41.8279L50.712 76.9891C50.7333 77.4386 50.8747 77.8742 51.1215 78.2505C51.3683 78.6268 51.7115 78.9299 52.1152 79.1283L110.952 108.052C111.297 108.222 111.677 108.31 112.061 108.31C112.712 108.31 113.338 108.058 113.807 107.606C114.276 107.154 114.551 106.538 114.575 105.887L116.955 41.8023C116.968 41.4642 116.912 41.1271 116.792 40.811C116.671 40.4949 116.488 40.2065 116.253 39.9628Z" fill="#EB5764"/>
<path opacity="0.1" d="M116.253 39.9628C116.019 39.7191 115.737 39.5253 115.426 39.3929C115.115 39.2605 114.78 39.1923 114.442 39.1924H51.556C51.2156 39.1924 50.8789 39.2615 50.566 39.3955C50.2532 39.5295 49.9707 39.7257 49.7359 39.9721C49.501 40.2185 49.3185 40.51 49.1995 40.829C49.0805 41.148 49.0275 41.4878 49.0436 41.8279L49.3662 48.6287C49.3662 48.6287 91.7234 44.756 91.8041 61.933L92.1656 98.8169L110.952 108.052C111.297 108.222 111.676 108.31 112.061 108.31C112.712 108.31 113.338 108.058 113.806 107.606C114.275 107.154 114.55 106.538 114.574 105.887L116.955 41.8023C116.968 41.4642 116.912 41.1271 116.792 40.811C116.671 40.4949 116.488 40.2064 116.253 39.9628Z" fill="black"/>
<path d="M83.026 31.5725L77.8294 12.1698C76.5812 7.50948 73.3582 3.70165 68.987 1.72297C64.7074 -0.214193 59.8447 -0.133749 55.6451 1.94322C48.7766 5.34104 33.1972 14.3911 32.5371 14.7745C28.9399 16.8657 27.7134 21.4949 29.803 25.0938C31.8929 28.6927 36.5205 29.9192 40.1203 27.8279C40.2752 27.7378 55.9016 18.6589 62.3344 15.4771C62.4009 15.4443 63.0947 15.3658 63.2526 16.0772L67.733 32.8061L83.026 31.5725Z" fill="#E2F2F6"/>
<path opacity="0.1" d="M62.446 13.1445C61.7385 11.3358 59.2881 12.0861 59.2236 12.1224C53.0537 15.5825 39.0176 23.3344 38.8626 23.4246C35.3967 25.438 30.9848 24.3692 28.7957 21.0752C28.7522 22.4388 29.069 23.8297 29.803 25.0938C31.8929 28.6928 36.5205 29.9192 40.1203 27.828C40.2753 27.7378 55.9016 18.6589 62.3344 15.4771C62.386 15.4515 62.8139 15.4035 63.0775 15.7149L62.446 13.1445ZM62.1908 1.7736C66.7201 3.82397 70.0599 7.76966 71.3535 12.5989L76.5747 32.0932L83.0264 31.5729L77.8298 12.1701C76.5816 7.50983 73.3585 3.70201 68.9874 1.72333C65.8276 0.29316 62.3503 -0.033809 59.0563 0.727172C60.1339 0.96863 61.1842 1.31925 62.1908 1.7736Z" fill="black"/>
<path d="M117.584 29.8735H48.4143C45.294 29.8735 42.7554 32.4134 42.7554 35.5352V41.8105C42.7554 42.141 42.8204 42.4682 42.9468 42.7735C43.0732 43.0788 43.2585 43.3563 43.4921 43.5899C43.7257 43.8236 44.0029 44.009 44.3081 44.1354C44.6133 44.2619 44.9403 44.327 45.2707 44.327H120.728C121.395 44.327 122.035 44.0619 122.507 43.5899C122.979 43.118 123.244 42.4779 123.244 41.8105V35.5352C123.243 32.4134 120.705 29.8735 117.584 29.8735Z" fill="#FFCD58"/>
<path d="M117.584 29.8735H92.4329C95.5535 29.8735 98.0918 32.4134 98.0918 35.5352V41.8105C98.0918 42.4779 97.8268 43.118 97.3551 43.5899C96.8833 44.0619 96.2436 44.327 95.5765 44.327H120.728C121.395 44.327 122.035 44.0619 122.506 43.5899C122.978 43.118 123.243 42.4779 123.243 41.8105V35.5352C123.243 32.4134 120.705 29.8735 117.584 29.8735ZM125.516 53.9421C125.327 53.6683 125.085 53.4349 124.805 53.2552C124.525 53.0755 124.212 52.9532 123.884 52.8953L114.93 51.3156C114.273 51.2001 113.598 51.3502 113.051 51.733C112.505 52.1159 112.133 52.7001 112.017 53.3572L107.089 81.3569C107.03 81.6871 107.039 82.0255 107.113 82.3524L111.99 103.766C112.117 104.322 112.428 104.818 112.874 105.174C113.319 105.529 113.872 105.723 114.442 105.723C114.458 105.723 114.474 105.723 114.49 105.723C115.068 105.712 115.625 105.502 116.066 105.129C116.508 104.755 116.807 104.241 116.914 103.673L125.919 55.8394C125.981 55.5122 125.977 55.176 125.908 54.8504C125.839 54.5247 125.706 54.216 125.516 53.9421Z" fill="#F2B841"/>
<path opacity="0.1" d="M125.516 53.9419C125.269 53.5851 124.932 53.312 124.549 53.1241L117.734 79.3959L111.4 56.8596L107.088 81.3567C107.03 81.6869 107.038 82.0253 107.113 82.3522L111.72 102.58L111.99 103.766C112.116 104.322 112.428 104.818 112.873 105.174C113.319 105.529 113.872 105.723 114.441 105.723C114.457 105.723 114.473 105.723 114.49 105.722C115.068 105.712 115.625 105.502 116.066 105.128C116.508 104.755 116.807 104.241 116.914 103.672L119.98 87.3871L125.919 55.8392C125.981 55.512 125.977 55.1758 125.908 54.8502C125.839 54.5245 125.706 54.2158 125.516 53.9419Z" fill="black"/>
<path d="M119.234 109.826L109.236 50.5304C109.181 50.2031 109.061 49.89 108.885 49.6091C108.708 49.3282 108.477 49.085 108.206 48.8936C107.935 48.7022 107.629 48.5663 107.305 48.4938C106.981 48.4213 106.646 48.4135 106.319 48.471L97.3649 50.0504C97.039 50.1077 96.7277 50.2288 96.4487 50.4068C96.1697 50.5848 95.9286 50.8161 95.7391 51.0875C95.5497 51.3589 95.4156 51.665 95.3446 51.9883C95.2737 52.3117 95.2672 52.6458 95.3256 52.9717L105.36 109.13C105.449 109.626 105.686 110.085 106.038 110.446C106.391 110.807 106.844 111.053 107.339 111.153L116.299 112.962C116.463 112.995 116.629 113.012 116.796 113.012H116.811C117.478 113.011 118.117 112.746 118.588 112.274C119.059 111.802 119.324 111.162 119.324 110.495C119.324 110.269 119.294 110.044 119.234 109.826ZM133.936 46.515H124.844C124.177 46.515 123.537 46.7801 123.065 47.2521C122.593 47.724 122.328 48.3641 122.328 49.0315V110.495C122.328 110.927 122.44 111.352 122.651 111.728C122.862 112.104 123.167 112.42 123.535 112.645C123.904 112.869 124.324 112.995 124.756 113.01C125.187 113.025 125.615 112.929 125.998 112.731L135.091 108.029C135.501 107.817 135.844 107.497 136.084 107.102C136.324 106.708 136.451 106.255 136.451 105.794V49.0315C136.451 48.7011 136.386 48.3738 136.26 48.0685C136.133 47.7632 135.948 47.4858 135.715 47.2521C135.481 47.0184 135.204 46.8331 134.899 46.7066C134.594 46.5801 134.267 46.515 133.936 46.515Z" fill="#E08726"/>
<path d="M105.008 93.5455L94.7342 56.1211C94.5585 55.48 94.1363 54.9346 93.5598 54.6041C92.9833 54.2735 92.2994 54.1848 91.6577 54.3572L82.8747 56.7115C82.5534 56.7976 82.2524 56.9466 81.9891 57.1498C81.7258 57.3531 81.5054 57.6067 81.3408 57.8958C81.1759 58.1847 81.07 58.5035 81.0292 58.8337C80.9884 59.1639 81.0136 59.4989 81.1031 59.8193L89.2734 89.0756C89.3633 89.3972 89.5162 89.6977 89.7233 89.9596C89.9303 90.2215 90.1874 90.4396 90.4795 90.6011L101.432 96.6562C101.804 96.8624 102.223 96.9705 102.648 96.9702C102.653 96.9702 102.659 96.9709 102.661 96.9702C102.991 96.9702 103.318 96.9052 103.624 96.7787C103.929 96.6523 104.206 96.4669 104.44 96.2332C104.673 95.9995 104.859 95.7221 104.985 95.4168C105.111 95.1115 105.176 94.7842 105.176 94.4537C105.176 94.1336 105.117 93.8274 105.008 93.5455Z" fill="#F2B841"/>
<path d="M92.2185 85.6095L79.2216 62.9665C79.0567 62.6797 78.837 62.4281 78.5749 62.2263C78.3128 62.0245 78.0135 61.8763 77.6941 61.7903C77.3747 61.7043 77.0415 61.6822 76.7136 61.7252C76.3856 61.7682 76.0694 61.8754 75.7829 62.0408L67.9083 66.5895C67.3324 66.922 66.9116 67.4693 66.7379 68.1114C66.5643 68.7536 66.6519 69.4385 66.9817 70.0162L74.37 82.9626C74.6544 83.4608 75.1004 83.8468 75.6341 84.0567L89.2318 89.404C89.5245 89.5195 89.8363 89.5787 90.151 89.5785H90.1805C90.8446 89.5741 91.4801 89.307 91.9481 88.8355C92.4162 88.3641 92.6789 87.7265 92.6789 87.062C92.6802 86.5417 92.5192 86.034 92.2185 85.6095Z" fill="#E08726"/>
<path opacity="0.1" d="M133.936 46.515H131.64C131.666 46.66 131.69 46.8066 131.694 46.9594L133.507 108.617C133.509 108.697 133.503 108.774 133.499 108.853L135.091 108.029C135.501 107.817 135.845 107.497 136.085 107.102C136.324 106.708 136.451 106.255 136.451 105.794V49.0315C136.451 48.7011 136.386 48.3738 136.26 48.0685C136.134 47.7632 135.948 47.4858 135.715 47.2521C135.481 47.0184 135.204 46.833 134.899 46.7066C134.594 46.5801 134.267 46.515 133.936 46.515Z" fill="black"/>
<path d="M150.611 55.7398L141.656 54.1604C141 54.0449 140.324 54.1945 139.778 54.5765C139.232 54.9586 138.86 55.5418 138.743 56.1982L129.253 109.583C129.156 110.131 129.243 110.696 129.501 111.189C129.759 111.682 130.172 112.076 130.678 112.309C131.183 112.542 131.751 112.6 132.293 112.476C132.835 112.351 133.321 112.05 133.674 111.62L145.573 97.1166C145.848 96.7818 146.031 96.3817 146.106 95.9551L152.651 58.653C152.766 57.996 152.616 57.3201 152.234 56.7738C151.851 56.2275 151.267 55.8556 150.611 55.7398Z" fill="#F2B841"/>
<path d="M164.143 63.5909L155.599 60.4795C155.282 60.3642 154.945 60.3138 154.608 60.3314C154.271 60.3491 153.941 60.4344 153.637 60.5823C153.334 60.7301 153.063 60.9375 152.842 61.1922C152.62 61.4468 152.452 61.7434 152.347 62.0644L143.564 89.0342C143.441 89.4119 143.41 89.8134 143.471 90.2059C143.533 90.5983 143.687 90.9705 143.92 91.292C144.154 91.6135 144.46 91.8752 144.814 92.0556C145.167 92.236 145.559 92.3301 145.956 92.3301H155.781C156.316 92.3301 156.837 92.1593 157.268 91.8425C157.7 91.5258 158.019 91.0796 158.18 90.5688L165.682 66.7104C165.876 66.0923 165.825 65.4229 165.538 64.8417C165.251 64.2606 164.752 63.8125 164.143 63.5909Z" fill="#E08726"/>
<path opacity="0.1" d="M164.289 63.6608L152.267 92.3303H155.781C156.316 92.3302 156.837 92.1594 157.269 91.8427C157.7 91.5259 158.02 91.0797 158.18 90.5689L165.682 66.7106C166.069 65.4786 165.455 64.1723 164.289 63.6608ZM150.611 55.7396L150.283 55.6818L138.136 106.182L145.573 97.1164C145.848 96.7816 146.031 96.3815 146.106 95.9548L152.651 58.6528C152.766 57.9958 152.616 57.3198 152.234 56.7735C151.851 56.2272 151.267 55.8553 150.611 55.7396ZM119.234 109.826L109.236 50.5305C109.181 50.2031 109.062 49.89 108.885 49.609C108.708 49.328 108.478 49.0848 108.207 48.8933C107.839 48.6335 107.409 48.4901 106.968 48.4525L114.986 112.697L116.299 112.962C116.463 112.995 116.629 113.011 116.796 113.011H116.811C117.478 113.011 118.117 112.745 118.588 112.274C119.059 111.802 119.324 111.162 119.324 110.495C119.324 110.269 119.294 110.044 119.234 109.826ZM105.008 93.5454L94.7343 56.121C94.4895 55.23 93.7931 54.5923 92.9598 54.3675C92.9747 54.4281 92.9977 54.4839 93.0091 54.5465L100.407 96.0888L101.432 96.6558C101.804 96.862 102.223 96.9701 102.648 96.9698C102.653 96.9698 102.659 96.9704 102.661 96.9698C102.991 96.9698 103.318 96.9048 103.624 96.7783C103.929 96.6519 104.206 96.4665 104.44 96.2328C104.673 95.9991 104.859 95.7217 104.985 95.4164C105.111 95.111 105.176 94.7838 105.176 94.4533C105.176 94.1335 105.117 93.8273 105.008 93.5454ZM92.2187 85.6092L79.4944 63.4412L88.0246 88.9286L89.232 89.4034C89.5246 89.519 89.8365 89.5782 90.1511 89.578H90.1806C90.8448 89.5735 91.4802 89.3064 91.9483 88.835C92.4164 88.3635 92.6791 87.726 92.6791 87.0615C92.6803 86.5413 92.5193 86.0336 92.2187 85.6092Z" fill="black"/>
<path d="M165.383 82.6419C165.147 82.3695 164.855 82.1511 164.527 82.0014C164.2 81.8517 163.843 81.7742 163.483 81.7742H145.86C145.28 81.7742 144.718 81.9748 144.268 82.342C143.819 82.7092 143.511 83.2205 143.395 83.7892C140.956 95.7946 130.283 104.509 118.017 104.509C116.108 104.509 114.205 104.3 112.342 103.886C111.789 103.763 111.211 103.831 110.701 104.077C110.191 104.324 109.779 104.735 109.531 105.245L81.6598 162.792C81.4742 163.175 81.389 163.6 81.4122 164.025C81.4354 164.451 81.5662 164.864 81.7924 165.225C82.0186 165.586 82.3328 165.884 82.7055 166.09C83.0782 166.297 83.4972 166.405 83.9232 166.405H152.111C152.716 166.405 153.301 166.187 153.758 165.79C154.216 165.393 154.515 164.845 154.601 164.245L165.973 84.6471C166.024 84.2901 165.998 83.9263 165.896 83.5803C165.794 83.2343 165.619 82.9143 165.383 82.6419Z" fill="#EB5764"/>
<path d="M135.065 122.739H102.177V150.514H135.065C139.586 150.514 143.264 146.834 143.264 142.312V130.941C143.263 126.418 139.586 122.739 135.065 122.739Z" fill="#8C9B9A"/>
<path opacity="0.1" d="M119.448 140.138C118.982 139.887 118.507 139.656 118.023 139.444C119.245 138.209 119.971 136.662 119.971 134.957C119.971 133.893 119.687 132.89 119.179 131.984C121.717 131.349 123.508 129.514 123.508 127.288V121.941C123.508 103.745 103.703 83.8828 78.3884 78.3568V166.405H152.111C152.716 166.405 153.301 166.187 153.759 165.79C154.216 165.393 154.515 164.845 154.601 164.245L161.353 116.986C151.711 129.684 136.675 138.416 119.448 140.138Z" fill="black"/>
<path opacity="0.5" d="M118.017 112.058C117.35 112.058 116.71 112.323 116.238 112.795C115.767 113.267 115.502 113.907 115.502 114.575C115.502 115.242 115.767 115.882 116.238 116.354C116.71 116.826 117.35 117.091 118.017 117.091C133.649 117.091 148.027 107.317 153.795 92.7684C153.917 92.4612 153.977 92.1331 153.973 91.8027C153.968 91.4723 153.898 91.1462 153.767 90.8428C153.636 90.5395 153.446 90.2649 153.209 90.0349C152.972 89.8048 152.692 89.6237 152.385 89.5019C151.096 88.9891 149.632 89.621 149.12 90.9129C144.105 103.56 131.606 112.058 118.017 112.058Z" fill="white"/>
<path d="M108.653 134.805H9.62002C8.95293 134.805 8.31315 135.07 7.84145 135.542C7.36974 136.014 7.10474 136.654 7.10474 137.322V152.745C7.10474 159.062 14.3834 166.405 23.7676 166.405H94.5052C103.889 166.405 111.168 159.062 111.168 152.745V137.322C111.168 136.654 110.903 136.014 110.431 135.542C109.96 135.071 109.32 134.805 108.653 134.805Z" fill="#9B5E26"/>
<path d="M101.579 119.067H16.6938C11.317 119.067 7.10474 122.46 7.10474 126.793C7.10474 131.126 11.3167 134.52 16.6938 134.52H101.579C106.956 134.52 111.168 131.126 111.168 126.793C111.168 122.46 106.956 119.067 101.579 119.067Z" fill="#FFCD58"/>
<path opacity="0.1" d="M111.012 154.36C111.055 154.12 111.09 153.88 111.116 153.638C111.122 153.573 111.131 153.507 111.136 153.442C111.155 153.209 111.168 152.976 111.168 152.745V137.322C111.168 137.186 111.152 137.055 111.128 136.926C111.111 136.824 111.087 136.723 111.058 136.624C110.753 135.576 109.798 134.806 108.653 134.806H77.0565V135.163H21.8401C16.1721 135.163 10.6964 137.274 7.10474 140.819V152.745C7.10474 153.885 7.34498 155.058 7.78884 156.216C8.37502 156.38 9.00012 156.47 9.66023 156.47H9.72928C13.9973 156.432 16.5826 154.323 18.6599 152.629C20.3588 151.244 21.3506 150.486 22.7369 150.547C24.2792 150.616 25.6024 151.558 27.2776 152.751C29.4628 154.307 32.1821 156.244 36.0973 156.244C40.1928 156.244 42.7632 154.193 44.8282 152.545C46.4976 151.212 47.5059 150.458 48.8381 150.445C49.8208 150.445 50.9228 151.278 52.318 152.334C54.4873 153.976 57.4581 156.226 61.9268 156.226C62.0565 156.226 62.1881 156.223 62.2841 156.221C62.4044 156.224 62.5354 156.229 62.6424 156.226C67.1101 156.225 70.0809 153.976 72.2503 152.335C73.6454 151.279 74.7477 150.445 75.7495 150.445H75.7499C75.9369 150.447 76.1169 150.468 76.2942 150.499C74.4455 155.536 69.4104 160.115 63.2879 160.115H10.13C13.1138 163.675 18.0478 166.405 23.7676 166.405H94.5052C102.756 166.405 109.377 160.728 110.857 155.063C110.862 155.041 110.867 155.018 110.872 154.996C110.926 154.786 110.972 154.573 111.012 154.36ZM101.579 119.067H16.6938C11.3916 119.067 7.23021 122.369 7.11576 126.616H76.4278C81.805 126.616 84.1303 130.009 84.1303 134.342C84.1303 134.403 84.1212 134.461 84.1196 134.52H101.579C106.956 134.52 111.168 131.126 111.168 126.793C111.168 122.46 106.956 119.067 101.579 119.067Z" fill="black"/>
<path d="M59.1364 73.3008C28.4958 73.3008 3.56763 91.1683 3.56763 113.13V118.744C3.56763 121.649 6.3371 123.926 9.87238 123.926H108.4C111.935 123.926 114.705 121.649 114.705 118.744V113.13C114.705 91.1683 89.777 73.3008 59.1364 73.3008Z" fill="#E08726"/>
<path d="M60.5505 97.7597C61.0569 97.7598 61.5515 97.6069 61.9696 97.3211C62.3877 97.0354 62.7099 96.63 62.894 96.1581C63.0781 95.6861 63.1155 95.1696 63.0013 94.676C62.8872 94.1824 62.6268 93.7348 62.2542 93.3917L59.4248 90.7863C58.9336 90.3362 58.2841 90.0994 57.6186 90.1278C56.9531 90.1562 56.3261 90.4475 55.875 90.9379C55.424 91.4282 55.1858 92.0776 55.2126 92.7434C55.2394 93.4093 55.5292 94.0373 56.0182 94.4897L58.8477 97.0951C59.3115 97.523 59.9195 97.7603 60.5505 97.7597ZM39.7363 92.7413L36.9069 95.3467C36.4285 95.8017 36.148 96.4267 36.126 97.0868C36.1039 97.7468 36.3421 98.3891 36.7891 98.875C37.2361 99.361 37.8562 99.6517 38.5155 99.6845C39.1748 99.7172 39.8205 99.4893 40.3134 99.0501L43.1429 96.4447C43.6213 95.9896 43.9018 95.3647 43.9238 94.7046C43.9458 94.0446 43.7076 93.4023 43.2606 92.9163C42.8136 92.4304 42.1936 92.1397 41.5343 92.1069C40.875 92.0742 40.2292 92.302 39.7363 92.7413ZM54.059 101.2H50.0572C49.3901 101.2 48.7503 101.465 48.2786 101.937C47.8069 102.409 47.5419 103.049 47.5419 103.717C47.5419 104.384 47.8069 105.024 48.2786 105.496C48.7503 105.968 49.3901 106.233 50.0572 106.233H54.059C54.7261 106.233 55.3659 105.968 55.8376 105.496C56.3093 105.024 56.5743 104.384 56.5743 103.717C56.5743 103.049 56.3093 102.409 55.8376 101.937C55.3659 101.465 54.7261 101.2 54.059 101.2ZM71.4575 106.87L74.287 104.266C74.53 104.042 74.7266 103.773 74.8655 103.473C75.0045 103.173 75.083 102.849 75.0967 102.519C75.1104 102.189 75.059 101.859 74.9454 101.549C74.8317 101.238 74.6581 100.954 74.4345 100.711C74.2109 100.467 73.9416 100.271 73.6419 100.131C73.3423 99.9924 73.0182 99.9138 72.6882 99.9C72.3582 99.8863 72.0287 99.9378 71.7186 100.051C71.4085 100.165 71.1237 100.339 70.8807 100.563L68.0513 103.167C67.8082 103.391 67.6116 103.661 67.4727 103.96C67.3338 104.26 67.2552 104.584 67.2415 104.914C67.2278 105.244 67.2792 105.574 67.3929 105.884C67.5065 106.195 67.6801 106.479 67.9038 106.722C68.139 106.979 68.4251 107.184 68.7439 107.324C69.0626 107.464 69.407 107.536 69.755 107.535C70.386 107.536 70.994 107.299 71.4575 106.87ZM81.6639 96.4567C82.331 96.4567 82.9708 96.1916 83.4425 95.7196C83.9142 95.2477 84.1792 94.6076 84.1792 93.9402C84.1792 93.2728 83.9142 92.6327 83.4425 92.1608C82.9708 91.6888 82.331 91.4237 81.6639 91.4237H77.6624C76.9953 91.4237 76.3555 91.6888 75.8838 92.1608C75.4121 92.6327 75.1471 93.2728 75.1471 93.9402C75.1471 94.6076 75.4121 95.2477 75.8838 95.7196C76.3555 96.1916 76.9953 96.4567 77.6624 96.4567H81.6639ZM93.6969 106.233C94.364 106.233 95.0038 105.968 95.4755 105.496C95.9472 105.024 96.2122 104.384 96.2122 103.716C96.2122 103.049 95.9472 102.409 95.4755 101.937C95.0038 101.465 94.364 101.2 93.6969 101.2H89.6951C89.028 101.2 88.3882 101.465 87.9165 101.937C87.4448 102.409 87.1798 103.049 87.1798 103.716C87.1798 104.384 87.4448 105.024 87.9165 105.496C88.3882 105.968 89.028 106.233 89.6951 106.233H93.6969ZM24.0185 100.711C23.5669 101.202 23.3287 101.852 23.3564 102.519C23.3841 103.185 23.6753 103.814 24.1661 104.266L26.9955 106.87C27.4592 107.298 28.0671 107.536 28.698 107.535C29.0461 107.536 29.3904 107.464 29.7092 107.324C30.0279 107.184 30.314 106.979 30.5493 106.722C31.0009 106.231 31.2391 105.581 31.2114 104.914C31.1837 104.247 30.8925 103.619 30.4017 103.167L27.5723 100.562C27.3292 100.339 27.0445 100.165 26.7344 100.051C26.4242 99.9376 26.0947 99.8862 25.7647 99.9C25.4347 99.9138 25.1107 99.9924 24.8111 100.132C24.5114 100.271 24.2421 100.467 24.0185 100.711Z" fill="#F2B841"/>
<path opacity="0.5" d="M59.1365 80.8501C38.6802 80.8501 19.8947 90.0776 13.4538 103.29C13.309 103.587 13.2241 103.909 13.2039 104.239C13.1837 104.569 13.2287 104.9 13.3363 105.212C13.4438 105.524 13.6118 105.813 13.8307 106.06C14.0496 106.308 14.315 106.51 14.6119 106.654C14.9546 106.822 15.3311 106.91 15.7126 106.91C16.1843 106.91 16.6465 106.778 17.0466 106.528C17.4466 106.278 17.7683 105.921 17.975 105.496C23.6047 93.948 40.5312 85.8831 59.1365 85.8831C59.8036 85.8831 60.4433 85.618 60.9151 85.146C61.3868 84.6741 61.6518 84.034 61.6518 83.3666C61.6518 82.6992 61.3868 82.0591 60.9151 81.5872C60.4433 81.1152 59.8036 80.8501 59.1365 80.8501Z" fill="white"/>
<path opacity="0.1" d="M59.1368 73.3008C56.5758 73.3008 54.056 73.4283 51.5861 73.6699C67.3726 79.9174 78.3928 93.8395 78.3928 109.985V115.598C78.3928 118.504 76.1288 120.78 73.2387 120.78H4.05664C5.00141 122.646 7.22166 123.926 9.87279 123.926H108.401C111.936 123.926 114.705 121.649 114.705 118.744V113.13C114.705 91.1683 89.7774 73.3008 59.1368 73.3008Z" fill="black"/>
<path d="M99.5855 129.501H18.6963C12.8999 129.501 7.2997 131.705 3.71514 135.396C1.23357 137.951 -0.0843766 141.057 0.00445919 144.142C0.117287 148.067 2.79533 150.808 6.51671 150.808H6.58577C10.8538 150.77 13.4391 148.661 15.5164 146.967C17.2153 145.582 18.207 144.824 19.5934 144.885C21.1357 144.954 22.4588 145.896 24.1341 147.09C26.3193 148.646 29.0385 150.583 32.9538 150.583C37.0493 150.583 39.6197 148.531 41.6847 146.883C43.3541 145.551 44.3624 144.796 45.6946 144.783C46.6773 144.783 47.7793 145.617 49.1744 146.673C51.3438 148.315 54.3146 150.564 58.7833 150.564C58.913 150.564 59.0446 150.561 59.1406 150.559C59.2609 150.562 59.3919 150.568 59.4988 150.564C63.9666 150.563 66.9374 148.315 69.1067 146.673C70.5018 145.617 71.6042 144.783 72.606 144.783H72.6063C73.9191 144.797 74.9277 145.551 76.5975 146.883C78.6624 148.531 81.2325 150.583 85.3283 150.583C89.2436 150.583 91.9631 148.646 94.1484 147.09C95.823 145.896 97.1461 144.954 98.6887 144.885C99.9603 144.823 100.907 145.571 102.496 146.933C104.516 148.663 107.029 150.817 111.309 150.817C111.476 150.817 111.647 150.813 111.82 150.806C115.703 150.65 118.211 147.897 118.211 143.795C118.211 135.78 110.03 129.501 99.5855 129.501Z" fill="#88BE4D"/>
<path opacity="0.1" d="M99.5853 129.501H82.76C86.4062 132.094 88.6585 135.818 88.6585 140.021C88.6585 144.123 86.15 146.875 82.2675 147.032C82.0944 147.039 81.9235 147.042 81.7565 147.042C77.4765 147.042 74.9635 144.888 72.9436 143.158C71.354 141.796 70.4076 141.048 69.136 141.111C67.5934 141.18 66.2703 142.122 64.5957 143.315C62.4104 144.871 59.6906 146.808 55.7756 146.808C51.6801 146.808 49.1097 144.757 47.0448 143.109C45.375 141.776 44.3667 141.022 43.0536 141.008H43.0533C42.0512 141.008 40.9491 141.843 39.554 142.899C37.3847 144.541 34.4139 146.789 29.9461 146.789C29.8391 146.793 29.7082 146.788 29.5879 146.785C29.4919 146.787 29.3599 146.789 29.2306 146.789C24.7619 146.789 21.7911 144.54 19.6217 142.898C18.2266 141.842 17.1246 141.008 16.1419 141.008C14.8097 141.022 13.801 141.776 12.132 143.109C10.067 144.757 7.49694 146.808 3.40109 146.808C2.30977 146.808 1.31409 146.654 0.394287 146.403C1.27259 149.078 3.5632 150.808 6.51683 150.808H6.58588C10.8539 150.77 13.4392 148.661 15.5165 146.967C17.2154 145.582 18.2072 144.824 19.5935 144.885C21.1358 144.954 22.459 145.896 24.1342 147.09C26.3194 148.646 29.0386 150.583 32.9539 150.583C37.0494 150.583 39.6198 148.531 41.6848 146.883C43.3542 145.551 44.3625 144.796 45.6947 144.783C46.6774 144.783 47.7794 145.617 49.1746 146.673C51.3439 148.315 54.3147 150.564 58.7834 150.564C58.9131 150.564 59.0447 150.561 59.1407 150.559C59.261 150.562 59.392 150.568 59.499 150.564C63.9667 150.563 66.9375 148.315 69.1068 146.673C70.502 145.617 71.6043 144.783 72.6061 144.783H72.6065C73.9192 144.797 74.9279 145.551 76.5976 146.883C78.6625 148.531 81.2326 150.583 85.3285 150.583C89.2437 150.583 91.9633 148.646 94.1485 147.09C95.8231 145.896 97.1462 144.954 98.6889 144.885C99.9604 144.823 100.907 145.571 102.496 146.933C104.516 148.663 107.029 150.817 111.309 150.817C111.476 150.817 111.647 150.813 111.82 150.806C115.703 150.65 118.211 147.897 118.211 143.795C118.211 135.78 110.029 129.501 99.5853 129.501Z" fill="black"/>
</svg>
