<svg width="183" height="170" viewBox="0 0 183 170" fill="none" xmlns="http://www.w3.org/2000/svg">
<path fill-rule="evenodd" clip-rule="evenodd" d="M105.164 51.4624L113.641 53.8207L130.816 58.599L135.458 41.8811C137.843 33.2941 132.774 24.3128 124.194 21.9257C115.611 19.5386 106.642 24.6085 104.253 33.1996L101.503 43.1137C101.503 49.1699 103.104 50.8913 105.164 51.4624Z" fill="#EB5468"/>
<path fill-rule="evenodd" clip-rule="evenodd" d="M128.168 39.8516L123.525 56.5694L130.815 58.599L135.458 41.8811C137.843 33.2941 132.774 24.3128 124.194 21.9257C122.965 21.5837 121.701 21.3879 120.426 21.3423C126.805 24.9004 130.204 32.5178 128.168 39.8516Z" fill="#E5384F"/>
<path fill-rule="evenodd" clip-rule="evenodd" d="M130.815 58.5992L123.525 56.5696L118.883 73.2875C117.639 77.7699 114.601 81.2951 110.759 83.3001C110.406 84.1674 109.977 85.0019 109.478 85.7939C109.205 86.232 108.909 86.6557 108.592 87.0635C116.403 88.0208 124.005 83.1192 126.173 75.3171L130.815 58.5992Z" fill="#DDDAEC"/>
<path fill-rule="evenodd" clip-rule="evenodd" d="M91.4952 38.7668C83.9258 38.7668 77.7932 44.9091 77.7932 52.4855C77.7932 57.8307 80.8432 62.4569 85.301 64.725C90.4033 67.0011 96.6714 66.9436 101.437 61.927C103.769 59.4702 105.201 56.1422 105.201 52.4855C105.201 52.1404 105.189 51.7993 105.164 51.4625C104.926 48.2413 103.58 45.3325 101.503 43.1139C99.003 40.439 95.444 38.7668 91.4952 38.7668Z" fill="#FFD772"/>
<path fill-rule="evenodd" clip-rule="evenodd" d="M95.7559 77.137L111.67 80.2966C113.173 72.7614 109.146 64.9962 101.757 62.0503L101.437 61.9271C99.832 61.3272 98.1859 60.9944 96.5564 60.9164C92.4392 60.711 88.4124 62.0997 85.3009 64.725C84.0406 65.7809 82.9365 67.0423 82.0334 68.4844L95.7559 77.137ZM109.478 85.7937L95.7395 78.9201L79.8456 73.9857C78.3515 81.5126 82.3783 89.2738 89.7589 92.2155C91.721 92.9961 93.7487 93.3699 95.7396 93.3699H95.7684C100.748 93.3659 105.517 91.0486 108.592 87.0633C108.909 86.6555 109.205 86.2318 109.478 85.7937Z" fill="#B1E4F9"/>
<path fill-rule="evenodd" clip-rule="evenodd" d="M94.8734 39.1901C98.0137 42.5509 102.045 54.8068 94.196 60.9738C94.976 60.8956 95.7642 60.8752 96.5564 60.9162C98.1861 60.9943 99.832 61.3271 101.437 61.9269C103.769 59.47 105.201 56.142 105.201 52.4853C105.201 52.1402 105.189 51.7992 105.164 51.4623C104.926 48.2412 103.58 45.3324 101.503 43.1138C99.7377 41.2279 97.4513 39.8433 94.8734 39.1901Z" fill="#FBBA58"/>
<path fill-rule="evenodd" clip-rule="evenodd" d="M109.478 85.7936L101.823 82.7409C101.67 83.2562 101.499 83.766 101.31 84.2693C99.9183 87.9999 97.6647 91.1553 94.8611 93.3452C95.1525 93.3616 95.4481 93.3698 95.7396 93.3698H95.7683C100.747 93.3658 105.517 91.0485 108.592 87.0632C108.909 86.6554 109.205 86.2317 109.478 85.7936ZM102.837 76.7753L111.67 80.2963C113.173 72.7612 109.146 64.996 101.757 62.0501L101.437 61.9269C100.418 61.5432 99.3635 61.2651 98.2886 61.0969C98.8424 61.8309 99.347 62.6008 99.7992 63.4018C101.737 66.8243 102.87 70.9822 102.87 75.4646C102.87 75.9043 102.861 76.3397 102.837 76.7753Z" fill="#75CEF8"/>
<path fill-rule="evenodd" clip-rule="evenodd" d="M111.67 80.2964L94.5819 73.4843L82.0334 68.4841C81.5066 69.3219 81.0573 70.2061 80.6911 71.126C80.3246 72.0519 80.0416 73.0089 79.8456 73.9855L98.0629 81.2454L109.479 85.7937C110.008 84.9526 110.459 84.0641 110.825 83.1395C111.191 82.2192 111.474 81.2676 111.67 80.2964Z" fill="#75CEF8"/>
<path fill-rule="evenodd" clip-rule="evenodd" d="M101.823 82.7411L109.478 85.7939C110.008 84.9528 110.459 84.0643 110.825 83.1397C111.191 82.2194 111.474 81.2678 111.67 80.2966L102.837 76.7755C102.734 78.8585 102.385 80.8634 101.823 82.7411Z" fill="#60B7FF"/>
<path d="M94.9924 52.2331H94.9636C94.6762 52.2331 94.4006 52.1186 94.1973 51.9147C93.9941 51.7108 93.88 51.4344 93.88 51.146C93.88 50.8577 93.9941 50.5812 94.1973 50.3774C94.4006 50.1735 94.6762 50.059 94.9636 50.059H94.9924C95.2798 50.059 95.5554 50.1735 95.7586 50.3774C95.9618 50.5812 96.076 50.8577 96.076 51.146C96.076 51.4344 95.9618 51.7108 95.7586 51.9147C95.5554 52.1186 95.2798 52.2331 94.9924 52.2331ZM91.9548 58.1452H91.9261C91.6387 58.1452 91.363 58.0307 91.1598 57.8268C90.9566 57.623 90.8424 57.3465 90.8424 57.0582C90.8424 56.7699 90.9566 56.4934 91.1598 56.2895C91.363 56.0856 91.6387 55.9711 91.9261 55.9711H91.9548C92.2422 55.9711 92.5178 56.0856 92.7211 56.2895C92.9243 56.4934 93.0385 56.7699 93.0385 57.0582C93.0385 57.3465 92.9243 57.623 92.7211 57.8268C92.5178 58.0307 92.2422 58.1452 91.9548 58.1452ZM86.1382 53.8066H86.1053C85.8179 53.8066 85.5422 53.692 85.339 53.4882C85.1358 53.2843 85.0216 53.0078 85.0216 52.7195C85.0216 52.4312 85.1358 52.1547 85.339 51.9509C85.5422 51.747 85.8179 51.6325 86.1053 51.6325H86.1382C86.4256 51.6325 86.7012 51.747 86.9045 51.9509C87.1077 52.1547 87.2219 52.4312 87.2219 52.7195C87.2219 53.0078 87.1077 53.2843 86.9045 53.4882C86.7012 53.692 86.4256 53.8066 86.1382 53.8066ZM90.1075 46.7441H90.0788C89.7914 46.7441 89.5158 46.6295 89.3125 46.4257C89.1093 46.2218 88.9951 45.9453 88.9951 45.657C88.9951 45.3687 89.1093 45.0922 89.3125 44.8883C89.5158 44.6845 89.7914 44.5699 90.0788 44.5699H90.1075C90.3949 44.5699 90.6706 44.6845 90.8738 44.8883C91.077 45.0922 91.1912 45.3687 91.1912 45.657C91.1912 45.9453 91.077 46.2218 90.8738 46.4257C90.6706 46.6295 90.3949 46.7441 90.1075 46.7441Z" fill="#FBBA58"/>
<path d="M116.815 121.924L126.339 112.599C124.642 110.045 122.947 107.488 121.406 104.866L111.046 115.259L99.4118 101.815C99.4118 101.815 80.2443 117.097 75.0226 129.064C71.8218 136.4 75.7608 149.741 77.3451 151.465C78.4742 152.698 90.6822 160.222 99.8266 157.99C110.874 155.298 127.718 134.524 127.718 134.524L116.815 121.924Z" fill="#514E59"/>
<path d="M157.766 48.6724C154.242 51.3049 149.923 56.716 147.98 61.7324C145.63 67.7976 146.6 73.0247 148.551 77.6357L118.83 107.418C122.71 108.11 124.181 110.364 125.9 112.953L155.427 84.1224C159.951 85.7225 166.364 86.2521 170.782 84.1224C175.317 81.9278 179.722 76.9978 182.78 72.9112C185.493 69.2893 162.271 45.2993 157.766 48.6724ZM164.734 76.8789C161.84 77.7763 158.203 76.7115 157.095 75.4411C156.058 74.252 154.7 70.8681 155.667 67.2733C156.637 63.6839 160.213 59.7162 160.213 59.7162L171.699 71.1385C171.698 71.1383 168.403 75.7384 164.734 76.8789Z" fill="#BF875E"/>
<path d="M110.143 114.215L99.4117 101.815C99.4117 101.815 80.2442 117.097 75.0226 129.065C72.2151 135.497 74.8987 146.541 76.6688 150.328C80.406 147.29 87.1715 142.165 91.8433 137.603C96.2109 133.338 97.0273 127.978 101.559 123.303C105.582 119.151 108.694 118.148 110.143 114.215ZM125.129 112.242C125.094 111.75 125.065 111.251 125.013 110.756L109.381 126.059C109.381 126.059 98.9401 131.97 99.2743 132.481C100.365 134.157 109.381 129.2 109.381 129.2L125.318 113.599C125.253 113.148 125.162 112.699 125.129 112.242Z" fill="#38363D"/>
<path d="M155.667 67.273C156.637 63.6836 160.213 59.7159 160.213 59.7159L170.27 69.7191C171.149 68.7514 171.698 67.9974 171.698 67.9974L160.212 56.5751C160.212 56.5751 156.637 60.5428 155.667 64.1322C155.263 65.6323 155.317 67.0565 155.532 68.3404C155.586 67.981 155.57 67.6378 155.667 67.273ZM182.926 71.7246C182.848 71.2811 182.689 70.7786 182.433 70.2055C179.391 74.2031 175.16 78.8625 170.782 80.9817C166.364 83.1116 159.951 82.5818 155.427 80.9817L124.693 111.05C125.108 111.696 125.555 112.867 125.296 113.645L155.427 84.1221C159.951 85.7221 166.364 86.2518 170.782 84.1221C175.317 81.9275 179.722 76.9974 182.78 72.9109C182.972 72.6568 183.017 72.2866 182.955 71.8378C182.95 71.8028 182.931 71.7596 182.926 71.7246Z" fill="#9B684F"/>
<path d="M62.562 91.948C62.4057 91.9289 62.2473 91.941 62.0956 91.9834C61.944 92.0258 61.8022 92.0978 61.6784 92.1953C61.5546 92.2928 61.4511 92.4138 61.3739 92.5514C61.2968 92.689 61.2474 92.8406 61.2287 92.9974C60.854 96.1041 58.3024 99.9928 58.277 100.031C58.1572 100.212 58.0885 100.423 58.0783 100.64C58.068 100.857 58.1165 101.073 58.2187 101.264C58.3209 101.456 58.4729 101.616 58.6586 101.728C58.8443 101.84 59.0568 101.9 59.2734 101.9C59.4711 101.9 59.6658 101.851 59.8401 101.758C60.0143 101.664 60.1627 101.529 60.2721 101.363C60.3898 101.185 63.1638 96.9646 63.6073 93.2864C63.6262 93.1297 63.6143 92.9707 63.572 92.8187C63.5297 92.6666 63.458 92.5243 63.361 92.4C63.2639 92.2758 63.1434 92.1719 63.0063 92.0943C62.8692 92.0167 62.7182 91.967 62.562 91.948Z" fill="#8EBAC5"/>
<path d="M40.7972 118.58L53.0065 115.861L57.859 137.824C57.8968 137.995 57.8654 138.174 57.7716 138.322C57.6778 138.47 57.5293 138.574 57.3588 138.612L52.8606 139.614C52.6901 139.652 52.5417 139.756 52.4479 139.904C52.3541 140.052 52.3227 140.231 52.3605 140.402L53.1443 143.95C53.163 144.035 53.1981 144.115 53.2477 144.186C53.2972 144.257 53.3603 144.317 53.4332 144.364C53.5061 144.411 53.5874 144.442 53.6726 144.457C53.7577 144.473 53.845 144.471 53.9294 144.452L58.4276 143.45C58.512 143.432 58.5993 143.43 58.6844 143.445C58.7696 143.46 58.8509 143.492 58.9238 143.538C58.9967 143.585 59.0598 143.645 59.1093 143.716C59.1589 143.788 59.194 143.868 59.2127 143.952L59.9965 147.5C60.0343 147.671 60.0029 147.85 59.9091 147.998C59.8153 148.146 59.6669 148.25 59.4964 148.288L54.9982 149.29C54.8277 149.328 54.6792 149.432 54.5854 149.58C54.4916 149.728 54.4602 149.907 54.4981 150.078L55.2818 153.626C55.3005 153.711 55.3356 153.791 55.3852 153.862C55.4348 153.933 55.4978 153.994 55.5707 154.04C55.6436 154.087 55.725 154.119 55.8101 154.134C55.8952 154.149 55.9825 154.147 56.0669 154.128L61.2077 152.983L63.4245 163.017C63.481 163.272 63.4344 163.54 63.2949 163.761L60.8618 167.622C60.7922 167.732 60.7016 167.828 60.5951 167.903C60.4886 167.978 60.3683 168.031 60.2412 168.059L56.2236 168.954C56.0965 168.982 55.9651 168.985 55.837 168.962C55.7088 168.939 55.5864 168.891 55.4769 168.821L51.646 166.355C51.4264 166.213 51.2715 165.991 51.2151 165.735L40.7972 118.58Z" fill="#FFC344"/>
<path d="M48.1871 116.934L53.1821 139.542L57.3589 138.612C57.5294 138.574 57.6779 138.47 57.7717 138.322C57.8654 138.174 57.8969 137.995 57.859 137.824L53.0066 115.861L48.1871 116.934ZM58.6056 164.09C58.6621 164.345 58.6156 164.613 58.4761 164.834L56.0429 168.694C55.9793 168.795 55.8983 168.883 55.8036 168.954C55.9422 168.984 56.0857 168.984 56.2242 168.954L60.2417 168.059C60.3688 168.031 60.4891 167.978 60.5956 167.902C60.7021 167.827 60.7927 167.732 60.8623 167.621L63.2955 163.761C63.435 163.54 63.4816 163.272 63.425 163.016L61.2083 152.983L56.3889 154.056L58.6056 164.09ZM55.3199 149.218L59.4968 148.288C59.6673 148.25 59.8157 148.146 59.9095 147.998C60.0033 147.85 60.0347 147.671 59.9969 147.5L59.2131 143.952C59.1944 143.868 59.1593 143.787 59.1097 143.716C59.0602 143.645 58.9971 143.585 58.9242 143.538C58.8513 143.491 58.77 143.46 58.6848 143.445C58.5997 143.43 58.5124 143.431 58.428 143.45L54.2512 144.38L55.3199 149.218Z" fill="#FEB237"/>
<path d="M41.4768 92.6636C30.8313 95.0338 24.1171 105.618 26.4778 116.303C28.8388 126.989 39.3808 133.729 50.0262 131.359C60.6701 128.989 67.3863 118.407 65.0252 107.72C62.6645 97.0356 52.1206 90.2939 41.4768 92.6636ZM45.6489 111.547C42.2776 112.298 38.9397 110.163 38.1919 106.779C37.4445 103.397 39.5702 100.044 42.9415 99.2936C46.3112 98.5434 49.6512 100.679 50.3986 104.061C51.1463 107.446 49.0186 110.797 45.6489 111.547Z" fill="#FEB237"/>
<path d="M29.638 116.206L41.9634 118.332L38.1681 140.503C38.1536 140.589 38.1223 140.671 38.0762 140.744C38.0301 140.817 37.97 140.881 37.8995 140.931C37.8289 140.981 37.7491 141.017 37.6648 141.036C37.5805 141.055 37.4932 141.057 37.408 141.043L32.8671 140.259C32.7819 140.245 32.6946 140.247 32.6103 140.266C32.526 140.285 32.4462 140.321 32.3756 140.371C32.305 140.421 32.245 140.485 32.1989 140.558C32.1528 140.631 32.1216 140.713 32.107 140.799L31.4939 144.38C31.4792 144.466 31.4815 144.553 31.5006 144.638C31.5196 144.723 31.5551 144.803 31.605 144.873C31.6549 144.944 31.7182 145.005 31.7913 145.051C31.8644 145.097 31.9459 145.129 32.0311 145.143L36.572 145.927C36.744 145.956 36.8973 146.053 36.998 146.196C37.0988 146.34 37.1387 146.517 37.1091 146.69L36.4961 150.271C36.4815 150.357 36.4502 150.438 36.4041 150.512C36.358 150.585 36.298 150.649 36.2274 150.699C36.1568 150.749 36.0771 150.784 35.9927 150.804C35.9084 150.823 35.8211 150.825 35.7359 150.81L31.1951 150.027C31.1099 150.013 31.0226 150.015 30.9382 150.034C30.8539 150.053 30.7742 150.089 30.7036 150.139C30.633 150.189 30.5729 150.252 30.5268 150.326C30.4807 150.399 30.4495 150.481 30.4349 150.567L29.8219 154.148C29.8072 154.234 29.8094 154.321 29.8285 154.406C29.8475 154.49 29.883 154.57 29.9329 154.641C29.9828 154.712 30.0461 154.772 30.1192 154.819C30.1923 154.865 30.2738 154.896 30.359 154.911L35.5487 155.806L33.8148 165.935C33.7706 166.193 33.6266 166.423 33.4141 166.575L29.7057 169.223C29.5997 169.299 29.4798 169.353 29.3529 169.382C29.226 169.411 29.0946 169.414 28.9663 169.392L24.9106 168.692C24.7823 168.67 24.6596 168.623 24.5496 168.553C24.4396 168.483 24.3445 168.392 24.2698 168.285L21.6546 164.547C21.5047 164.332 21.4454 164.067 21.4896 163.809L29.638 116.206Z" fill="#FFC344"/>
<path d="M37.0981 117.493L33.1913 140.316L37.4079 141.043C37.4932 141.058 37.5804 141.055 37.6648 141.036C37.7491 141.017 37.8288 140.981 37.8994 140.931C37.97 140.881 38.0301 140.818 38.0762 140.744C38.1223 140.671 38.1535 140.589 38.1681 140.504L41.9633 118.332L37.0981 117.493ZM28.9495 165.096C28.9053 165.354 28.7613 165.584 28.5487 165.736L24.8404 168.384C24.7438 168.452 24.6356 168.503 24.5211 168.533C24.638 168.614 24.7708 168.668 24.9105 168.693L28.9663 169.392C29.0946 169.414 29.2259 169.411 29.3528 169.382C29.4797 169.353 29.5997 169.299 29.7057 169.223L33.414 166.575C33.6266 166.423 33.7707 166.193 33.8148 165.935L35.5485 155.807L30.6832 154.968L28.9495 165.096ZM31.5193 150.084L35.7359 150.811C35.8211 150.826 35.9084 150.823 35.9927 150.804C36.077 150.785 36.1568 150.749 36.2274 150.699C36.298 150.649 36.358 150.586 36.4041 150.512C36.4502 150.439 36.4815 150.357 36.496 150.272L37.1091 146.69C37.1238 146.604 37.1215 146.517 37.1025 146.432C37.0834 146.348 37.0479 146.268 36.998 146.197C36.9482 146.126 36.8848 146.066 36.8117 146.019C36.7386 145.973 36.6571 145.942 36.5719 145.927L32.3553 145.2L31.5193 150.084Z" fill="#FEB237"/>
<path d="M40.0447 92.478C29.2975 90.6242 19.0897 97.8674 17.2434 108.654C15.3967 119.443 22.6105 129.69 33.3579 131.543C44.1035 133.397 54.3126 126.156 56.1592 115.367C58.0056 104.58 50.7903 94.3314 40.0447 92.478ZM36.7816 111.542C33.378 110.955 31.0939 107.71 31.6786 104.294C32.2633 100.879 35.4956 98.5841 38.8991 99.1712C42.3011 99.758 44.5865 103.004 44.0021 106.419C43.4171 109.836 40.1834 112.129 36.7816 111.542Z" fill="#FFD15B"/>
<path d="M44.5983 93.8418C42.7486 95.899 41.4788 98.0428 40.7296 99.7906C41.4775 100.181 42.1384 100.72 42.6719 101.375C43.338 99.5597 44.7533 97.14 46.8138 94.9835C46.1009 94.5549 45.3608 94.1735 44.5983 93.8418Z" fill="#FFD15B"/>
<path d="M40.0447 92.478C38.1181 92.1441 36.1527 92.0995 34.213 92.3455C34.5109 92.3831 34.8093 92.4265 35.1081 92.478C45.8538 94.3315 53.069 104.58 51.2225 115.367C49.7158 124.169 42.6422 130.609 34.2526 131.676C44.6646 132.99 54.3638 125.856 56.159 115.367C58.0055 104.58 50.7903 94.3314 40.0447 92.478Z" fill="#FFC344"/>
<path d="M63.6078 93.287C63.528 93.9461 62.929 94.4143 62.2741 94.3358C61.6176 94.2556 61.1496 93.6575 61.2278 92.9969C61.3572 91.9257 61.2023 91.1305 60.7662 90.6366C60.2599 90.0625 59.2935 89.7723 57.8974 89.7723C53.139 89.7723 49.5275 92.3186 47.336 94.4545C47.1587 94.6277 46.9846 94.8041 46.8137 94.9836C44.7531 97.1402 43.3379 99.5598 42.6718 101.375C42.5536 101.7 42.4578 102.007 42.3875 102.287C41.6384 105.292 42.9178 106.695 43.7931 107.279C43.5465 108.054 43.1503 108.772 42.6271 109.394C40.9052 108.321 39.0172 105.894 40.065 101.704C40.2024 101.154 40.4212 100.504 40.7295 99.7907C41.4786 98.0429 42.7485 95.8992 44.5982 93.8419C44.9352 93.4667 45.2914 93.0948 45.6668 92.7275C48.1762 90.2822 52.3356 87.3671 57.8974 87.3671C60.0091 87.3671 61.5776 87.9298 62.5584 89.041C63.4705 90.0737 63.8219 91.5024 63.6078 93.287Z" fill="#8EBAC5"/>
<path d="M10.9542 34.4635C11.1158 34.3888 11.2818 34.3174 11.4482 34.252C12.173 33.9649 12.9307 33.7698 13.7037 33.6714L13.9362 33.6417L13.7985 33.4515C13.3429 32.8193 12.9683 32.1322 12.6835 31.4063C12.3722 30.6163 12.1705 29.7872 12.0842 28.9421C10.2398 28.7938 8.43721 29.2248 7.0078 30.2138C6.89725 30.2903 6.81023 30.3963 6.75656 30.5198C6.70321 30.6431 6.68535 30.779 6.70501 30.912C6.95757 32.6331 7.87348 34.246 9.24118 35.4946C9.77336 35.0898 10.3477 34.7441 10.9542 34.4635Z" fill="#E62937"/>
<path d="M11.3336 40.2758C11.8793 38.9812 12.7507 37.9716 13.9407 37.2658C14.1494 37.1417 14.3699 37.026 14.5963 36.9213C15.7838 36.3723 17.2314 36.0801 18.8989 36.0536L19.1876 36.0489L19.0039 35.826C17.7413 34.2887 16.9709 32.7522 16.7157 31.2594C16.4867 29.9148 16.6802 28.6149 17.2895 27.3768C16.9283 27.1585 16.5529 26.9645 16.166 26.7961C15.0814 26.3239 13.9 26.0568 12.7501 26.022C12.6065 26.0179 12.4649 26.057 12.3435 26.1341C12.2222 26.2113 12.1265 26.323 12.0688 26.455C12.0458 26.5088 12.0292 26.5651 12.0193 26.6228C11.7518 28.2125 11.9366 29.8848 12.5548 31.4578C12.8434 32.1948 13.2236 32.8923 13.6863 33.5338C12.902 33.6336 12.1332 33.8315 11.3978 34.1231C9.82783 34.7441 8.48027 35.7492 7.50195 37.0304C7.39637 37.1684 7.34427 37.3402 7.35531 37.5138C7.36634 37.6875 7.43977 37.8512 7.56197 37.9746C8.37186 38.7926 9.37354 39.4744 10.4585 39.9466C10.7447 40.0704 11.0368 40.1803 11.3336 40.2758Z" fill="#B7092B"/>
<path d="M13.6007 41.8181C13.5585 41.7066 13.5582 41.5835 13.5998 41.4718C13.6411 41.3594 13.7214 41.2657 13.8259 41.2078C14.0577 41.0796 14.2941 40.9598 14.5345 40.8486C17.1924 39.6196 20.171 39.5019 22.9206 40.5169C23.2808 40.6498 23.6312 40.8016 23.9714 40.9693C24.3737 40.1175 25.0218 39.2951 25.865 38.5872C24.9165 37.882 24.171 37.0158 23.7401 36.0778C23.2685 35.0496 23.2017 34.0177 23.547 33.0927C23.6544 32.8045 23.7999 32.5322 23.9798 32.283C23.8321 31.7051 23.7739 31.0601 23.8223 30.3725L23.8335 30.2033L23.6659 30.2244C21.5996 30.4863 19.8515 29.7561 19.2125 28.3652C18.8677 27.6145 18.8781 26.7508 19.1963 25.8941L18.8603 25.6136C18.7715 25.5397 18.6571 25.5041 18.5422 25.5147C18.4273 25.5253 18.3212 25.5812 18.2473 25.6701C16.8008 27.4084 16.2396 29.2971 16.5779 31.2839C16.8385 32.8079 17.6165 34.3585 18.8961 35.9154C16.8825 35.9476 15.198 36.3582 13.8693 37.1466C12.1375 38.1742 11.0636 39.8267 10.6769 42.0552C10.6573 42.1693 10.6836 42.2864 10.75 42.381C10.8164 42.4756 10.9174 42.54 11.0311 42.5599L14.1793 43.1037C13.9589 42.6881 13.7656 42.2586 13.6006 41.818L13.6007 41.8181ZM46.7066 11.6588C47.0311 12.2539 47.2797 12.8877 47.4466 13.5451L47.5042 13.7729L47.6752 13.6125C48.1712 13.1496 48.723 12.7508 49.3177 12.4253C49.4824 12.3354 49.6501 12.2509 49.8204 12.172C50.522 11.8469 51.2673 11.6266 52.0326 11.5181C51.9887 9.85632 51.4245 8.29136 50.3913 7.13177C50.3138 7.04403 50.2131 6.98 50.1009 6.94702C49.9887 6.91403 49.8695 6.91342 49.7569 6.94527C48.0952 7.40898 46.6472 8.60353 45.7066 10.2176C46.0913 10.6601 46.4266 11.1433 46.7066 11.6588Z" fill="#E62937"/>
<path d="M53.5119 11.3374C53.463 11.323 53.4125 11.3148 53.3616 11.313C51.9623 11.2539 50.54 11.5971 49.2495 12.304C48.6446 12.6348 48.0835 13.0403 47.5792 13.5111C47.4097 12.8425 47.1569 12.1979 46.8268 11.5927C46.1234 10.3005 45.112 9.24272 43.9029 8.53527C43.8589 8.5095 43.812 8.48912 43.7632 8.47457C43.643 8.43936 43.5151 8.4411 43.3958 8.47956C43.2766 8.51801 43.1716 8.59142 43.0944 8.69031C42.4758 9.48073 41.995 10.4228 41.7033 11.4141C41.6369 11.6411 41.5801 11.8708 41.5329 12.1026C42.8181 12.3522 43.883 12.9664 44.709 13.9379C45.5595 14.9408 46.1531 16.3119 46.4723 18.0144L46.5253 18.2988L46.7136 18.0794C47.6822 16.9524 48.7054 16.1344 49.7564 15.6484C49.9298 15.5683 50.1063 15.4963 50.2812 15.434C51.3475 15.0541 52.4364 15.0142 53.5329 15.3085C53.5772 15.1815 53.6185 15.0534 53.6567 14.9244C53.9476 13.9328 54.0518 12.8803 53.9584 11.8802C53.9467 11.7553 53.8979 11.6368 53.8183 11.54C53.7387 11.4432 53.632 11.3727 53.5119 11.3374Z" fill="#B7092B"/>
<path d="M55.2903 15.9006C53.5884 14.9161 51.887 14.7145 50.2356 15.3027C48.9683 15.7545 47.7544 16.6553 46.609 17.9886C46.2847 16.2611 45.6853 14.8732 44.815 13.848C43.679 12.5112 42.1067 11.8339 40.1407 11.8345C40.0909 11.8344 40.0416 11.8441 39.9956 11.8631C39.9495 11.8822 39.9076 11.9101 39.8724 11.9454C39.8371 11.9807 39.8091 12.0226 39.79 12.0687C39.7709 12.1148 39.7611 12.1643 39.7611 12.2143L39.7565 16.6396C40.6607 16.9479 41.3591 17.5156 41.714 18.2881C41.815 18.508 41.8819 18.7382 41.924 18.9738C42.6929 19.0931 43.4911 19.5662 44.1597 20.3391L44.2686 20.4656L44.3726 20.3347C44.7995 19.8002 45.3082 19.3865 45.8444 19.1386C46.494 18.8382 47.1432 18.7956 47.722 19.0156C48.8257 19.4346 49.4635 20.7369 49.3469 22.3343L49.3345 22.501L49.5003 22.4826C50.2725 22.3968 50.9841 22.4941 51.5617 22.7438C51.9254 22.364 52.2422 21.9416 52.5053 21.4858L55.4291 16.4198C55.4791 16.3324 55.4925 16.2287 55.4665 16.1314C55.4405 16.0341 55.3771 15.9511 55.2903 15.9006Z" fill="#E62937"/>
<path d="M16.6463 52.3216C17.7504 50.8052 19.2225 49.5967 20.9228 48.8109C21.0558 48.7494 21.1901 48.6921 21.3249 48.6358C20.8991 48.5345 20.4796 48.4082 20.0686 48.2575C18.4722 47.6686 17.0346 46.7149 15.8698 45.4719C14.1737 46.4068 13.4614 48.5098 14.2827 50.2977C14.7559 51.3263 15.6376 52.0354 16.6463 52.3216ZM57.0936 31.8604C58.3471 31.4675 59.659 31.296 60.9709 31.3535C61.4486 30.4828 61.5225 29.405 61.0762 28.4336C60.4645 27.102 59.0648 26.3856 57.6866 26.5827C57.8893 28.3641 57.6866 30.1687 57.0936 31.8604Z" fill="#E0AA68"/>
<path d="M23.6826 30.3626C23.6312 31.0991 23.7024 31.8003 23.879 32.4288C24.2786 31.8093 24.8819 31.3041 25.6561 30.9461C26.646 30.4884 27.8466 30.3112 29.0926 30.4135C28.7425 27.9369 29.5765 25.6917 31.3672 24.8637C32.7083 24.2436 34.3034 24.5494 35.7121 25.53C35.5935 25.0651 35.6048 24.6022 35.7653 24.1783C35.9744 23.6271 36.4102 23.1854 37.0264 22.9005C37.6144 22.6286 38.328 22.5154 39.0899 22.574L39.258 22.5874L39.2385 22.4191C39.0614 20.8989 39.6093 19.6103 40.6338 19.1367L40.6594 19.1248C41.0955 18.9302 41.5803 18.8952 42.073 19.0006C42.0312 18.7354 41.9552 18.4764 41.8411 18.228C41.154 16.7323 39.3072 16.028 37.2434 16.2888C37.3921 14.1557 36.5383 12.3047 34.9517 11.7262C33.402 11.1606 31.5865 11.9683 30.302 13.6059C28.8946 12.0044 26.9739 11.3066 25.4332 12.019C23.9287 12.7146 23.2077 14.5613 23.4545 16.6164C21.3157 16.4841 19.4534 17.3487 18.8607 18.9351C18.2827 20.4843 19.0793 22.2887 20.7126 23.5577C19.0958 24.9724 18.3822 26.8923 19.0854 28.423C19.7725 29.9188 21.6188 30.6234 23.6826 30.3626Z" fill="#FFE2B8"/>
<path d="M29.418 27.0464C29.8052 26.0602 30.4644 25.2817 31.3676 24.864C32.2019 24.4783 33.1342 24.4513 34.059 24.7215C34.4337 23.7769 34.4384 22.6902 33.983 21.6988C33.0955 19.767 30.8007 18.9296 28.8568 19.8284C26.9128 20.7272 26.0561 23.0218 26.9435 24.9536C27.4353 26.0241 28.3604 26.7575 29.418 27.0464Z" fill="#E0AA68"/>
<path d="M29.4181 27.0464C29.7434 26.218 30.261 25.5367 30.9534 25.0927C30.449 24.7139 30.0467 24.2148 29.783 23.6407C29.1261 22.2106 29.4258 20.5832 30.4134 19.469C29.8754 19.4795 29.3454 19.6018 28.8568 19.8283C26.9129 20.7271 26.0561 23.0217 26.9436 24.9536C27.4353 26.024 28.3605 26.7575 29.4181 27.0464Z" fill="#B57A4E"/>
<path d="M37.0513 26.739L37.1615 26.8645L37.2642 26.7333C37.9676 25.8363 38.8089 25.1446 39.6984 24.7334C40.7326 24.2552 41.7686 24.1811 42.6934 24.5188C44.4903 25.1745 45.5348 27.2702 45.3547 29.8586L45.3427 30.0275L45.5103 30.0063C46.4483 29.8877 47.3704 29.9386 48.1766 30.1546L48.3112 30.1904L48.3466 30.0555C48.4437 29.6872 48.558 29.3236 48.6891 28.966C49.5023 26.761 50.9137 24.8903 52.7578 23.5299C52.1438 22.6191 50.8823 22.1884 49.4857 22.3443C49.603 20.7408 48.9653 19.3384 47.7719 18.8854C46.6058 18.4423 45.2372 19.0296 44.2652 20.248C43.2099 19.0268 41.7654 18.4808 40.6029 18.9997C39.468 19.5057 38.9205 20.8878 39.1008 22.437C37.4913 22.314 36.0858 22.9435 35.6358 24.1307C35.48 24.5416 35.4564 24.979 35.5427 25.4152C36.0708 25.7603 36.5808 26.2036 37.0511 26.7389L37.0513 26.739Z" fill="#FFA05F"/>
<path d="M56.402 41.013C54.6848 41.2994 52.925 41.1849 51.2592 40.6784L51.1023 40.6306L51.0162 40.6704L51.0894 40.8611C51.4434 41.7891 51.4675 42.7177 51.1583 43.5458C50.8127 44.4716 50.083 45.2137 49.0482 45.6922C48.0489 46.1542 46.8362 46.331 45.5779 46.2229L45.6341 46.3958C45.9318 48.8807 45.0309 50.992 43.3371 51.7752C41.5916 52.5822 39.36 51.8474 37.6524 49.903L37.558 49.7485C36.8405 50.7096 35.9601 51.4669 35.0086 51.9069L35.0081 51.9071C33.9733 52.3856 32.937 52.46 32.0108 52.1223C31.2533 51.846 30.6072 51.2974 30.1421 50.5357L30.0399 50.3691L29.9567 50.4076L29.8953 50.5545C29.2634 52.0711 28.3 53.4261 27.0763 54.5194C27.0456 54.5474 27.0158 54.5761 26.9844 54.6038L43.179 62.8217L46.8153 62.7824L46.8516 62.7016C47.086 62.1824 47.4986 61.7652 48.0138 61.527C48.529 61.2888 49.1133 61.245 49.659 61.4036L49.7438 61.4285L52.2731 58.5228L56.4383 41.0075C56.426 41.0095 56.4136 41.0111 56.402 41.013ZM52.8804 64.4907L51.1594 64.5098L51.1229 64.5901C50.8885 65.1098 50.4757 65.5265 49.9605 65.7647C49.4453 66.0029 48.8613 66.0471 48.3156 65.8887L48.2308 65.8638L47.2247 67.0195L48.4685 79.1227C48.509 79.5149 48.8344 79.7009 49.192 79.5356L61.0296 74.0623C61.3872 73.8969 61.4582 73.5276 61.1867 73.2422L52.8804 64.4907Z" fill="#FFE2B8"/>
<path d="M45.8544 61.5532L28.6271 52.8112C28.1476 53.4679 27.5964 54.0689 26.9839 54.6029L43.1794 62.8211L46.8164 62.7816L46.8678 62.6711L45.8544 61.5532ZM51.1768 77.8709L50.5501 71.7752L48.7817 65.9719C48.7922 65.9724 48.8023 65.9725 48.8123 65.9734C48.6446 65.9626 48.4785 65.934 48.3168 65.888L48.232 65.8632L47.2258 67.0189L48.4698 79.1226C48.5102 79.5148 48.8357 79.7008 49.1933 79.5355L51.9003 78.2838C51.5427 78.4492 51.2172 78.2631 51.1768 77.8709Z" fill="#FFC987"/>
<path d="M45.78 46.2399L45.6139 46.2291L45.6336 46.3954C45.9318 48.8802 45.0303 50.9918 43.3369 51.7748C41.5913 52.5819 39.3596 51.847 37.6514 49.9028L37.5411 49.7772L37.4384 49.9084C37.0989 50.3409 36.7274 50.7241 36.3343 51.0525L46.8667 62.672C47.1026 62.1666 47.5089 61.7611 48.014 61.527C48.5292 61.2888 49.1135 61.2451 49.6592 61.4037L49.6801 61.4101L47.7112 46.1164C47.1037 46.2368 46.4542 46.2814 45.7799 46.2397L45.78 46.2399ZM49.9608 65.765C49.5899 65.9365 49.1835 66.0058 48.7807 65.9729L52.4539 78.0285L57.6882 75.6083L50.9218 64.9487C50.6812 65.3032 50.349 65.5854 49.9608 65.765Z" fill="#E0AA68"/>
<path d="M54.1353 56.1737L49.5971 61.386C50.2485 61.5561 50.8203 62.0039 51.1216 62.6598C51.4229 63.3156 51.3906 64.0421 51.0966 64.6499L57.9943 64.5747C58.7814 64.5658 59.1562 63.9728 58.827 63.2561L55.6751 56.3949C55.3461 55.6787 54.653 55.5788 54.1352 56.1739L54.1353 56.1737ZM46.8533 64.6326C46.5523 63.9772 46.5844 63.2503 46.8786 62.643L39.9808 62.7182C39.1936 62.7265 38.8189 63.3201 39.1479 64.0363L42.2998 70.8976C42.6291 71.6143 43.3221 71.7137 43.84 71.1191L48.378 65.9069C47.7264 65.7362 47.1549 65.2891 46.8533 64.6326Z" fill="#E62937"/>
<path d="M44.973 69.6617L41.8207 62.7997C41.8048 62.7652 41.7924 62.7315 41.7795 62.6972L39.981 62.7172C39.1937 62.7255 38.8187 63.3187 39.148 64.0355L42.3003 70.8975C42.6294 71.6138 43.3227 71.7137 43.8404 71.1186L45.024 69.7598C45.0055 69.728 44.9884 69.6953 44.9729 69.6619L44.973 69.6617Z" fill="#CF043C"/>
<path d="M51.2474 62.6008C50.6779 61.3611 49.2043 60.823 47.9557 61.4003C46.7078 61.9773 46.1576 63.4511 46.7271 64.6909C47.2969 65.9313 48.7709 66.4685 50.0188 65.8914C51.2674 65.3141 51.8172 63.8411 51.2474 62.6008Z" fill="#B7092B"/>
<path d="M48.3373 63.9463C47.8975 62.9891 48.1275 61.8946 48.8286 61.1787C48.5267 61.1987 48.231 61.2739 47.956 61.4006C46.7075 61.9779 46.1576 63.451 46.7271 64.6908C47.297 65.9312 48.7704 66.4686 50.019 65.8914C50.3027 65.7602 50.5481 65.5808 50.754 65.37C49.7563 65.4404 48.7773 64.9041 48.3373 63.9463Z" fill="#7F051A"/>
<path d="M50.889 32.2567C50.9044 32.2903 50.9183 32.3245 50.9315 32.3586L51.0798 32.723L52.1879 29.7175C52.2289 29.606 52.2914 29.5037 52.3719 29.4166C52.4523 29.3294 52.5492 29.2591 52.6569 29.2097C52.876 29.1083 53.1212 29.0986 53.3477 29.1825C53.572 29.266 53.754 29.4353 53.8539 29.6532C53.9539 29.8712 53.9635 30.1201 53.8808 30.3452L52.4007 34.3586L52.6271 34.508C53.9339 33.2507 55.522 32.3258 57.2584 31.8109C58.3478 28.6139 58.0467 25.109 56.4181 22.1484C56.3387 22.0041 56.2102 21.8934 56.056 21.8364C55.9019 21.7794 55.7324 21.7801 55.5787 21.8382C53.971 22.4445 52.512 23.3906 51.3009 24.6123C50.0898 25.834 49.1549 27.3028 48.5596 28.9188C48.4099 29.324 48.2823 29.7371 48.1773 30.1562C49.4176 30.4875 50.4046 31.2026 50.8889 32.2568L50.889 32.2567Z" fill="#FF812C"/>
<path d="M50.5805 31.7245C50.6911 31.2543 50.8299 30.7913 50.9964 30.3381C52.088 27.3773 54.2888 24.9867 57.108 23.6484C56.9128 23.1362 56.6847 22.6346 56.4177 22.1483C56.3386 22.0038 56.2099 21.8931 56.0555 21.8367C55.9013 21.7796 55.7317 21.7801 55.5778 21.8383C53.9702 22.4447 52.5114 23.3909 51.3004 24.6125C50.0893 25.8342 49.1544 27.3028 48.559 28.9187C48.4096 29.324 48.282 29.737 48.1769 30.156C49.1957 30.4282 50.0423 30.9595 50.5805 31.7245Z" fill="#FF6700"/>
<path d="M49.0295 37.8838L48.9403 38.125L48.9761 38.1523C49.21 38.3338 49.4335 38.5286 49.6454 38.7357L49.7971 38.884L49.8719 38.6854C50.433 37.1945 51.3014 35.8392 52.4204 34.7079L54.0116 30.3934C54.059 30.2647 54.0808 30.128 54.0755 29.9909C54.0702 29.8538 54.0381 29.7192 53.981 29.5946C53.9238 29.47 53.8428 29.3579 53.7424 29.2647C53.6421 29.1716 53.5244 29.0991 53.3962 29.0516C53.2679 29.0041 53.1316 28.9823 52.9949 28.9876C52.8583 28.9929 52.724 29.0252 52.5998 29.0825C52.4756 29.1399 52.3638 29.2212 52.2709 29.3219C52.178 29.4226 52.1058 29.5406 52.0583 29.6693L51.002 32.5352C51.5957 34.206 50.8444 36.2649 49.0295 37.8838Z" fill="#72563C"/>
<path d="M65.2037 32.2246C62.1742 30.8484 58.6998 30.8619 55.6726 32.2616C54.2949 32.8979 53.0567 33.8021 52.0298 34.9219C51.003 36.0416 50.2078 37.3546 49.6904 38.7847C49.7104 38.8047 49.7322 38.8247 49.7524 38.8453L58.2543 34.9143C58.7063 34.7053 59.2431 34.9038 59.4514 35.3573C59.6595 35.8102 59.4615 36.3491 59.0095 36.5581L50.8473 40.332C50.8868 40.4077 50.9262 40.4841 50.9616 40.5612C50.9922 40.6278 51.0206 40.6949 51.0484 40.7618C53.7792 41.6381 56.7386 41.4555 59.3423 40.25C62.3693 38.8511 64.6365 36.2098 65.5619 33.0045C65.6062 32.8531 65.5942 32.6908 65.5283 32.5476C65.4643 32.4082 65.3517 32.2919 65.2037 32.2246Z" fill="#FFAF10"/>
<path d="M65.2037 32.225C64.7124 32.0032 64.206 31.8165 63.6884 31.6662C62.553 34.1974 60.5432 36.2314 58.0299 37.3929C57.1772 37.7863 56.2797 38.0731 55.3573 38.247L50.8476 40.3321C50.8873 40.4083 50.9265 40.4842 50.9619 40.5614C50.9928 40.6285 51.0212 40.6957 51.0489 40.7624C53.7798 41.6382 56.7389 41.4556 59.3427 40.2507C62.3694 38.8513 64.6367 36.2102 65.5622 33.0054C65.6061 32.8538 65.594 32.6914 65.5281 32.5481C65.4623 32.4047 65.3471 32.29 65.2037 32.225Z" fill="#F39600"/>
<path d="M58.1963 34.7878L49.6464 38.7408C50.1803 39.2635 50.6115 39.8436 50.9097 40.4562L59.0676 36.6844C59.3184 36.5685 59.513 36.3574 59.6086 36.0975C59.7043 35.8377 59.6931 35.5504 59.5775 35.2989C59.462 35.0474 59.2516 34.8523 58.9925 34.7564C58.7335 34.6606 58.4471 34.6719 58.1963 34.7878Z" fill="#72563C"/>
<path d="M21.1132 48.7281C23.2559 47.7864 25.6765 47.5518 27.955 48.0716L28.0339 47.8052L19.9703 44.8272C19.8546 44.7847 19.7483 44.7197 19.6578 44.6359C19.5672 44.552 19.4941 44.451 19.4426 44.3387C19.3378 44.1106 19.3277 43.8546 19.4141 43.619C19.4565 43.5028 19.5215 43.3961 19.6053 43.3053C19.6891 43.2144 19.7901 43.1411 19.9023 43.0896C20.1299 42.9843 20.3842 42.9739 20.619 43.0611L23.7299 44.21L23.6501 43.9427C23.3622 42.9847 23.5168 41.895 24.0405 40.8474C23.6924 40.6752 23.3354 40.5217 22.9711 40.3873C21.4758 39.8344 19.8794 39.6107 18.2901 39.7314C16.7009 39.8521 15.156 40.3143 13.7604 41.0868C13.6267 41.1607 13.524 41.2804 13.4712 41.4241C13.4181 41.5674 13.4184 41.725 13.4721 41.868C14.6053 44.8925 16.9917 47.2692 20.0205 48.3877C20.3807 48.5206 20.745 48.6337 21.1132 48.7281Z" fill="#FFAF10"/>
<path d="M21.1133 48.728C23.256 47.7864 25.6766 47.5518 27.9551 48.0716L28.034 47.8051L25.3948 46.8305C23.9705 46.8763 22.5507 46.6462 21.2134 46.1527C18.4931 45.149 16.2738 43.1155 15.0319 40.4887C14.5957 40.6608 14.171 40.8606 13.7601 41.0869C13.6265 41.1605 13.5239 41.2801 13.4712 41.4235C13.4182 41.5668 13.4185 41.7244 13.4721 41.8674C14.605 44.8927 16.9919 47.2691 20.0207 48.3876C20.3809 48.5205 20.7451 48.6336 21.1133 48.728Z" fill="#F39600"/>
<path d="M29.3482 46.7792L29.3597 46.6105L29.1921 46.6317C26.6982 46.947 24.5872 46.0641 23.8143 44.3816C23.7638 44.2716 23.7196 44.1583 23.6815 44.0442L20.6672 42.9304C20.3991 42.8313 20.1027 42.8431 19.8433 42.9632C19.5839 43.0834 19.3826 43.3019 19.2838 43.5708C19.185 43.8398 19.1967 44.137 19.3164 44.3972C19.4361 44.6574 19.6539 44.8592 19.922 44.9583L29.4138 48.4642C29.3328 47.9351 29.3071 47.3709 29.3482 46.7792Z" fill="#72563C"/>
<path d="M29.8737 50.0318C29.6405 49.5241 29.4831 48.9592 29.4002 48.3602C28.0268 47.8469 26.5656 47.6114 25.1009 47.6672C23.6362 47.7231 22.197 48.0691 20.8661 48.6854C17.9327 50.0417 15.7359 52.6006 14.8392 55.7064C14.7968 55.8532 14.8086 56.0104 14.8725 56.1491C14.9342 56.2836 15.0431 56.3972 15.1864 56.4622C18.1225 57.7958 21.4892 57.7823 24.4221 56.4263C27.0043 55.2343 29.0329 53.0949 30.0903 50.4484C30.0116 50.3132 29.9393 50.1742 29.8738 50.0319L29.8737 50.0318Z" fill="#FF812C"/>
<path d="M30.0256 50.3325L28.9515 50.8292C27.8758 52.1742 26.5033 53.2502 24.9422 53.9722C22.0086 55.3291 18.6422 55.3419 15.7063 54.0082C15.6455 53.9802 15.5897 53.9425 15.541 53.8966C15.2552 54.4783 15.0205 55.0839 14.8396 55.7065C14.7972 55.8533 14.809 56.0105 14.8728 56.1492C14.9346 56.2836 15.0435 56.3973 15.1868 56.4623C18.1228 57.7959 21.4895 57.7824 24.4223 56.4264C27.0044 55.2344 29.033 53.0951 30.0905 50.4487C30.0643 50.403 30.0389 50.3569 30.0142 50.3104C30.0181 50.3175 30.0217 50.3253 30.0257 50.3327L30.0256 50.3325Z" fill="#FF6700"/>
<path d="M29.8734 50.032C29.6257 49.4928 29.4649 48.8892 29.387 48.2492L21.0307 52.1127C20.9023 52.1721 20.7867 52.2563 20.6907 52.3604C20.5947 52.4645 20.52 52.5866 20.471 52.7197C20.4221 52.8528 20.3997 52.9942 20.4052 53.1359C20.4107 53.2777 20.444 53.4169 20.5032 53.5457C20.5623 53.6746 20.6462 53.7904 20.7501 53.8867C20.8539 53.983 20.9756 54.0579 21.1083 54.107C21.2409 54.156 21.382 54.1784 21.5233 54.1729C21.6646 54.1673 21.8034 54.1338 21.9319 54.0744L30.0252 50.3325C29.9712 50.2341 29.9206 50.1339 29.8734 50.032Z" fill="#72563C"/>
<path d="M31.4436 30.9328C32.0518 31.1548 32.6347 31.4412 33.1825 31.7871C33.4785 31.5981 33.7884 31.4254 34.1154 31.2742C34.5621 31.0676 35.019 30.9092 35.4793 30.7923C35.5767 30.2277 35.7266 29.6736 35.9271 29.1371C36.2557 28.2575 36.7094 27.4477 37.2502 26.7532C35.5526 24.7528 33.1948 23.8668 31.31 24.7382C29.4676 25.5901 28.6026 27.8782 28.9512 30.4047C29.7751 30.4579 30.6213 30.6327 31.4436 30.9328Z" fill="#E62937"/>
<path d="M31.4436 30.9326C31.7571 31.0472 32.064 31.179 32.363 31.3274C31.2703 28.7041 31.5186 25.9705 32.8554 24.4049C32.3217 24.4054 31.7997 24.5116 31.3101 24.7379C29.4676 25.5898 28.6031 27.8778 28.9512 30.4045C29.7751 30.4578 30.6214 30.6325 31.4436 30.9326Z" fill="#CF043C"/>
<path d="M45.3498 29.8871C45.2898 30.7083 45.1087 31.5525 44.8023 32.374C44.5745 32.9834 44.2829 33.5669 43.9324 34.1146C44.1196 34.4079 44.2908 34.7167 44.4401 35.0419C44.6443 35.4863 44.8002 35.9414 44.9147 36.3999C45.4796 36.4925 46.0346 36.6379 46.5725 36.8342C47.4519 37.1552 48.2593 37.6012 48.9517 38.135C50.9704 36.4278 51.876 34.0706 51.0158 32.1979C50.1746 30.3668 47.8862 29.5215 45.3499 29.887L45.3498 29.8871Z" fill="#E62937"/>
<path d="M42.7416 24.3875C40.2193 23.4671 37.1097 25.5721 35.7969 29.0891C35.5851 29.6534 35.4289 30.2371 35.3303 30.8318C38.6526 29.9163 42.218 31.298 44.0136 34.2438C44.3856 33.6722 44.6937 33.0612 44.9323 32.4219C46.245 28.905 45.2642 25.3077 42.7415 24.3875L42.7416 24.3875Z" fill="#B7092B"/>
<path d="M42.7412 24.3874C40.219 23.4671 37.1095 25.572 35.7968 29.0888C35.585 29.653 35.4288 30.2367 35.3303 30.8314C36.4404 30.5254 37.6042 30.4696 38.7382 30.668C39.9466 27.712 42.4343 25.8318 44.6899 26.047C44.2212 25.2734 43.5638 24.6874 42.7411 24.3874L42.7412 24.3874Z" fill="#7F051A"/>
<path d="M43.2598 45.7061C42.6517 45.4839 42.069 45.1974 41.5214 44.8515C41.2223 45.0429 40.9107 45.214 40.5888 45.3636C40.1415 45.5705 39.6849 45.7295 39.2245 45.8465C39.127 46.4109 38.9772 46.965 38.7769 47.5015C38.4483 48.381 37.9947 49.1903 37.4537 49.8854C39.1512 51.8859 41.5095 52.7716 43.3938 51.9004C45.2368 51.0483 46.1012 48.7598 45.7528 46.2338C44.9286 46.1801 44.0823 46.0054 43.2598 45.7061Z" fill="#E62937"/>
<path d="M38.9967 46.8279C38.9319 47.055 38.8586 47.2797 38.777 47.5013C38.4484 48.3809 37.9948 49.1901 37.4538 49.8853C39.1513 51.8858 41.5095 52.7712 43.3938 51.9C43.8697 51.6799 44.2791 51.3636 44.6203 50.9729C42.5468 50.9998 40.2818 49.3981 38.9967 46.8279Z" fill="#CF043C"/>
<path d="M46.6207 36.7036C46.0554 36.4967 45.4715 36.3453 44.8772 36.2515C45.7704 39.5569 44.3575 43.1219 41.3894 44.9333C41.9615 45.3012 42.5725 45.6041 43.2112 45.8366C46.7291 47.12 50.3449 46.116 51.2859 43.5938C52.2274 41.0719 50.1386 37.9869 46.6207 36.7036Z" fill="#B7092B"/>
<path d="M45.3243 43.2087C44.8201 43.0242 44.3326 42.7963 43.8675 42.5276C43.2306 43.5047 42.3842 44.3267 41.3901 44.9337C41.9623 45.3013 42.5733 45.6042 43.2119 45.8371C46.7296 47.1203 50.3451 46.1159 51.286 43.5939C51.348 43.4272 51.3973 43.256 51.4336 43.0819C49.8307 43.9146 47.5587 44.0237 45.3243 43.2087Z" fill="#7F051A"/>
<path d="M29.901 44.2641C30.1289 43.6546 30.4206 43.071 30.7713 42.5233C30.581 42.2261 30.4113 41.9162 30.2634 41.5957C30.0592 41.151 29.903 40.6968 29.789 40.238C29.224 40.1451 28.6689 39.9998 28.1308 39.804C27.252 39.4833 26.4439 39.037 25.7515 38.5032C23.7327 40.2103 22.8272 42.5677 23.6874 44.4403C24.5285 46.2713 26.8169 47.1167 29.3534 46.7511C29.4133 45.93 29.5946 45.0856 29.901 44.2641Z" fill="#E62937"/>
<path d="M27.6515 39.6116C26.9579 39.3131 26.3161 38.9379 25.7515 38.5031C23.7327 40.2102 22.8271 42.5675 23.6874 44.4403C24.4157 46.0258 26.229 46.8716 28.349 46.8328C27.4111 46.4329 26.6728 45.7824 26.2691 44.9037C25.5128 43.2572 26.1216 41.2366 27.6515 39.6116Z" fill="#CF043C"/>
<path d="M30.6894 42.3943C30.3176 42.966 30.0096 43.577 29.7709 44.2163C28.4582 47.7331 29.4391 51.3306 31.9616 52.2507C34.4845 53.1708 37.594 51.0658 38.9067 47.5488C39.1183 46.9845 39.2745 46.4008 39.3732 45.8061C36.0511 46.7216 32.4861 45.3395 30.6894 42.3943Z" fill="#B7092B"/>
<path d="M32.1353 44.1253C31.5706 43.6232 31.0834 43.0397 30.6897 42.394C30.3178 42.9657 30.0098 43.5767 29.7711 44.2159C28.4586 47.7335 29.4392 51.3305 31.9621 52.2511C33.3968 52.7742 35.0205 52.3181 36.3965 51.1811C35.8117 51.2533 35.2301 51.1976 34.6771 50.9958C32.4328 50.1768 31.4104 47.24 32.1353 44.1253Z" fill="#7F051A"/>
<path d="M33.3141 31.705C32.7419 31.3372 32.1307 31.0343 31.4918 30.8018C27.9738 29.5179 24.3586 30.5222 23.4173 33.0446C22.4757 35.5666 24.5645 38.6513 28.0824 39.9348C28.6478 40.1414 29.2318 40.2928 29.8262 40.3868C28.9327 37.0816 30.3459 33.5169 33.3141 31.705Z" fill="#B7092B"/>
<path d="M29.6732 37.0703C26.713 35.7858 24.9212 33.2035 25.3836 30.9277C24.4622 31.4063 23.761 32.1235 23.4173 33.0442C22.4756 35.5663 24.5649 38.6518 28.0826 39.9347C28.6481 40.1413 29.2321 40.2927 29.8266 40.3866C29.5343 39.3058 29.482 38.1737 29.6732 37.0703Z" fill="#7F051A"/>
<path d="M44.5673 34.9826C46.3864 38.9427 44.6303 43.6468 40.6458 45.4891C36.6609 47.3316 31.9553 45.6151 30.1362 41.6551C28.3172 37.6954 30.0728 32.9915 34.0583 31.1488C38.0428 29.3065 42.7484 31.0229 44.5673 34.9826Z" fill="#FF6666"/>
<path d="M32.9377 40.3597C31.3377 36.8766 32.5049 32.8178 35.5221 30.6371C35.019 30.76 34.5289 30.9312 34.0585 31.1483C30.0735 32.9908 28.3173 37.6951 30.1363 41.6549C31.9555 45.6151 36.6607 47.3319 40.6463 45.4891C41.1254 45.2675 41.5722 45.0035 41.9845 44.705C38.3719 45.5896 34.538 43.8432 32.9377 40.3597Z" fill="#FE3745"/>
<path d="M40.3028 36.9544C39.5587 35.3347 37.6346 34.6325 36.0043 35.3862C34.3746 36.1398 33.6564 38.0637 34.4004 39.6835C35.1445 41.3032 37.0692 42.0056 38.6989 41.2521C40.3292 40.4983 41.0466 38.5741 40.3026 36.9545L40.3028 36.9544Z" fill="#B7092B"/>
<path d="M36.6829 38.6281C36.1238 37.4109 36.3911 36.0212 37.2508 35.0859C36.8197 35.1028 36.3962 35.2049 36.0047 35.3866C34.3749 36.1401 33.6565 38.0637 34.4005 39.6834C35.1447 41.3036 37.0693 42.0056 38.6991 41.252C39.1039 41.0648 39.4525 40.8056 39.7362 40.4965C38.4685 40.5447 37.2423 39.8462 36.6828 38.6281L36.6829 38.6281Z" fill="#7F051A"/>
</svg>
