<svg width="51" height="50" viewBox="0 0 51 50" fill="none" xmlns="http://www.w3.org/2000/svg">
<ellipse cx="25.8377" cy="25" rx="24.9739" ry="25" fill="white"/>
<rect x="13.85" y="13" width="23.975" height="24" rx="5" fill="#35AAF3"/>
<g clip-path="url(#clip0_209_2224)">
<path d="M31.8316 21.2792C31.3858 21.475 30.9108 21.6047 30.4156 21.6677C30.925 21.3632 31.3139 20.8847 31.4967 20.308C31.0217 20.5915 30.4972 20.7918 29.9383 20.9035C29.4873 20.4228 28.8445 20.125 28.1432 20.125C26.7826 20.125 25.6873 21.2305 25.6873 22.5857C25.6873 22.7807 25.7038 22.9682 25.7442 23.1467C23.7011 23.047 21.8932 22.0667 20.6787 20.5735C20.4667 20.9417 20.3423 21.3632 20.3423 21.817C20.3423 22.669 20.7806 23.4242 21.434 23.8615C21.0391 23.854 20.6518 23.7392 20.3236 23.5585C20.3236 23.566 20.3236 23.5757 20.3236 23.5855C20.3236 24.781 21.1755 25.774 22.2926 26.0027C22.0925 26.0575 21.8745 26.0837 21.6482 26.0837C21.4909 26.0837 21.3321 26.0747 21.183 26.0417C21.5014 27.016 22.4049 27.7322 23.4793 27.7555C22.6432 28.4102 21.5816 28.8047 20.4323 28.8047C20.2307 28.8047 20.0374 28.7957 19.8441 28.771C20.9327 29.4737 22.2229 29.875 23.6142 29.875C28.1365 29.875 30.6089 26.125 30.6089 22.8745C30.6089 22.7657 30.6051 22.6607 30.5999 22.5565C31.0876 22.21 31.4975 21.7772 31.8316 21.2792Z" fill="#141414"/>
</g>
<defs>
<clipPath id="clip0_209_2224">
<rect width="11.9875" height="12" fill="white" transform="translate(19.8441 19)"/>
</clipPath>
</defs>
</svg>
