<svg width="632" height="525" viewBox="0 0 632 525" fill="none" xmlns="http://www.w3.org/2000/svg">
<path d="M426.463 291.827H619.525C619.525 295.236 618.21 298.512 615.854 300.976C613.498 303.439 610.284 304.899 606.879 305.053C586.132 305.985 554.202 309.279 544.078 320.753C525.212 342.158 527.044 417.316 549.638 434.736C556.725 440.199 577.39 451.03 577.39 451.03H468.614C468.614 451.03 487.898 439.974 494.615 434.736C517.113 417.187 517.756 342.061 498.793 320.753C489.071 309.825 459.149 306.29 439.078 305.181C435.667 304.988 432.46 303.497 430.114 301.014C427.768 298.53 426.462 295.243 426.463 291.827Z" fill="#F5F5F5"/>
<path d="M595.614 305.76C576.009 307.367 552.499 311.208 544.078 320.753C541.325 324.048 539.151 327.786 537.65 331.809H505.269C503.754 327.793 501.582 324.057 498.842 320.753C490.389 311.256 466.702 307.351 447.418 305.76H595.614Z" fill="#E6E6E6"/>
<path d="M508.708 291.924L511.327 261.905H473.274L470.655 291.924H508.708Z" fill="#EBEBEB"/>
<path d="M508.708 291.924L511.328 261.905H513.385L510.749 291.924H508.708Z" fill="#E0E0E0"/>
<path d="M505.092 288.854L507.181 264.975H476.89L474.801 288.854H505.092Z" fill="#F0F0F0"/>
<path d="M502.779 286.894L504.514 266.935H479.205L477.469 286.894H502.779Z" fill="#FAFAFA"/>
<path d="M521.05 291.827H559.28L555.038 243.345H516.808L521.05 291.827Z" fill="#E6E6E6"/>
<path d="M521.05 291.827H519.234L514.991 243.345H516.807L521.05 291.827Z" fill="#E0E0E0"/>
<path d="M524.521 286.878H554.957L551.582 248.294H521.146L524.521 286.878Z" fill="#F0F0F0"/>
<path d="M526.738 283.712H552.177L549.348 251.46H523.926L526.738 283.712Z" fill="#FAFAFA"/>
<path d="M539.594 265.971C538.761 266.797 537.634 267.261 536.461 267.261C535.287 267.261 534.161 266.797 533.327 265.971C532.502 265.14 532.039 264.017 532.039 262.845C532.039 261.674 532.502 260.551 533.327 259.72C533.738 259.307 534.226 258.979 534.764 258.755C535.302 258.532 535.878 258.417 536.461 258.417C537.043 258.417 537.62 258.532 538.158 258.755C538.695 258.979 539.184 259.307 539.594 259.72C540.42 260.551 540.883 261.674 540.883 262.845C540.883 264.017 540.42 265.14 539.594 265.971Z" fill="#EBEBEB"/>
<path d="M537.714 271.386C538.014 271.083 538.37 270.842 538.763 270.677C539.156 270.512 539.578 270.428 540.004 270.428C540.431 270.428 540.853 270.512 541.246 270.677C541.639 270.842 541.995 271.083 542.294 271.386C542.759 271.834 543.078 272.411 543.21 273.043C543.342 273.674 543.281 274.331 543.035 274.927C542.789 275.524 542.369 276.032 541.83 276.387C541.291 276.741 540.658 276.925 540.013 276.914C539.366 276.928 538.73 276.747 538.189 276.393C537.647 276.04 537.225 275.532 536.976 274.935C536.728 274.338 536.666 273.68 536.798 273.047C536.929 272.414 537.249 271.835 537.714 271.386Z" fill="#F0F0F0"/>
<path d="M49.1125 236.563L229.399 236.563L229.399 37.1695L49.1125 37.1695L49.1125 236.563Z" fill="#E0E0E0"/>
<path d="M43.3758 236.563L230.364 236.563L230.364 37.1695L43.3758 37.1695L43.3758 236.563Z" fill="#F0F0F0"/>
<path d="M51.2659 227.387L222.73 227.387L222.73 43.517L51.2659 43.517L51.2659 227.387Z" fill="white"/>
<path d="M51.2654 227.387H56.231L56.231 43.517H51.2654L51.2654 227.387Z" fill="#E0E0E0"/>
<path d="M55.7173 175.739V180.705H223.197V175.739H55.7173Z" fill="#E0E0E0"/>
<path d="M51.2658 175.739L225.398 175.739V167.415L51.2658 167.415V175.739Z" fill="#F0F0F0"/>
<path d="M525.855 71.3016C525.855 71.3016 527.461 60.6955 519.716 53.898C511.97 47.1005 512.661 43.0509 514.895 42.5206C517.129 41.9903 519.137 48.7878 522.544 50.668C522.544 50.668 522.657 41.0261 519.202 37.4104C515.747 33.7947 513.931 24.5546 517.225 24.5546C520.519 24.5546 520.841 30.0183 521.516 34.0036C522.191 37.9889 525.871 43.6455 525.871 43.6455C525.871 43.6455 526.578 34.9839 528.811 31.4164C531.045 27.8489 525.099 19.6854 527.381 16.118C529.663 12.5505 533.809 19.3319 533.423 26.9972C533.038 34.6625 527.976 42.7938 529.165 50.7965C529.165 50.7965 531.415 45.1882 533.439 44.674C535.464 44.1597 537.505 40.4476 538.855 39.0817C540.205 37.7157 541.924 42.4563 538.855 46.8755C535.786 51.2947 527.976 63.1221 529.213 72.6836L525.855 71.3016Z" fill="#E6E6E6"/>
<path d="M521.227 66.4647L518.688 82.3577C518.495 83.5177 518.559 84.7058 518.875 85.8384C519.191 86.9709 519.753 88.0202 520.519 88.9121C521.285 89.804 522.238 90.5169 523.31 91.0004C524.382 91.4839 525.547 91.7263 526.722 91.7103H529.422C530.598 91.7263 531.763 91.4839 532.835 91.0004C533.907 90.5169 534.859 89.804 535.626 88.9121C536.392 88.0202 536.953 86.9709 537.27 85.8384C537.586 84.7058 537.65 83.5177 537.457 82.3577L534.918 66.4647H521.227Z" fill="#F5F5F5"/>
<path d="M559.52 85.8448H380.503V95.0368H559.52V85.8448Z" fill="#E6E6E6"/>
<path d="M396.638 51.9536H388.748V85.8609H396.638V51.9536Z" fill="#F0F0F0"/>
<path d="M434.772 51.9536H426.882V85.8609H434.772V51.9536Z" fill="#F0F0F0"/>
<path d="M478.073 51.0858L470.297 52.4261L476.057 85.8406L483.832 84.5003L478.073 51.0858Z" fill="#F0F0F0"/>
<path d="M406.408 56.421H398.518V85.8608H406.408V56.421Z" fill="#F0F0F0"/>
<path d="M424.535 56.421H416.645V85.8608H424.535V56.421Z" fill="#F0F0F0"/>
<path d="M470.302 56.421H462.411V85.8608H470.302V56.421Z" fill="#F0F0F0"/>
<path d="M445.123 55.3821L437.421 57.0939L443.808 85.8326L451.51 84.1208L445.123 55.3821Z" fill="#F0F0F0"/>
<path d="M413.222 50.2663H409.284V85.8608H413.222V50.2663Z" fill="#F0F0F0"/>
<path d="M460.129 50.2663H456.192V85.8608H460.129V50.2663Z" fill="#F0F0F0"/>
<path d="M380.52 163.719L559.537 163.719V154.527L380.52 154.527V163.719Z" fill="#E6E6E6"/>
<path d="M543.403 154.511H551.294V120.604H543.403V154.511Z" fill="#F0F0F0"/>
<path d="M505.27 154.511H513.16V120.604H505.27V154.511Z" fill="#F0F0F0"/>
<path d="M456.219 153.162L463.995 154.503L469.755 121.088L461.979 119.748L456.219 153.162Z" fill="#F0F0F0"/>
<path d="M533.632 154.511H541.523V125.071H533.632V154.511Z" fill="#F0F0F0"/>
<path d="M515.505 154.511H523.396V125.071H515.505V154.511Z" fill="#F0F0F0"/>
<path d="M469.755 154.511H477.645V125.071H469.755V154.511Z" fill="#F0F0F0"/>
<path d="M488.527 152.774L496.229 154.486L502.616 125.747L494.914 124.036L488.527 152.774Z" fill="#F0F0F0"/>
<path d="M526.819 154.511H530.756V118.917H526.819V154.511Z" fill="#F0F0F0"/>
<path d="M479.911 154.511H483.848V118.917H479.911V154.511Z" fill="#F0F0F0"/>
<path d="M397.698 154.222H436.121V127.69H397.698V154.222Z" fill="#F5F5F5"/>
<path d="M319.535 525C491.614 525 631.112 516.856 631.112 506.809C631.112 496.762 491.614 488.618 319.535 488.618C147.455 488.618 7.95752 496.762 7.95752 506.809C7.95752 516.856 147.455 525 319.535 525Z" fill="#F5F5F5"/>
<path d="M452.062 466.634C452.062 466.634 444.027 449.263 453.187 432.149C462.347 415.034 464.918 411.001 459.133 407.482C453.348 403.962 450.664 421.189 450.664 421.189C447.791 413.411 447.493 404.916 449.812 396.956C453.846 384.582 456.385 364.414 450.873 362.245C445.361 360.076 449.812 387.41 445.039 396.715C442.586 390.179 440.997 383.35 440.315 376.403C439.656 366.455 440.685 350.578 436.33 346.497C431.975 342.415 429.195 345.243 433.469 367.195C436.039 380.314 437.458 393.633 437.712 406.999C437.712 406.999 428.279 378.202 421.931 377.351C415.584 376.499 415.6 385.836 421.031 393.935C426.463 402.034 436.924 416.513 438.708 423.969C438.708 423.969 428.343 402.291 419.022 408.944C409.702 415.597 427.057 428.662 434.916 433.402C442.774 438.143 448.093 467.775 448.093 467.775L452.062 466.634Z" fill="#F3EB39"/>
<path opacity="0.2" d="M451.928 467.214C451.928 467.214 443.893 449.843 453.053 432.729C462.213 415.614 464.784 411.581 458.999 408.062C453.213 404.542 450.53 421.769 450.53 421.769C447.657 413.991 447.358 405.496 449.678 397.536C453.712 385.162 456.251 364.994 450.739 362.825C445.227 360.656 449.678 387.99 444.905 397.295C442.452 390.759 440.863 383.93 440.181 376.983C439.522 367.035 440.55 351.158 436.196 347.077C431.841 342.995 429.061 345.823 433.335 367.775C435.904 380.894 437.324 394.213 437.578 407.579C437.578 407.579 428.145 378.782 421.797 377.931C415.45 377.079 415.466 386.416 420.897 394.515C426.329 402.614 436.79 417.093 438.574 424.549C438.574 424.549 428.209 402.871 418.888 409.524C409.568 416.177 426.923 429.241 434.781 433.982C442.64 438.723 447.959 468.355 447.959 468.355L451.928 467.214Z" fill="black"/>
<path d="M445.779 473.753C445.779 473.753 453.525 456.269 444.172 439.284C434.82 422.298 432.2 418.313 437.953 414.713C443.706 411.113 446.567 428.292 446.567 428.292C449.354 420.484 449.551 411.987 447.129 404.059C442.951 391.733 440.171 371.598 445.667 369.364C451.163 367.13 447.017 394.497 451.902 403.753C454.275 397.179 455.782 390.324 456.385 383.361C456.932 373.397 455.71 357.537 460.001 353.391C464.292 349.245 467.136 352.041 463.119 374.056C460.703 387.205 459.444 400.541 459.358 413.909C459.358 413.909 468.454 384.984 474.785 384.036C481.117 383.088 481.213 392.424 475.878 400.604C470.543 408.783 460.258 423.407 458.635 430.895C458.635 430.895 468.743 409.072 478.144 415.565C487.545 422.057 470.27 435.427 462.556 440.264C454.843 445.101 449.797 474.83 449.797 474.83L445.779 473.753Z" fill="#F3EB39"/>
<path d="M481.518 461.283H417.496L422.671 507.098H476.344L481.518 461.283Z" fill="#263238"/>
<path opacity="0.2" d="M607.264 5.70497H268.899C266.698 5.70497 264.914 7.48925 264.914 9.69028V310.227C264.914 312.428 266.698 314.213 268.899 314.213H607.264C609.465 314.213 611.25 312.428 611.25 310.227V9.69028C611.25 7.48925 609.465 5.70497 607.264 5.70497Z" fill="black"/>
<path d="M594.167 0H255.802C253.601 0 251.816 1.78428 251.816 3.98531V304.522C251.816 306.723 253.601 308.508 255.802 308.508H594.167C596.368 308.508 598.152 306.723 598.152 304.522V3.98531C598.152 1.78428 596.368 0 594.167 0Z" fill="#F3EB39"/>
<path opacity="0.6" d="M251.817 27.4632V304.538C251.736 305.5 252.036 306.454 252.652 307.197C253.268 307.939 254.151 308.41 255.111 308.508H594.842C595.805 308.414 596.692 307.945 597.312 307.202C597.931 306.459 598.233 305.502 598.153 304.538V27.4632H251.817Z" fill="white"/>
<path d="M594.039 43.8063H255.915V288.501H594.039V43.8063Z" fill="white"/>
<path opacity="0.6" d="M586.84 19.0426C589.644 19.0426 591.918 16.3014 591.918 12.92C591.918 9.53858 589.644 6.79741 586.84 6.79741C584.035 6.79741 581.762 9.53858 581.762 12.92C581.762 16.3014 584.035 19.0426 586.84 19.0426Z" fill="white"/>
<path opacity="0.6" d="M570.208 19.0426C573.012 19.0426 575.286 16.3014 575.286 12.92C575.286 9.53858 573.012 6.79741 570.208 6.79741C567.403 6.79741 565.13 9.53858 565.13 12.92C565.13 16.3014 567.403 19.0426 570.208 19.0426Z" fill="white"/>
<path opacity="0.6" d="M558.637 12.8558C558.637 16.2304 556.371 18.9784 553.559 18.9784C550.746 18.9784 548.497 16.2304 548.497 12.8558C548.497 9.48112 550.762 6.73318 553.559 6.73318C556.355 6.73318 558.637 9.5454 558.637 12.8558Z" fill="white"/>
<path d="M327.955 72.3623V135.484L311.724 155.057H275.776V72.3623H327.955Z" fill="#F3EB39"/>
<path opacity="0.3" d="M327.956 135.484L311.725 155.057V135.484H327.956Z" fill="black"/>
<path opacity="0.3" d="M319.872 84.2859H283.875V86.6482H319.872V84.2859Z" fill="black"/>
<path opacity="0.3" d="M319.872 93.269H283.875V95.6313H319.872V93.269Z" fill="black"/>
<path opacity="0.3" d="M319.872 102.252H283.875V104.63H319.872V102.252Z" fill="black"/>
<path opacity="0.3" d="M319.872 111.235H283.875V113.597H319.872V111.235Z" fill="black"/>
<path opacity="0.3" d="M310.567 120.218H283.875V122.596H310.567V120.218Z" fill="black"/>
<path d="M410.715 72.3623V135.484L394.484 155.057H358.536V72.3623H410.715Z" fill="#F3EB39"/>
<path opacity="0.3" d="M410.715 135.484L394.484 155.057V135.484H410.715Z" fill="#407BFF"/>
<path opacity="0.3" d="M402.616 84.2859H366.62V86.6482H402.616V84.2859Z" fill="black"/>
<path opacity="0.3" d="M402.616 93.269H366.62V95.6313H402.616V93.269Z" fill="black"/>
<path opacity="0.3" d="M402.616 102.252H366.62V104.63H402.616V102.252Z" fill="black"/>
<path opacity="0.3" d="M402.616 111.235H366.62V113.597H402.616V111.235Z" fill="black"/>
<path opacity="0.3" d="M393.312 120.218H366.62V122.596H393.312V120.218Z" fill="black"/>
<path d="M493.474 72.3623V135.484L477.243 155.057H441.295V72.3623H493.474Z" fill="#F3EB39"/>
<path opacity="0.3" d="M493.474 135.484L477.243 155.057V135.484H493.474Z" fill="black"/>
<path opacity="0.3" d="M485.374 84.2859H449.378V86.6482H485.374V84.2859Z" fill="black"/>
<path opacity="0.3" d="M485.374 93.269H449.378V95.6313H485.374V93.269Z" fill="black"/>
<path opacity="0.3" d="M485.374 102.252H449.378V104.63H485.374V102.252Z" fill="black"/>
<path opacity="0.3" d="M485.374 111.235H449.378V113.613H485.374V111.235Z" fill="black"/>
<path opacity="0.3" d="M476.07 120.218H449.378V122.58H476.07V120.218Z" fill="black"/>
<path d="M575.43 72.3623V135.484L559.199 155.057H523.251V72.3623H575.43Z" fill="#F3EB39"/>
<path opacity="0.3" d="M575.43 135.484L559.199 155.057V135.484H575.43Z" fill="black"/>
<path opacity="0.3" d="M567.331 84.2859H531.334V86.6482H567.331V84.2859Z" fill="black"/>
<path opacity="0.3" d="M567.331 93.269H531.334V95.6313H567.331V93.269Z" fill="black"/>
<path opacity="0.3" d="M567.331 102.252H531.334V104.63H567.331V102.252Z" fill="black"/>
<path opacity="0.3" d="M567.331 111.235H531.334V113.613H567.331V111.235Z" fill="black"/>
<path opacity="0.3" d="M558.026 120.218H531.334V122.58H558.026V120.218Z" fill="black"/>
<path d="M327.955 181.637V244.759L311.724 264.332H275.776V181.637H327.955Z" fill="#F3EB39"/>
<path opacity="0.3" d="M327.956 244.759L311.725 264.332V244.759H327.956Z" fill="black"/>
<path opacity="0.3" d="M319.872 193.56H283.875V195.923H319.872V193.56Z" fill="black"/>
<path opacity="0.3" d="M319.872 202.544H283.875V204.906H319.872V202.544Z" fill="black"/>
<path opacity="0.3" d="M319.872 211.527H283.875V213.905H319.872V211.527Z" fill="black"/>
<path opacity="0.3" d="M319.872 220.51H283.875V222.888H319.872V220.51Z" fill="black"/>
<path opacity="0.3" d="M310.567 229.493H283.875V231.855H310.567V229.493Z" fill="black"/>
<path d="M410.715 181.637V244.759L394.484 264.332H358.536V181.637H410.715Z" fill="#F3EB39"/>
<path opacity="0.3" d="M410.715 244.759L394.484 264.332V244.759H410.715Z" fill="black"/>
<path opacity="0.3" d="M402.616 193.56H366.62V195.923H402.616V193.56Z" fill="#407BFF"/>
<path opacity="0.3" d="M402.616 202.544H366.62V204.906H402.616V202.544Z" fill="black"/>
<path opacity="0.3" d="M402.616 211.527H366.62V213.905H402.616V211.527Z" fill="black"/>
<path opacity="0.3" d="M402.616 220.51H366.62V222.888H402.616V220.51Z" fill="black"/>
<path opacity="0.3" d="M393.312 229.493H366.62V231.855H393.312V229.493Z" fill="black"/>
<path d="M493.474 181.637V244.759L477.243 264.332H441.295V181.637H493.474Z" fill="#F3EB39"/>
<path opacity="0.3" d="M493.474 244.759L477.243 264.332V244.759H493.474Z" fill="black"/>
<path opacity="0.3" d="M485.374 193.56H449.378V195.923H485.374V193.56Z" fill="black"/>
<path opacity="0.3" d="M485.374 202.544H449.378V204.906H485.374V202.544Z" fill="black"/>
<path opacity="0.3" d="M485.374 211.526H449.378V213.905H485.374V211.526Z" fill="black"/>
<path opacity="0.3" d="M485.374 220.509H449.378V222.888H485.374V220.509Z" fill="black"/>
<path opacity="0.3" d="M476.07 229.493H449.378V231.855H476.07V229.493Z" fill="black"/>
<path opacity="0.7" d="M327.954 274.841V337.964L311.724 357.537H275.776V274.841H327.954Z" fill="white"/>
<path opacity="0.7" d="M410.714 274.842V337.964L394.483 357.537H358.535V274.842H410.714Z" fill="white"/>
<path opacity="0.7" d="M493.473 274.842V337.964L477.243 357.537H441.295V274.842H493.473Z" fill="white"/>
<path opacity="0.7" d="M576.217 274.842V337.964L559.986 357.537H524.054V274.842H576.217Z" fill="white"/>
<path opacity="0.7" d="M327.954 384.116V447.238L311.724 466.811H275.776V384.116H327.954Z" fill="white"/>
<path opacity="0.7" d="M410.714 384.116V447.238L394.483 466.811H358.535V384.116H410.714Z" fill="white"/>
<path opacity="0.7" d="M493.473 384.116V447.238L477.243 466.811H441.295V384.116H493.473Z" fill="white"/>
<path opacity="0.7" d="M576.217 384.116V447.238L559.986 466.811H524.054V384.116H576.217Z" fill="white"/>
<path d="M575.43 181.637V244.759L559.199 264.332H523.251V181.637H575.43Z" fill="#F3EB39"/>
<path opacity="0.3" d="M575.43 244.759L559.199 264.332V244.759H575.43Z" fill="black"/>
<path opacity="0.3" d="M567.331 193.56H531.334V195.923H567.331V193.56Z" fill="black"/>
<path opacity="0.3" d="M567.331 202.544H531.334V204.906H567.331V202.544Z" fill="black"/>
<path opacity="0.3" d="M567.331 211.526H531.334V213.905H567.331V211.526Z" fill="black"/>
<path opacity="0.3" d="M567.331 220.509H531.334V222.888H567.331V220.509Z" fill="black"/>
<path opacity="0.3" d="M558.026 229.493H531.334V231.855H558.026V229.493Z" fill="black"/>
<path opacity="0.1" d="M448.029 129.362H364.739C360.879 129.362 357.749 132.491 357.749 136.352V198.767C357.749 202.628 360.879 205.757 364.739 205.757H448.029C451.89 205.757 455.019 202.628 455.019 198.767V136.352C455.019 132.491 451.89 129.362 448.029 129.362Z" fill="black"/>
<g opacity="0.1">
<path d="M442.067 125.794H432.425V115.365C432.425 108.776 429.807 102.457 425.148 97.7975C420.489 93.1384 414.17 90.5209 407.581 90.5209C400.992 90.5209 394.673 93.1384 390.014 97.7975C385.355 102.457 382.737 108.776 382.737 115.365V125.794H373.095V115.365C373.095 106.219 376.729 97.447 383.196 90.9797C389.663 84.5123 398.435 80.879 407.581 80.879C416.727 80.879 425.499 84.5123 431.966 90.9797C438.433 97.447 442.067 106.219 442.067 115.365V125.794Z" fill="black"/>
</g>
<path d="M407.855 126.148H324.565C320.704 126.148 317.575 129.277 317.575 133.138V195.553C317.575 199.414 320.704 202.543 324.565 202.543H407.855C411.715 202.543 414.845 199.414 414.845 195.553V133.138C414.845 129.277 411.715 126.148 407.855 126.148Z" fill="black"/>
<path opacity="0.2" d="M390.258 126.148H324.565C320.704 126.148 317.575 129.277 317.575 133.138V195.553C317.575 199.414 320.704 202.543 324.565 202.543H390.258C394.119 202.543 397.249 199.414 397.249 195.553V133.138C397.249 129.277 394.119 126.148 390.258 126.148Z" fill="white" fill-opacity="0.5"/>
<path d="M362.296 154.8C362.296 149.545 359.082 145.271 355.129 145.271C351.176 145.271 347.978 149.545 347.978 154.8C347.881 156.54 348.245 158.274 349.032 159.829C349.819 161.383 351.002 162.703 352.461 163.655L351.127 183.565H359.162L357.844 163.655C359.296 162.697 360.47 161.375 361.251 159.821C362.032 158.268 362.393 156.536 362.296 154.8Z" fill="#263238"/>
<path d="M401.892 122.58H392.251V112.151C392.251 105.562 389.633 99.2429 384.974 94.5838C380.315 89.9247 373.996 87.3072 367.407 87.3072C360.818 87.3072 354.499 89.9247 349.839 94.5838C345.18 99.2429 342.563 105.562 342.563 112.151V122.58H332.921V112.151C332.921 103.005 336.554 94.2333 343.022 87.766C349.489 81.2987 358.26 77.6653 367.407 77.6653C376.553 77.6653 385.324 81.2987 391.792 87.766C398.259 94.2333 401.892 103.005 401.892 112.151V122.58Z" fill="#263238"/>
<g opacity="0.4">
<path d="M401.892 122.58H392.251V112.151C392.251 105.562 389.633 99.2429 384.974 94.5838C380.315 89.9247 373.996 87.3072 367.407 87.3072C360.818 87.3072 354.499 89.9247 349.839 94.5838C345.18 99.2429 342.563 105.562 342.563 112.151V122.58H332.921V112.151C332.921 103.005 336.554 94.2333 343.022 87.766C349.489 81.2987 358.26 77.6653 367.407 77.6653C376.553 77.6653 385.324 81.2987 391.792 87.766C398.259 94.2333 401.892 103.005 401.892 112.151V122.58Z" fill="white"/>
</g>
<path opacity="0.2" d="M401.893 112.167V122.596H395.32V110.978C395.32 106.84 394.505 102.743 392.921 98.9209C391.337 95.0985 389.016 91.6256 386.089 88.7007C383.163 85.7757 379.689 83.456 375.865 81.8741C372.042 80.2922 367.945 79.479 363.807 79.4811C357.484 79.4613 351.31 81.3978 346.13 85.0252C351.216 81.0222 357.327 78.5328 363.763 77.8422C370.198 77.1516 376.698 78.2877 382.518 81.1203C388.337 83.953 393.241 88.3677 396.668 93.8586C400.095 99.3496 401.905 105.695 401.893 112.167Z" fill="white"/>
<path d="M265.637 296.937H226.667V295.427H235.474C236.066 295.424 236.638 295.214 237.091 294.832C237.543 294.45 237.847 293.921 237.948 293.338L241.886 269.972L242.657 265.36H255.995L267.935 293.531C268.08 293.907 268.131 294.313 268.086 294.714C268.04 295.115 267.899 295.498 267.673 295.833C267.448 296.167 267.145 296.442 266.79 296.635C266.436 296.827 266.04 296.931 265.637 296.937Z" fill="black"/>
<path opacity="0.4" d="M265.637 296.937H226.667V295.427H235.474C236.066 295.424 236.638 295.214 237.091 294.832C237.543 294.45 237.847 293.921 237.948 293.338L241.886 269.972L242.657 265.36H255.995L267.935 293.531C268.08 293.907 268.131 294.313 268.086 294.714C268.04 295.115 267.899 295.498 267.673 295.833C267.448 296.167 267.145 296.442 266.79 296.635C266.436 296.827 266.04 296.931 265.637 296.937Z" fill="white"/>
<path opacity="0.2" d="M265.684 293.82H235.473C236.065 293.817 236.638 293.607 237.09 293.225C237.542 292.843 237.846 292.314 237.948 291.731L241.885 268.365H255.866L266.488 292.647C266.533 292.777 266.547 292.917 266.529 293.054C266.51 293.191 266.46 293.322 266.382 293.436C266.304 293.55 266.2 293.644 266.079 293.711C265.958 293.778 265.823 293.815 265.684 293.82Z" fill="black"/>
<path d="M286.575 273.925H208.653C208.478 273.933 208.303 273.9 208.143 273.828C207.983 273.757 207.842 273.649 207.731 273.513C207.621 273.377 207.543 273.217 207.505 273.046C207.467 272.875 207.469 272.697 207.512 272.527L218.552 213.985C218.631 213.607 218.83 213.265 219.12 213.01C219.409 212.755 219.774 212.601 220.159 212.571H298.081C298.258 212.562 298.435 212.596 298.596 212.668C298.758 212.741 298.9 212.85 299.011 212.988C299.122 213.126 299.199 213.288 299.236 213.461C299.273 213.635 299.268 213.814 299.222 213.985L288.166 272.527C288.083 272.899 287.884 273.234 287.598 273.485C287.312 273.736 286.954 273.89 286.575 273.925Z" fill="#407BFF"/>
<path opacity="0.4" d="M286.575 273.925H208.653C208.478 273.933 208.303 273.9 208.143 273.828C207.983 273.757 207.842 273.649 207.731 273.513C207.621 273.377 207.543 273.217 207.505 273.046C207.467 272.875 207.469 272.697 207.512 272.527L218.552 213.985C218.631 213.607 218.83 213.265 219.12 213.01C219.409 212.755 219.774 212.601 220.159 212.571H298.081C298.258 212.562 298.435 212.596 298.596 212.668C298.758 212.741 298.9 212.85 299.011 212.988C299.122 213.126 299.199 213.288 299.236 213.461C299.273 213.635 299.268 213.814 299.222 213.985L288.166 272.527C288.083 272.899 287.884 273.234 287.598 273.485C287.312 273.736 286.954 273.89 286.575 273.925Z" fill="white"/>
<path d="M284.968 273.925H207.046C206.871 273.933 206.696 273.9 206.536 273.828C206.376 273.757 206.235 273.649 206.124 273.513C206.014 273.377 205.936 273.217 205.898 273.046C205.86 272.875 205.862 272.697 205.905 272.527L216.945 213.985C217.024 213.607 217.223 213.265 217.513 213.01C217.803 212.755 218.167 212.601 218.552 212.571H296.474C296.651 212.562 296.828 212.596 296.989 212.668C297.151 212.741 297.293 212.85 297.404 212.988C297.515 213.126 297.592 213.288 297.629 213.461C297.666 213.635 297.661 213.814 297.615 213.985L286.559 272.527C286.476 272.899 286.277 273.234 285.991 273.485C285.705 273.736 285.347 273.891 284.968 273.925Z" fill="#263238"/>
<path d="M283.94 270.342H209.441L219.693 216.155H294.177L283.94 270.342Z" fill="#F3EB39"/>
<path d="M154.097 296.937V295.106L184.083 289.047H242.754C243.798 289.047 244.799 289.462 245.538 290.2C246.276 290.939 246.691 291.94 246.691 292.984C246.691 294.029 246.276 295.03 245.538 295.768C244.799 296.507 243.798 296.921 242.754 296.921L154.097 296.937Z" fill="#407BFF"/>
<path opacity="0.4" d="M246.674 292.984C246.676 294.025 246.266 295.025 245.533 295.764C244.79 296.503 243.785 296.918 242.737 296.921H154.08V295.105L184.082 289.031H242.737C243.255 289.031 243.769 289.133 244.247 289.332C244.726 289.531 245.161 289.823 245.527 290.19C245.893 290.557 246.182 290.993 246.379 291.473C246.576 291.952 246.676 292.466 246.674 292.984Z" fill="black"/>
<path opacity="0.4" d="M246.674 292.984C246.676 294.025 246.266 295.025 245.533 295.764C244.79 296.503 243.785 296.918 242.737 296.921H207.11V295.105L237.113 289.031H242.737C243.255 289.031 243.769 289.133 244.247 289.332C244.726 289.531 245.161 289.823 245.527 290.19C245.892 290.557 246.182 290.993 246.379 291.473C246.576 291.952 246.676 292.466 246.674 292.984Z" fill="black"/>
<path d="M268.127 507.098H276.146L290.577 306.322H279.923L268.127 507.098Z" fill="#263238"/>
<path opacity="0.1" d="M268.127 507.098H276.146L289.87 316.302L290.577 306.644H279.923L279.344 316.302L268.127 507.098Z" fill="white"/>
<path opacity="0.2" d="M279.344 315.82H289.87L290.577 306.644H279.923L279.344 315.82Z" fill="black"/>
<path d="M209.216 507.098H217.251L218.552 306.322H207.914L209.216 507.098Z" fill="#263238"/>
<path opacity="0.1" d="M207.914 306.644L208.123 339.04L209.216 507.098H217.251L218.343 339.04L218.552 306.644H207.914Z" fill="white"/>
<path opacity="0.2" d="M207.914 306.644L208.123 339.41H218.343L218.552 306.644H207.914Z" fill="black"/>
<path d="M124.014 507.098H132.033L146.463 306.322H135.809L124.014 507.098Z" fill="#263238"/>
<path opacity="0.1" d="M123.998 507.098H132.033L145.757 316.302L146.464 306.644H135.809L135.231 316.302L123.998 507.098Z" fill="white"/>
<path opacity="0.2" d="M135.23 315.82H145.756L146.463 306.644H135.809L135.23 315.82Z" fill="black"/>
<path d="M359.95 507.098H367.969L356.173 306.322H345.519L359.95 507.098Z" fill="#263238"/>
<path opacity="0.1" d="M345.519 306.644L346.242 316.302L359.95 507.098H367.969L356.752 316.302L356.173 306.644H345.519Z" fill="white"/>
<path opacity="0.2" d="M356.173 306.644H345.519L346.242 315.82H356.752L356.173 306.644Z" fill="black"/>
<path d="M361.139 309.745L130.843 309.745C129.922 309.745 129.039 309.379 128.388 308.728C127.737 308.077 127.372 307.195 127.372 306.274V299.685H364.61V306.274C364.61 307.195 364.244 308.077 363.593 308.728C362.942 309.379 362.059 309.745 361.139 309.745Z" fill="black"/>
<path opacity="0.4" d="M361.139 308.138L130.843 308.138C129.922 308.138 129.039 307.772 128.388 307.122C127.737 306.471 127.372 305.588 127.372 304.667V298.079H364.61V304.667C364.61 305.588 364.244 306.471 363.593 307.122C362.942 307.772 362.059 308.138 361.139 308.138Z" fill="white"/>
<path opacity="0.2" d="M127.356 306.338L364.61 306.338V301.308L127.356 301.308V306.338Z" fill="black"/>
<path d="M122.39 302.61H369.608C370.358 302.61 371.077 302.312 371.608 301.782C372.138 301.251 372.436 300.532 372.436 299.782C372.438 299.409 372.367 299.04 372.225 298.695C372.084 298.35 371.876 298.036 371.613 297.772C371.351 297.507 371.038 297.297 370.694 297.154C370.35 297.011 369.981 296.937 369.608 296.937H122.39C122.018 296.937 121.648 297.011 121.304 297.154C120.96 297.297 120.648 297.507 120.385 297.772C120.122 298.036 119.914 298.35 119.773 298.695C119.632 299.04 119.56 299.409 119.562 299.782C119.562 300.532 119.86 301.251 120.39 301.782C120.921 302.312 121.64 302.61 122.39 302.61Z" fill="black"/>
<path opacity="0.4" d="M122.39 301.003H369.608C370.358 301.003 371.077 300.705 371.608 300.175C372.138 299.644 372.436 298.925 372.436 298.175C372.438 297.802 372.367 297.433 372.225 297.088C372.084 296.743 371.876 296.429 371.613 296.165C371.351 295.9 371.038 295.69 370.694 295.547C370.35 295.404 369.981 295.33 369.608 295.33H122.39C122.018 295.33 121.648 295.404 121.304 295.547C120.96 295.69 120.648 295.9 120.385 296.165C120.122 296.429 119.914 296.743 119.773 297.088C119.632 297.433 119.56 297.802 119.562 298.175C119.562 298.925 119.86 299.644 120.39 300.175C120.921 300.705 121.64 301.003 122.39 301.003Z" fill="white"/>
<path opacity="0.3" d="M223.823 246.51C223.471 246.508 223.123 246.429 222.804 246.279C222.485 246.129 222.202 245.912 221.975 245.643C221.75 245.368 221.589 245.047 221.503 244.702C221.417 244.358 221.408 243.998 221.477 243.65L222.473 238.524C222.617 237.827 222.995 237.202 223.545 236.751C224.095 236.301 224.783 236.053 225.494 236.049H267.276C267.629 236.048 267.977 236.126 268.297 236.276C268.616 236.426 268.899 236.645 269.124 236.917C269.351 237.19 269.515 237.511 269.601 237.856C269.687 238.201 269.694 238.561 269.622 238.909L268.626 244.036C268.488 244.732 268.114 245.359 267.566 245.81C267.018 246.262 266.33 246.509 265.621 246.51H223.823Z" fill="white"/>
<path d="M265.62 245.707H223.838C223.601 245.711 223.365 245.662 223.148 245.564C222.932 245.466 222.74 245.321 222.586 245.139C222.432 244.958 222.321 244.745 222.259 244.515C222.198 244.285 222.189 244.045 222.231 243.811L223.228 238.684C223.329 238.167 223.607 237.701 224.015 237.366C224.422 237.032 224.934 236.85 225.461 236.853H267.243C267.481 236.849 267.716 236.898 267.933 236.996C268.149 237.094 268.341 237.239 268.495 237.42C268.649 237.602 268.76 237.815 268.822 238.045C268.883 238.274 268.893 238.515 268.85 238.749L267.853 243.875C267.753 244.393 267.474 244.859 267.066 245.193C266.659 245.528 266.147 245.709 265.62 245.707Z" fill="white"/>
<path d="M230.916 242.469C231.734 241.298 231.644 239.821 230.713 239.17C229.782 238.519 228.363 238.94 227.544 240.111C226.725 241.282 226.816 242.759 227.747 243.41C228.678 244.061 230.097 243.64 230.916 242.469Z" fill="#263238"/>
<path d="M237.948 241.288C237.833 241.93 237.509 242.516 237.027 242.955C236.544 243.394 235.93 243.661 235.28 243.714C234.992 243.705 234.71 243.63 234.456 243.494C234.202 243.357 233.983 243.164 233.817 242.929C233.65 242.694 233.54 242.423 233.496 242.138C233.451 241.854 233.474 241.563 233.561 241.288C233.672 240.643 233.995 240.053 234.478 239.611C234.96 239.169 235.576 238.9 236.228 238.845C236.518 238.853 236.802 238.929 237.058 239.066C237.313 239.203 237.533 239.398 237.7 239.636C237.867 239.873 237.977 240.146 238.02 240.432C238.063 240.719 238.038 241.012 237.948 241.288Z" fill="#263238"/>
<path d="M244.489 241.288C244.368 241.93 244.041 242.515 243.556 242.953C243.071 243.391 242.456 243.659 241.805 243.714C241.517 243.705 241.235 243.63 240.981 243.494C240.727 243.357 240.508 243.164 240.342 242.929C240.175 242.694 240.065 242.423 240.021 242.138C239.976 241.854 239.999 241.563 240.086 241.288C240.202 240.645 240.526 240.058 241.008 239.617C241.49 239.176 242.103 238.905 242.753 238.845C243.043 238.854 243.327 238.93 243.583 239.067C243.839 239.204 244.06 239.399 244.228 239.635C244.396 239.872 244.507 240.144 244.552 240.431C244.597 240.718 244.576 241.011 244.489 241.288Z" fill="#263238"/>
<path d="M250.516 242.487C251.335 241.316 251.244 239.839 250.313 239.188C249.382 238.536 247.963 238.958 247.144 240.129C246.326 241.3 246.416 242.777 247.347 243.428C248.278 244.079 249.697 243.658 250.516 242.487Z" fill="#263238"/>
<path d="M257.554 241.288C257.433 241.93 257.105 242.515 256.621 242.953C256.136 243.392 255.521 243.659 254.87 243.714C254.582 243.706 254.3 243.63 254.046 243.494C253.792 243.357 253.573 243.164 253.407 242.929C253.24 242.694 253.13 242.423 253.086 242.138C253.041 241.854 253.064 241.563 253.151 241.288C253.265 240.644 253.588 240.056 254.07 239.614C254.552 239.173 255.167 238.902 255.818 238.845C256.108 238.854 256.392 238.93 256.648 239.067C256.904 239.204 257.125 239.399 257.293 239.635C257.461 239.872 257.572 240.144 257.617 240.431C257.662 240.718 257.641 241.011 257.554 241.288Z" fill="#263238"/>
<path d="M263.579 242.483C264.398 241.312 264.307 239.835 263.376 239.184C262.445 238.533 261.027 238.954 260.208 240.125C259.389 241.296 259.48 242.773 260.411 243.424C261.342 244.075 262.76 243.654 263.579 242.483Z" fill="#263238"/>
<path opacity="0.3" d="M271.454 246.511C271.181 246.515 270.911 246.457 270.663 246.342C270.416 246.226 270.198 246.056 270.026 245.844C269.855 245.632 269.733 245.383 269.672 245.118C269.61 244.852 269.609 244.575 269.67 244.309L270.94 237.881C271.052 237.355 271.338 236.881 271.752 236.537C272.166 236.193 272.684 235.998 273.222 235.985H279.65C279.918 235.982 280.184 236.038 280.428 236.149C280.673 236.26 280.89 236.423 281.064 236.628C281.245 236.849 281.372 237.109 281.436 237.388C281.5 237.667 281.499 237.956 281.434 238.235L280.164 244.663C280.052 245.189 279.766 245.663 279.352 246.007C278.938 246.351 278.42 246.545 277.882 246.559L271.454 246.511Z" fill="white"/>
<path d="M271.454 245.707H277.881C278.234 245.691 278.571 245.559 278.841 245.333C279.111 245.106 279.299 244.797 279.376 244.453L280.645 238.026C280.686 237.875 280.69 237.717 280.659 237.565C280.627 237.413 280.56 237.27 280.463 237.148C280.366 237.026 280.242 236.929 280.101 236.863C279.959 236.798 279.805 236.767 279.649 236.772H273.221C272.869 236.788 272.532 236.92 272.262 237.146C271.992 237.373 271.804 237.682 271.727 238.026L270.457 244.453C270.417 244.604 270.413 244.762 270.444 244.914C270.476 245.066 270.543 245.209 270.64 245.331C270.737 245.453 270.861 245.55 271.002 245.616C271.143 245.681 271.298 245.712 271.454 245.707Z" fill="#263238"/>
<path d="M274.796 244.1C274.746 244.099 274.697 244.087 274.653 244.065C274.609 244.042 274.57 244.011 274.539 243.972C274.509 243.927 274.488 243.878 274.477 243.825C274.467 243.773 274.467 243.719 274.477 243.667C274.488 243.614 274.508 243.565 274.538 243.52C274.568 243.476 274.607 243.438 274.651 243.409L277.206 241.288L275.503 239.151C275.473 239.106 275.452 239.057 275.441 239.004C275.431 238.952 275.431 238.898 275.441 238.846C275.452 238.793 275.473 238.744 275.502 238.699C275.532 238.655 275.571 238.617 275.616 238.588C275.652 238.55 275.695 238.519 275.744 238.498C275.792 238.477 275.844 238.466 275.897 238.466C275.949 238.466 276.002 238.477 276.05 238.498C276.098 238.519 276.142 238.55 276.178 238.588L278.01 241.047C278.04 241.091 278.061 241.141 278.072 241.193C278.082 241.245 278.082 241.299 278.072 241.352C278.061 241.404 278.04 241.454 278.011 241.498C277.981 241.542 277.942 241.58 277.897 241.609L275.005 244.02C274.943 244.064 274.871 244.092 274.796 244.1Z" fill="#F3EB39"/>
<path d="M277.609 241.69H273.27C273.22 241.691 273.171 241.681 273.125 241.66C273.08 241.639 273.04 241.608 273.009 241.569C272.978 241.53 272.956 241.484 272.946 241.436C272.935 241.387 272.936 241.336 272.949 241.288C272.973 241.177 273.034 241.078 273.121 241.005C273.209 240.932 273.317 240.89 273.431 240.886H277.77C277.82 240.884 277.869 240.895 277.914 240.915C277.96 240.936 278 240.968 278.031 241.007C278.062 241.046 278.084 241.091 278.094 241.14C278.105 241.189 278.104 241.239 278.091 241.288C278.064 241.397 278.003 241.495 277.916 241.568C277.829 241.64 277.722 241.683 277.609 241.69Z" fill="#F3EB39"/>
<path d="M136.756 143.567H171.403C175.059 143.567 178.023 140.603 178.023 136.947V102.3C178.023 98.6437 175.059 95.6795 171.403 95.6795H136.756C133.1 95.6795 130.135 98.6437 130.135 102.3V136.947C130.135 140.603 133.1 143.567 136.756 143.567Z" fill="#F3EB39"/>
<path d="M150.352 141.784L154.096 157.886L157.841 141.784H150.352Z" fill="black"/>
<path opacity="0.3" d="M153.679 133.99C149.599 131.56 146.193 128.147 143.77 124.063C141.348 119.979 139.987 115.353 139.811 110.608V110.094L154.064 104.036L168.302 110.094V110.608C168.138 115.352 166.785 119.979 164.368 124.065C161.95 128.15 158.546 131.563 154.466 133.99L154.048 134.247L153.679 133.99Z" fill="white"/>
<path opacity="0.6" d="M154.097 104.904L167.547 110.641C167.411 115.259 166.106 119.767 163.753 123.744C161.401 127.721 158.079 131.036 154.097 133.379V104.904Z" fill="white"/>
<path opacity="0.4" d="M154.096 104.904L140.63 110.641C140.768 115.261 142.075 119.77 144.431 123.747C146.786 127.724 150.111 131.038 154.096 133.379V104.904Z" fill="white"/>
<path d="M141.16 286.46L152.409 288.067C154.967 287.287 157.592 286.749 160.251 286.46C163.138 286.213 166.041 286.213 168.929 286.46C168.929 286.46 174.023 288.356 174.023 293.241C174.023 293.241 162.147 296.455 157.6 294.511L141.176 293.241L141.16 286.46Z" fill="#E4897B"/>
<path opacity="0.2" d="M141.16 286.46L152.409 288.067C154.967 287.287 157.592 286.749 160.251 286.46C163.138 286.213 166.041 286.213 168.929 286.46C168.929 286.46 174.023 288.356 174.023 293.241C174.023 293.241 162.147 296.455 157.6 294.511L141.176 293.241L141.16 286.46Z" fill="black"/>
<path d="M169.025 210.514C169.199 212.831 169.653 215.119 170.375 217.328C169.784 217.687 169.106 217.876 168.414 217.876C167.723 217.876 167.045 217.687 166.454 217.328L169.025 210.514Z" fill="#AA473D"/>
<path d="M173.396 207.3C172.978 208.345 172.207 209.004 171.676 208.795C171.146 208.586 171.082 207.557 171.516 206.513C171.95 205.468 172.721 204.809 173.235 205.034C173.749 205.259 173.83 206.24 173.396 207.3Z" fill="#263238"/>
<path d="M176.047 203.106C175.112 202.545 174.061 202.207 172.974 202.118C171.887 202.028 170.794 202.191 169.78 202.592" stroke="#263238" stroke-width="0.72" stroke-linecap="round" stroke-linejoin="round"/>
<path d="M165.892 219.224C165.541 219.678 165.16 220.107 164.751 220.51C162.505 222.854 159.594 224.452 156.41 225.09C155.606 225.261 154.789 225.368 153.968 225.411C150.814 225.621 147.678 224.792 145.04 223.05C142.402 221.309 140.407 218.752 139.36 215.769C136.484 208.056 139.36 201.965 143.523 191.295C144.439 188.782 145.984 186.546 148.01 184.801C150.036 183.055 152.475 181.857 155.096 181.322C157.716 180.787 160.43 180.933 162.978 181.744C165.526 182.556 167.824 184.007 169.652 185.96C177.976 194.766 172.384 210.884 165.892 219.224Z" fill="#E4897B"/>
<path opacity="0.2" d="M156.41 225.089C155.605 225.261 154.788 225.368 153.967 225.411C151.806 225.556 149.641 225.214 147.63 224.41C145.619 223.606 143.814 222.361 142.349 220.767C143.378 219.72 144.54 218.813 145.804 218.067C149.938 219.345 153.619 221.782 156.41 225.089Z" fill="black"/>
<path d="M121.764 225.491C122.824 233.028 139.28 235.84 139.28 235.84C139.28 235.84 147.315 239.536 147.732 236.306C144.374 232.417 144.004 229.043 145.161 226.054C145.927 224.239 147.053 222.599 148.472 221.233C149.227 220.454 150.026 219.719 150.866 219.031L145.836 198.462C142.221 206.304 129.863 224.382 121.764 225.491Z" fill="#E4897B"/>
<path d="M168.736 180.158C168.736 180.158 172.255 179.708 174.955 186.265C177.221 191.793 171.87 192.982 172.111 198.864C172.352 204.745 166.968 207.991 166.968 207.991C166.968 207.991 162.469 211.88 158.628 209.759C158.628 209.759 153.614 212.218 152.297 216.524C150.979 220.831 143.217 213.053 136.227 214.226C136.227 214.226 131.502 209.807 131.856 199.072C132.123 194.411 133.268 189.842 135.23 185.606C136.159 183.364 137.524 181.329 139.246 179.619C140.967 177.909 143.01 176.557 145.258 175.643C153.213 172.075 167.209 174.791 168.736 180.158Z" fill="#263238"/>
<path d="M157.648 206.609C157.405 207.678 157.403 208.788 157.642 209.858C157.881 210.928 158.355 211.932 159.03 212.796C160.733 214.644 163.481 212.298 164.59 209.02C165.554 206.127 165.875 201.563 163.384 200.985C160.894 200.406 158.178 203.476 157.648 206.609Z" fill="#E4897B"/>
<path d="M159.415 231.71C157.112 238.138 155.055 244.298 153.244 250.19C152.087 253.854 151.027 257.438 150.03 260.893C149.205 263.807 148.445 266.624 147.748 269.346C147.411 270.663 147.074 271.965 146.752 273.251C144.984 280.337 143.538 286.797 142.429 292.534C140.557 301.49 139.167 310.539 138.267 319.644L75.2095 311.754C77.395 300.923 79.0984 291.458 81.4767 281.221C82.7944 275.629 84.2889 269.812 86.2173 263.432C87.5671 258.852 89.142 253.983 91.0382 248.696C97.3697 230.537 103.203 225.507 103.203 225.507C127.436 221.602 159.415 231.71 159.415 231.71Z" fill="#263238"/>
<path d="M180.387 287.649L191.636 289.336C194.192 288.533 196.817 287.968 199.478 287.649C202.371 287.412 205.278 287.412 208.171 287.649C208.171 287.649 213.249 289.561 213.249 294.431C213.249 294.431 201.39 297.645 196.826 295.716L180.403 294.431L180.387 287.649Z" fill="#E4897B"/>
<path d="M110.756 495.367L122.503 495.576L128.352 468.482L116.621 468.29L110.756 495.367Z" fill="black"/>
<path opacity="0.2" d="M116.621 468.29L128.352 468.499L125.009 483.99L113.391 483.202L116.621 468.29Z" fill="black"/>
<path d="M148.799 428.378C144.252 445.604 138.44 462.482 131.407 478.88L109.639 477.273C109.639 477.273 118.572 442.839 121.805 411.458C123.814 392.032 123.634 375.964 117.853 374.727C114.228 373.939 105.72 373.972 94.8115 374.213V334.252C125.398 340.422 155.837 352.087 158.156 361.439C161.389 374.598 155.739 402.46 148.799 428.378Z" fill="#F3EB39"/>
<path d="M107.687 478.944L133.205 480.631L136.966 469.607L108.844 468.29L107.687 478.944Z" fill="#F3EB39"/>
<path opacity="0.2" d="M107.687 478.944L133.205 480.631L136.966 469.607L108.844 468.29L107.687 478.944Z" fill="white"/>
<path d="M124.271 494.949H124.512C124.512 494.949 124.785 494.949 124.817 495.062C124.849 495.174 124.817 495.062 124.817 495.142H124.914C125.907 495.451 126.931 495.65 127.967 495.737C128.74 495.879 129.537 495.724 130.201 495.303C130.409 495.122 130.562 494.885 130.639 494.62C130.716 494.354 130.714 494.073 130.634 493.808C130.612 493.633 130.545 493.466 130.441 493.323C130.337 493.18 130.199 493.065 130.04 492.989C128.932 492.797 127.792 493.008 126.826 493.583C127.517 492.854 127.927 491.903 127.983 490.9C127.909 490.683 127.771 490.493 127.588 490.355C127.404 490.218 127.184 490.139 126.955 490.128C126.726 490.088 126.491 490.095 126.265 490.147C126.038 490.2 125.825 490.297 125.637 490.434C124.415 491.494 124.223 494.805 124.223 495.013L124.271 494.949ZM125.524 494.274L125.283 494.419C125.22 493.143 125.569 491.881 126.28 490.819C126.36 490.747 126.454 490.691 126.556 490.655C126.658 490.619 126.766 490.604 126.874 490.61H126.955C127.34 490.61 127.421 490.883 127.437 491.044C127.201 492.322 126.524 493.477 125.524 494.306V494.274ZM125.701 494.853C127.115 494.081 129.124 493.246 129.879 493.567C129.954 493.606 130.019 493.664 130.066 493.734C130.114 493.804 130.143 493.885 130.152 493.969C130.2 494.138 130.201 494.317 130.156 494.486C130.11 494.656 130.021 494.81 129.895 494.933C129.317 495.463 127.774 495.431 125.701 494.949V494.853Z" fill="#F3EB39"/>
<path d="M123.981 493.551L110.884 492.732C110.665 492.709 110.445 492.774 110.274 492.913C110.102 493.051 109.992 493.252 109.968 493.471L108.683 503.852C108.647 504.395 108.829 504.93 109.187 505.34C109.546 505.749 110.052 506 110.595 506.037C115.191 506.262 117.392 506.134 123.178 506.439C128.313 506.965 133.478 507.132 138.637 506.937C143.538 506.455 142.927 501.634 140.822 501.393C135.792 500.831 129.155 497.135 126.006 494.339C125.443 493.849 124.727 493.571 123.981 493.551Z" fill="#263238"/>
<path opacity="0.2" d="M147.938 433.209C139.903 428.131 130.567 422.169 121.375 416.288C123.351 396.859 123.174 380.79 117.486 379.552C113.918 378.765 105.546 378.797 94.8113 379.038V339.072C124.91 345.243 154.864 356.91 157.146 366.263C160.328 379.424 154.768 407.289 147.938 433.209Z" fill="black"/>
<path d="M179.438 495.367L191.168 495.576L197.018 468.482L185.287 468.29L179.438 495.367Z" fill="black"/>
<path opacity="0.2" d="M185.288 468.29L197.019 468.499L193.676 483.99L182.058 483.202L185.288 468.29Z" fill="black"/>
<path d="M136.773 331.038L138.669 315.868L77.3309 305.776C77.3309 305.776 57.2597 345.5 67.0784 364.945C76.0935 382.814 171.966 372.176 186.718 375.406C201.47 378.636 178.683 477.932 178.683 477.932L200.104 479.538C200.104 479.538 233.224 390.19 226.426 362.084C223.373 349.855 172.866 333.625 136.773 331.038Z" fill="#F3EB39"/>
<path d="M176.353 478.944L201.872 480.631L205.632 469.607L177.51 468.29L176.353 478.944Z" fill="#F3EB39"/>
<path opacity="0.2" d="M176.353 478.944L201.872 480.631L205.632 469.607L177.51 468.29L176.353 478.944Z" fill="white"/>
<path d="M192.854 495.088H193.095C193.095 495.088 193.368 495.088 193.4 495.2C193.432 495.313 193.4 495.2 193.4 495.28H193.497C194.49 495.589 195.514 495.789 196.55 495.875C197.323 496.017 198.12 495.862 198.784 495.441C198.993 495.261 199.145 495.023 199.222 494.758C199.299 494.493 199.297 494.211 199.218 493.947C199.195 493.771 199.128 493.605 199.024 493.461C198.921 493.318 198.783 493.203 198.623 493.127C197.515 492.935 196.375 493.146 195.409 493.722C196.1 492.992 196.51 492.041 196.566 491.038C196.516 490.804 196.392 490.592 196.213 490.433C196.034 490.274 195.808 490.176 195.57 490.154C195.341 490.114 195.106 490.121 194.88 490.173C194.654 490.226 194.44 490.323 194.252 490.46C193.031 491.52 192.838 494.831 192.838 495.039L192.854 495.088ZM194.123 494.413L193.882 494.557C193.806 493.283 194.151 492.018 194.863 490.958C194.943 490.885 195.037 490.83 195.139 490.794C195.241 490.758 195.349 490.743 195.457 490.749H195.602C195.988 490.749 196.068 491.022 196.084 491.183C195.839 492.468 195.144 493.625 194.123 494.445V494.413ZM194.284 494.991C195.698 494.22 197.707 493.384 198.462 493.706C198.537 493.745 198.602 493.802 198.649 493.872C198.697 493.942 198.727 494.023 198.735 494.107C198.783 494.276 198.784 494.455 198.739 494.625C198.694 494.794 198.604 494.949 198.478 495.072C197.9 495.602 196.357 495.57 194.365 495.088L194.284 494.991Z" fill="#F3EB39"/>
<path d="M192.664 493.551L179.503 492.732C179.283 492.709 179.064 492.774 178.893 492.913C178.721 493.051 178.611 493.252 178.587 493.471L177.301 503.852C177.266 504.395 177.447 504.93 177.806 505.34C178.164 505.749 178.67 506 179.214 506.037C183.809 506.262 186.011 506.134 191.796 506.439C196.931 506.965 202.097 507.132 207.255 506.937C212.157 506.455 211.546 501.634 209.441 501.393C204.411 500.831 197.774 497.135 194.624 494.339C194.078 493.863 193.387 493.585 192.664 493.551Z" fill="#263238"/>
<path d="M75.0811 312.622L103.492 316.35L104.408 312.172L75.9488 308.026L75.0811 312.622Z" fill="black"/>
<path d="M106.787 312.188L106.434 316.35L132.708 319.966V315.852L106.787 312.188Z" fill="black"/>
<path d="M134.33 316.076V319.965L138.155 320.48V316.719L134.33 316.076Z" fill="black"/>
<path opacity="0.2" d="M153.245 250.19C152.088 253.854 151.027 257.438 150.031 260.893C149.206 263.807 148.445 266.625 147.749 269.346C145.772 258.579 149.356 245.723 149.356 245.723L153.245 250.19Z" fill="black"/>
<path d="M159.415 231.71C164.542 232.739 166.229 272.592 166.454 276.818C166.679 281.044 191.619 289.256 191.619 289.256V295.073C191.619 295.073 164.879 293.193 158.628 290.638C152.377 288.083 150.866 251.139 150.866 251.139L159.415 231.71Z" fill="#E4897B"/>
<path d="M159.416 231.71C164.108 233.173 166.454 259.447 166.454 259.447L151.895 265.312L148.279 250.689C148.279 250.689 147.251 247.716 149.276 241.448C152.216 232.401 159.416 231.71 159.416 231.71Z" fill="#263238"/>
<path d="M50.8157 362.647H166.92C170.291 362.647 173.524 363.986 175.908 366.37C178.292 368.754 179.631 371.987 179.631 375.358V382.156H38.1045V375.358C38.1045 371.987 39.4437 368.754 41.8275 366.37C44.2113 363.986 47.4445 362.647 50.8157 362.647Z" fill="#F3EB39"/>
<path d="M88.5635 314.325H166.486C167.423 314.325 168.349 314.537 169.193 314.944C170.037 315.351 170.779 315.944 171.363 316.677C171.946 317.411 172.357 318.267 172.565 319.181C172.772 320.095 172.77 321.044 172.56 321.958L158.628 382.155H155.414L167.273 329.43C167.481 328.519 167.481 327.572 167.272 326.661C167.063 325.749 166.652 324.896 166.068 324.166C165.484 323.436 164.743 322.846 163.9 322.442C163.057 322.037 162.134 321.828 161.199 321.829H90.1544L88.5635 314.325Z" fill="#263238"/>
<path d="M118.052 384.261V435.122C118.052 435.906 117.74 436.658 117.186 437.212C116.631 437.767 115.879 438.078 115.095 438.078H102.625C102.234 438.083 101.846 438.009 101.483 437.863C101.121 437.716 100.791 437.499 100.513 437.224C100.235 436.949 100.014 436.621 99.8639 436.261C99.7132 435.9 99.6357 435.513 99.6357 435.122V384.261H118.052Z" fill="#263238"/>
<path d="M49.2252 501.699C49.2252 500.631 48.9085 499.587 48.3152 498.699C47.7219 497.811 46.8786 497.119 45.892 496.71C44.9054 496.301 43.8197 496.195 42.7723 496.403C41.7249 496.611 40.7629 497.125 40.0077 497.881C39.2526 498.636 38.7384 499.598 38.53 500.645C38.3217 501.693 38.4286 502.778 38.8373 503.765C39.246 504.751 39.938 505.595 40.8259 506.188C41.7139 506.781 42.7578 507.098 43.8257 507.098C44.5354 507.1 45.2385 506.962 45.8945 506.691C46.5506 506.421 47.1466 506.023 47.6484 505.521C48.1502 505.019 48.5479 504.423 48.8185 503.767C49.0891 503.111 49.2273 502.408 49.2252 501.699Z" fill="#263238"/>
<path opacity="0.2" d="M46.6055 501.699C46.6055 501.165 46.4472 500.643 46.1505 500.199C45.8539 499.755 45.4322 499.409 44.9389 499.204C44.4456 499 43.9028 498.947 43.3791 499.051C42.8554 499.155 42.3743 499.412 41.9968 499.79C41.6192 500.167 41.3621 500.648 41.2579 501.172C41.1538 501.696 41.2072 502.238 41.4116 502.732C41.6159 503.225 41.9619 503.647 42.4059 503.943C42.8499 504.24 43.3718 504.398 43.9058 504.398C44.6218 504.398 45.3085 504.114 45.8148 503.608C46.3211 503.101 46.6055 502.415 46.6055 501.699Z" fill="white"/>
<path d="M179.309 501.699C179.312 500.626 178.997 499.577 178.403 498.684C177.809 497.791 176.964 497.094 175.973 496.682C174.983 496.271 173.893 496.162 172.841 496.37C171.789 496.579 170.823 497.095 170.064 497.853C169.306 498.612 168.79 499.578 168.581 500.63C168.373 501.682 168.481 502.772 168.893 503.762C169.305 504.753 170.002 505.598 170.895 506.192C171.788 506.786 172.837 507.101 173.91 507.098C175.342 507.098 176.715 506.529 177.728 505.517C178.74 504.504 179.309 503.131 179.309 501.699Z" fill="#263238"/>
<path opacity="0.2" d="M176.61 501.699C176.613 501.16 176.456 500.633 176.159 500.184C175.862 499.735 175.438 499.384 174.941 499.177C174.444 498.969 173.896 498.914 173.368 499.018C172.84 499.123 172.354 499.382 171.974 499.762C171.593 500.143 171.334 500.629 171.23 501.157C171.125 501.685 171.18 502.233 171.388 502.729C171.596 503.226 171.946 503.65 172.395 503.947C172.844 504.245 173.372 504.402 173.91 504.398C174.626 504.398 175.313 504.114 175.819 503.608C176.325 503.101 176.61 502.415 176.61 501.699Z" fill="white"/>
<path d="M113.327 477.996V419.855H104.457V477.996C69.6496 478.88 48.4857 491.06 44.2593 493.728C44.0123 493.874 43.8089 494.084 43.6704 494.336C43.532 494.587 43.4634 494.871 43.4719 495.158V499.979C43.4697 500.203 43.5123 500.426 43.5972 500.634C43.682 500.841 43.8074 501.03 43.966 501.188C44.1246 501.347 44.3133 501.472 44.5209 501.557C44.7285 501.642 44.951 501.685 45.1753 501.683C45.4785 501.692 45.7783 501.616 46.0399 501.462C46.3015 501.309 46.5143 501.084 46.6537 500.815L48.7267 497.199C66.7611 491.454 85.5328 488.352 104.457 487.991V497.537C104.452 498.117 104.675 498.675 105.078 499.093C105.48 499.51 106.03 499.753 106.61 499.77H111.126C111.416 499.77 111.704 499.713 111.972 499.601C112.24 499.49 112.483 499.326 112.688 499.12C112.893 498.914 113.055 498.669 113.164 498.4C113.274 498.131 113.329 497.843 113.327 497.553V488.007C132.257 488.374 151.034 491.481 169.073 497.231L171.13 500.847C171.278 501.113 171.495 501.334 171.758 501.487C172.021 501.639 172.321 501.718 172.625 501.715C173.077 501.715 173.51 501.535 173.829 501.216C174.149 500.896 174.328 500.463 174.328 500.011V495.19C174.337 494.903 174.268 494.619 174.13 494.368C173.991 494.116 173.788 493.906 173.541 493.76C169.298 491.06 148.15 478.88 113.327 477.996Z" fill="#263238"/>
<path d="M111.801 496.299H105.935V507.114H111.801V496.299Z" fill="#263238"/>
<path opacity="0.2" d="M118.052 384.261H99.668V405.392H118.052V384.261Z" fill="black"/>
<path d="M183.488 379.022V385.096C183.488 385.505 183.407 385.909 183.251 386.287C183.094 386.664 182.864 387.007 182.574 387.295C182.284 387.583 181.941 387.811 181.562 387.966C181.184 388.121 180.779 388.2 180.371 388.198H37.3496C36.9417 388.2 36.5374 388.121 36.1602 387.966C35.7829 387.811 35.4402 387.582 35.1517 387.294C34.8633 387.006 34.6349 386.663 34.4798 386.286C34.3247 385.908 34.246 385.504 34.2481 385.096V379.022C34.2481 378.199 34.5749 377.41 35.1565 376.829C35.7381 376.247 36.527 375.92 37.3496 375.92H180.371C181.195 375.92 181.985 376.247 182.569 376.828C183.154 377.409 183.484 378.198 183.488 379.022Z" fill="#263238"/>
<path d="M117.682 382.156H34.2319C34.2319 382.156 7.7168 338.06 7.7168 265.151V238.443C7.72531 233.164 9.82847 228.104 13.5645 224.374C17.3005 220.644 22.364 218.549 27.6433 218.549H62.9968C68.1706 218.546 73.1422 220.558 76.8586 224.157C80.5751 227.757 82.7445 232.662 82.9073 237.833C83.9679 275.42 89.4959 356.749 117.682 382.156Z" fill="#263238"/>
<path opacity="0.2" d="M99.3306 382.156H38.0083C36.8482 382.15 35.7114 381.83 34.7183 381.23C33.7253 380.63 32.9131 379.773 32.3678 378.749C26.3417 367.098 7.7168 326.217 7.7168 265.151V238.443C7.72106 233.166 9.82064 228.105 13.5541 224.375C17.2876 220.645 22.3495 218.549 27.6273 218.549H58.1598C63.3336 218.546 68.3052 220.558 72.0216 224.157C75.7381 227.757 77.9074 232.662 78.0703 237.833C79.0023 271.37 83.5019 339.828 104.553 372.192C105.185 373.151 105.549 374.262 105.606 375.408C105.663 376.555 105.412 377.697 104.879 378.714C104.346 379.731 103.55 380.586 102.574 381.191C101.599 381.797 100.479 382.13 99.3306 382.156Z" fill="white"/>
<path opacity="0.2" d="M183.488 379.022V385.096C183.49 385.504 183.411 385.908 183.256 386.286C183.101 386.663 182.873 387.006 182.584 387.294C182.296 387.582 181.953 387.811 181.576 387.966C181.199 388.121 180.794 388.2 180.386 388.198H116.284C115.183 388.198 114.126 387.765 113.341 386.992C112.556 386.219 112.107 385.169 112.09 384.068V380.179C112.09 379.066 112.532 378 113.318 377.213C114.105 376.427 115.172 375.985 116.284 375.985H180.37C181.183 375.984 181.964 376.302 182.547 376.869C183.129 377.437 183.467 378.209 183.488 379.022Z" fill="black"/>
<path d="M34.2158 216.171L39.5188 209.229C39.5188 209.229 62.1612 210.257 62.6754 218.549C63.1896 226.841 34.2158 216.171 34.2158 216.171Z" fill="black"/>
<path d="M19.2871 236.949C19.2871 236.949 20.6691 273.732 19.2871 368.721C19.2871 371.935 7.29904 371.822 6.43127 368.721C3.55478 357.922 6.43127 271.547 6.43127 271.547" fill="#F3EB39"/>
<path d="M6.75195 369.203L18.9489 369.621V375.711L6.75195 375.085V369.203Z" fill="black"/>
<path opacity="0.2" d="M26.9902 196.051C26.9902 196.051 28.3722 232.835 26.9902 327.823C26.9902 331.037 15.0022 330.925 14.1344 327.823C11.2579 317.025 14.1344 230.65 14.1344 230.65" fill="white"/>
<path d="M0.726189 349.293C0.0673284 331.793 -2.32707 251.267 7.71654 224.608C7.71654 224.608 17.1977 212.587 49.2248 212.587C81.2519 212.587 90.8937 235.31 90.8937 235.31C90.8937 235.31 92.2757 272.11 90.8937 367.082C90.8937 370.296 78.9057 370.184 78.0379 367.082C75.1453 356.267 78.0379 269.908 78.0379 269.908L71.61 348.473C71.6007 348.74 71.5363 349.002 71.4207 349.242C71.3052 349.482 71.141 349.696 70.9387 349.87C70.7363 350.043 70.5001 350.173 70.245 350.251C69.9899 350.329 69.7215 350.353 69.4566 350.321C59.3488 348.714 14.8194 342.463 3.04024 350.498C2.82054 350.656 2.5615 350.749 2.2919 350.768C2.02229 350.787 1.75266 350.731 1.51294 350.607C1.27322 350.482 1.07279 350.293 0.933908 350.061C0.795027 349.829 0.723127 349.563 0.726189 349.293Z" fill="#F3EB39"/>
<path d="M78.3115 367.58L90.5085 367.982V374.073L78.3115 373.462V367.58Z" fill="black"/>
<path d="M70.0515 350.321L69.0873 356.749C69.0873 356.749 19.3835 345.902 3.28157 357.456L2.31738 350.321C2.31738 350.321 14.7554 338.863 70.0515 350.321Z" fill="black"/>
<path opacity="0.4" d="M0.726191 347.22C0.0673295 329.72 -2.32707 249.194 7.71655 222.534C7.71655 222.534 17.1977 210.514 49.2248 210.514C81.2519 210.514 90.8937 233.237 90.8937 233.237C90.8937 233.237 92.2757 270.037 90.8937 365.009C90.8937 368.223 78.9057 368.11 78.0379 365.009C75.1453 354.194 78.0379 267.835 78.0379 267.835L71.61 346.4C71.6007 346.667 71.5363 346.928 71.4207 347.169C71.3052 347.409 71.141 347.623 70.9387 347.796C70.7363 347.97 70.5001 348.1 70.245 348.178C69.9899 348.255 69.7215 348.279 69.4566 348.248C59.3487 346.641 14.8194 340.39 3.04024 348.425C2.82054 348.582 2.56151 348.676 2.2919 348.695C2.02229 348.714 1.75266 348.658 1.51294 348.533C1.27322 348.408 1.07279 348.22 0.93391 347.988C0.795029 347.756 0.723128 347.49 0.726191 347.22Z" fill="white" fill-opacity="0.5"/>
<path opacity="0.2" d="M78.0856 269.972C78.0856 269.972 78.7927 245.032 90.9414 235.358C90.8932 235.31 75.7555 241.834 78.0856 269.972Z" fill="black"/>
<path opacity="0.2" d="M41.6401 215.448C41.6401 215.448 27.0166 223.482 24.6865 332.982C24.6865 332.982 18.3228 222.534 41.6401 215.448Z" fill="black"/>
</svg>
